<?xml version="1.0" encoding="UTF-8" standalone="no"?>
<svg width="49px" height="38px" viewBox="0 0 49 38" version="1.1" xmlns="http://www.w3.org/2000/svg" xmlns:xlink="http://www.w3.org/1999/xlink">
    <!-- Generator: Sketch 3.8.3 (29802) - http://www.bohemiancoding.com/sketch -->
    <title>post adress</title>
    <desc>Created with Sketch.</desc>
    <defs></defs>
    <g id="Page-1" stroke="none" stroke-width="1" fill="none" fill-rule="evenodd">
        <g id="icons" transform="translate(-577.000000, -971.000000)" fill="#010002">
            <g id="post-adress" transform="translate(577.500000, 971.000000)">
                <g id="Capa_1">
                    <g>
                        <g id="Group">
                            <path d="M47.68,37.2610588 L47.68,1.41776471 C47.68,1.02202941 47.36,0.700852941 46.9657143,0.700852941 L0.714285714,0.700852941 C0.32,0.700852941 0,1.02202941 0,1.41776471 L0,37.2610588 C0,37.6567941 0.32,37.9779706 0.714285714,37.9779706 L46.9657143,37.9779706 C47.36,37.9779706 47.68,37.6567941 47.68,37.2610588 L47.68,37.2610588 Z M46.2514286,36.5441471 L1.42857143,36.5441471 L1.42857143,2.13467647 L46.2514286,2.13467647 L46.2514286,36.5441471 L46.2514286,36.5441471 Z" id="Shape"></path>
                            <path d="M4.32571429,20.0551765 L23.2057143,20.0551765 C23.6,20.0551765 23.92,19.734 23.92,19.3382647 L23.92,6.70570588 C23.92,6.30997059 23.6,5.98879412 23.2057143,5.98879412 L4.32571429,5.98879412 C3.93142857,5.98879412 3.61142857,6.30997059 3.61142857,6.70570588 L3.61142857,19.3394118 C3.61142857,19.734 3.93257143,20.0551765 4.32571429,20.0551765 L4.32571429,20.0551765 Z M5.04,7.42261765 L22.4914286,7.42261765 L22.4914286,18.6225 L5.04,18.6225 L5.04,7.42261765 L5.04,7.42261765 Z" id="Shape"></path>
                            <rect id="Rectangle-path" x="4.18285714" y="22.5890294" width="39.3154286" height="1.43382353"></rect>
                            <rect id="Rectangle-path" x="4.18285714" y="27.534" width="39.3154286" height="1.43382353"></rect>
                        </g>
                    </g>
                </g>
            </g>
        </g>
    </g>
</svg>