<?xml version="1.0" encoding="UTF-8" standalone="no"?>
<svg width="39px" height="43px" viewBox="0 0 39 43" version="1.1" xmlns="http://www.w3.org/2000/svg" xmlns:xlink="http://www.w3.org/1999/xlink">
    <!-- Generator: Sketch 41 (35326) - http://www.bohemiancoding.com/sketch -->
    <title>com bill</title>
    <desc>Created with Sketch.</desc>
    <defs></defs>
    <g id="Page-1" stroke="none" stroke-width="1" fill="none" fill-rule="evenodd">
        <g id="сервис-аренда-общая" transform="translate(-138.000000, -897.000000)" fill="#000000">
            <g id="Group" transform="translate(120.000000, 490.000000)">
                <g id="ВИРТУАЛЬНЫЙ-ОФИС-+-почта,-телефон,-секр-+-Page-1-Copy-10" transform="translate(17.000000, 326.000000)">
                    <g id="ВИРТУАЛЬНЫЙ-ОФИС-+-почта,-телефон,-секр-Copy-2" transform="translate(0.000000, 76.000000)">
                        <g id="com-bill" transform="translate(0.500000, 5.500000)">
                            <g transform="translate(0.148352, 0.000000)" id="Layer_1">
                                <g transform="translate(0.851648, 0.423714)">
                                    <path d="M30.9549337,26.9094496 C26.8140388,26.9094496 23.445211,30.2719569 23.445211,34.4050827 C23.445211,38.5382085 26.8139508,41.9008036 30.9549337,41.9008036 C35.0959165,41.9008036 38.4646563,38.5382963 38.4646563,34.4051705 C38.4646563,30.2720447 35.0958285,26.9094496 30.9549337,26.9094496 Z M30.9549337,40.2350976 C27.7342181,40.2350976 25.1140481,37.6198434 25.1140481,34.4051705 C25.1140481,31.1904976 27.7342181,28.5752434 30.9549337,28.5752434 C34.1756492,28.5752434 36.7958193,31.1904976 36.7958193,34.4051705 C36.7958193,37.6198434 34.1756492,40.2350976 30.9549337,40.2350976 Z" id="Shape"></path>
                                    <path d="M34.8267095,31.2667425 C34.4726658,30.9724792 33.9466605,31.0200884 33.651492,31.3734679 L30.0645,35.6698879 L28.2072445,33.8162925 C27.8817143,33.4909339 27.3528929,33.4909339 27.0273627,33.8162925 C26.7013925,34.1413876 26.7013925,34.6688656 27.0273627,34.9939607 L29.5305743,37.4924757 C29.687399,37.6490063 29.8996668,37.7364947 30.1205592,37.7364947 C30.1331439,37.7364947 30.1458166,37.736319 30.1584013,37.7357041 C30.3924943,37.7251634 30.6114505,37.6165055 30.7615869,37.4367853 L34.9336355,32.4396673 C35.2286279,32.0863756 35.1807532,31.5613572 34.8267095,31.2667425 Z" id="Shape"></path>
                                    <path d="M30.9549337,0 L0.915867058,0 C0.455073369,0 0.0814045381,0.372879924 0.0814045381,0.832896924 L0.0814045381,39.4022885 C0.0814045381,39.7024371 0.243157555,39.9791325 0.504708136,40.1269668 C0.765906698,40.2749769 1.0871246,40.2709363 1.34506698,40.1164261 L5.03616876,37.9060255 L7.92484179,40.0686412 C8.19642493,40.2719903 8.56428544,40.2907002 8.85478963,40.1164261 L12.5458914,37.9060255 L15.4345644,40.0686412 C15.5825007,40.1792315 15.7584225,40.2351855 15.9353124,40.2351855 C16.0834246,40.2351855 16.2321529,40.1959211 16.3645123,40.1164261 L20.5365609,37.617911 C20.9317909,37.3812706 21.059926,36.8696038 20.8227528,36.4753788 C20.5856676,36.0811538 20.072863,35.9529955 19.678073,36.1897238 L15.9869712,38.4001243 L13.0982982,36.2375086 C12.826363,36.0341595 12.4588546,36.0152739 12.1683504,36.1897238 L8.47724859,38.4001243 L5.58857555,36.2375086 C5.31664039,36.0341595 4.9491319,36.0152739 4.65862771,36.1897238 L1.75032958,37.9313234 L1.75032958,1.66570601 L30.1204711,1.66570601 L30.1204711,24.4109345 C30.1204711,24.8708636 30.494052,25.2437436 30.9548457,25.2437436 C31.4156394,25.2437436 31.7893082,24.8708636 31.7893082,24.4109345 L31.7893082,0.832896924 C31.7893082,0.372879924 31.4157274,0 30.9549337,0 Z" id="Shape"></path>
                                    <path d="M9.26005223,7.49563311 L5.08800364,7.49563311 C4.62720996,7.49563311 4.25354113,7.86851304 4.25354113,8.32853004 C4.25354113,8.78854704 4.62712195,9.16142696 5.08800364,9.16142696 L9.26005223,9.16142696 C9.72084592,9.16142696 10.0944267,8.78854704 10.0944267,8.32853004 C10.0944267,7.86851304 9.72084592,7.49563311 9.26005223,7.49563311 Z" id="Shape"></path>
                                    <path d="M25.11396,11.6599421 L20.9419115,11.6599421 C20.4811178,11.6599421 20.107537,12.032822 20.107537,12.492839 C20.107537,12.952856 20.4811178,13.3256481 20.9419115,13.3256481 L25.11396,13.3256481 C25.5747537,13.3256481 25.9484226,12.9527681 25.9484226,12.492839 C25.9484226,12.0329098 25.5748417,11.6599421 25.11396,11.6599421 Z" id="Shape"></path>
                                    <path d="M25.11396,15.8241632 L20.9419115,15.8241632 C20.4811178,15.8241632 20.107537,16.1970431 20.107537,16.6570601 C20.107537,17.1170771 20.4811178,17.4898692 20.9419115,17.4898692 L25.11396,17.4898692 C25.5747537,17.4898692 25.9484226,17.1169892 25.9484226,16.6570601 C25.9484226,16.1971309 25.5748417,15.8241632 25.11396,15.8241632 Z" id="Shape"></path>
                                    <path d="M25.11396,19.9884721 L20.9419115,19.9884721 C20.4811178,19.9884721 20.107537,20.361352 20.107537,20.821369 C20.107537,21.281386 20.4811178,21.6541781 20.9419115,21.6541781 L25.11396,21.6541781 C25.5747537,21.6541781 25.9484226,21.2812982 25.9484226,20.821369 C25.9484226,20.3614399 25.5748417,19.9884721 25.11396,19.9884721 Z" id="Shape"></path>
                                    <path d="M25.11396,24.1526932 L20.9419115,24.1526932 C20.4811178,24.1526932 20.107537,24.5255731 20.107537,24.9855901 C20.107537,25.4456071 20.4811178,25.8183992 20.9419115,25.8183992 L25.11396,25.8183992 C25.5747537,25.8183992 25.9484226,25.4455193 25.9484226,24.9855901 C25.9484226,24.525661 25.5748417,24.1526932 25.11396,24.1526932 Z" id="Shape"></path>
                                    <path d="M16.7698629,11.6599421 L5.08800364,11.6599421 C4.62720996,11.6599421 4.25354113,12.032822 4.25354113,12.492839 C4.25354113,12.952856 4.62712195,13.3256481 5.08800364,13.3256481 L16.7698629,13.3256481 C17.2306566,13.3256481 17.6043254,12.9527681 17.6043254,12.492839 C17.6043254,12.0329098 17.2306566,11.6599421 16.7698629,11.6599421 Z" id="Shape"></path>
                                    <path d="M16.7698629,15.8241632 L5.08800364,15.8241632 C4.62720996,15.8241632 4.25354113,16.1970431 4.25354113,16.6570601 C4.25354113,17.1170771 4.62712195,17.4898692 5.08800364,17.4898692 L16.7698629,17.4898692 C17.2306566,17.4898692 17.6043254,17.1169892 17.6043254,16.6570601 C17.6043254,16.1971309 17.2306566,15.8241632 16.7698629,15.8241632 Z" id="Shape"></path>
                                    <path d="M16.7698629,19.9884721 L5.08800364,19.9884721 C4.62720996,19.9884721 4.25354113,20.361352 4.25354113,20.821369 C4.25354113,21.281386 4.62712195,21.6541781 5.08800364,21.6541781 L16.7698629,21.6541781 C17.2306566,21.6541781 17.6043254,21.2812982 17.6043254,20.821369 C17.6043254,20.3614399 17.2306566,19.9884721 16.7698629,19.9884721 Z" id="Shape"></path>
                                    <path d="M16.7698629,24.1526932 L5.08800364,24.1526932 C4.62720996,24.1526932 4.25354113,24.5255731 4.25354113,24.9855901 C4.25354113,25.4456071 4.62712195,25.8183992 5.08800364,25.8183992 L16.7698629,25.8183992 C17.2306566,25.8183992 17.6043254,25.4455193 17.6043254,24.9855901 C17.6043254,24.525661 17.2306566,24.1526932 16.7698629,24.1526932 Z" id="Shape"></path>
                                </g>
                            </g>
                        </g>
                    </g>
                </g>
            </g>
        </g>
    </g>
</svg>