<?xml version="1.0" encoding="UTF-8" standalone="no"?>
<svg width="48px" height="39px" viewBox="0 0 48 39" version="1.1" xmlns="http://www.w3.org/2000/svg" xmlns:xlink="http://www.w3.org/1999/xlink">
    <!-- Generator: sketchtool 3.8.3 (29802) - http://www.bohemiancoding.com/sketch -->
    <title>320B44CA-C1AF-47AE-A1C7-F1F8C02B00D3</title>
    <desc>Created with sketchtool.</desc>
    <defs></defs>
    <g id="Page-1" stroke="none" stroke-width="1" fill="none" fill-rule="evenodd">
        <g id="сервис-виртуальный-офис-бронировние" transform="translate(-1078.000000, -1214.000000)" fill="#010002">
            <g id="услуги" transform="translate(120.000000, 1014.000000)">
                <g id="Group-Copy-11" transform="translate(1.000000, 98.000000)">
                    <g id="ОФИСЫ-И-РАБОЧИЕ-МЕСТ-+-в-современных-бизнес-+-Page-1" transform="translate(201.000000, 0.000000)">
                        <g id="ОФИСЫ-И-РАБОЧИЕ-МЕСТ-+-в-современных-бизнес">
                            <g id="post-adress" transform="translate(755.386727, 102.275853)">
                                <g id="conmpany-adress" transform="translate(0.613273, 0.000000)">
                                    <g id="post-adress">
                                        <g id="Capa_1">
                                            <g id="Group">
                                                <path d="M47.68,37.2610588 L47.68,1.41776471 C47.68,1.02202941 47.36,0.700852941 46.9657143,0.700852941 L0.714285714,0.700852941 C0.32,0.700852941 0,1.02202941 0,1.41776471 L0,37.2610588 C0,37.6567941 0.32,37.9779706 0.714285714,37.9779706 L46.9657143,37.9779706 C47.36,37.9779706 47.68,37.6567941 47.68,37.2610588 L47.68,37.2610588 Z M46.2514286,36.5441471 L1.42857143,36.5441471 L1.42857143,2.13467647 L46.2514286,2.13467647 L46.2514286,36.5441471 L46.2514286,36.5441471 Z" id="Shape"></path>
                                                <path d="M4.868483,10.9887941 L11.6629456,10.9887941 C11.8048396,10.9887941 11.92,10.8517966 11.92,10.6829962 L11.92,5.29459205 C11.92,5.12579159 11.8048396,4.98879412 11.6629456,4.98879412 L4.868483,4.98879412 C4.72658895,4.98879412 4.61142857,5.12579159 4.61142857,5.29459205 L4.61142857,10.6834855 C4.61142857,10.8517966 4.72700024,10.9887941 4.868483,10.9887941 L4.868483,10.9887941 Z" id="Shape"></path>
                                                <rect id="Rectangle-path" x="24.1828571" y="22.5890294" width="19.3154286" height="1.43382353"></rect>
                                                <rect id="Rectangle-path" x="24.1828571" y="27.534" width="19.3154286" height="1.43382353"></rect>
                                                <rect id="Rectangle-path-Copy-2" x="15.1828571" y="5.58902941" width="6" height="1.43382353"></rect>
                                                <rect id="Rectangle-path-Copy-3" x="23.1828571" y="5.58902941" width="4" height="1.43382353"></rect>
                                                <rect id="Rectangle-path-Copy-4" x="30.1828571" y="5.58902941" width="4" height="1.43382353"></rect>
                                                <rect id="Rectangle-path-Copy" x="15.1828571" y="8.534" width="4" height="1.43382353"></rect>
                                                <rect id="Rectangle-path-Copy-5" x="21.1828571" y="8.534" width="4" height="1.43382353"></rect>
                                                <rect id="Rectangle-path-Copy-6" x="27.1828571" y="8.534" width="11" height="1.43382353"></rect>
                                            </g>
                                        </g>
                                    </g>
                                </g>
                            </g>
                        </g>
                    </g>
                </g>
            </g>
        </g>
    </g>
</svg>