<?xml version="1.0" encoding="UTF-8" standalone="no"?>
<svg width="67px" height="52px" viewBox="0 0 67 52" version="1.1" xmlns="http://www.w3.org/2000/svg" xmlns:xlink="http://www.w3.org/1999/xlink">
    <!-- Generator: Sketch 3.8.3 (29802) - http://www.bohemiancoding.com/sketch -->
    <title>delivery</title>
    <desc>Created with Sketch.</desc>
    <defs>
        <path d="M1.53469053,0.636502783 L0.329111106,3.99162762 C0.175379502,4.41910936 0.403279863,4.88974383 0.836155696,5.04347544 C0.929203772,5.07449146 1.02090333,5.08662817 1.11529992,5.08662817 C1.45512768,5.08662817 1.78012169,4.87491008 1.90014022,4.53777937 L3.1030226,1.1867001 C3.26214829,0.76326393 3.03289941,0.289932412 2.59867505,0.140246376 C2.5069755,0.107881828 2.41123038,0.0916995534 2.31953082,0.0916995534 C1.97700602,0.0916995534 1.65470906,0.300720594 1.53469053,0.636502783 L1.53469053,0.636502783 Z" id="path-1"></path>
        <path d="M1.55080127,1.02352884 L0.346570371,4.37595663 C0.192838767,4.8047869 0.420739128,5.27407285 0.853614961,5.42915297 C0.945314514,5.460169 1.03836259,5.4723057 1.13275919,5.4723057 C1.47258695,5.4723057 1.79758095,5.26058762 1.91759949,4.92480543 L3.11913334,1.57102911 C3.27825904,1.15028999 3.05035867,0.674261422 2.61613432,0.525923909 C2.52308624,0.492210838 2.43003817,0.47872561 2.33699009,0.47872561 C1.99581381,0.47872561 1.67216833,0.685049605 1.55080127,1.02352884 L1.55080127,1.02352884 Z" id="path-3"></path>
        <path d="M1.91355392,0.668938863 L0.710671539,4.01866961 C0.558288458,4.44749987 0.783491773,4.91948287 1.21367056,5.07186595 C1.30537011,5.1042305 1.39841819,5.11906425 1.49281479,5.11906425 C1.83533959,5.11906425 2.15628803,4.90734616 2.28035213,4.56886693 L3.48188598,1.21778766 C3.63831463,0.793002965 3.41041427,0.3169744 2.97888696,0.168636888 C2.88718741,0.137620862 2.79413933,0.121438588 2.70109126,0.121438588 C2.3612635,0.121438588 2.0362695,0.330459629 1.91355392,0.668938863 L1.91355392,0.668938863 Z" id="path-5"></path>
        <path d="M1.49281479,0.980376108 L0.288583889,4.33145538 C0.13754933,4.76028564 0.361404122,5.23092011 0.79158291,5.38465172 C0.884630986,5.41701627 0.97633054,5.43185002 1.07072714,5.43185002 C1.41325194,5.43185002 1.7355489,5.21878341 1.859613,4.88030417 L3.06114686,1.53057343 C3.21757551,1.10309169 2.98967515,0.629760168 2.55679931,0.480074133 C2.46644828,0.449058107 2.37205168,0.432875833 2.28170065,0.432875833 C1.93917585,0.432875833 1.61553037,0.641896874 1.49281479,0.980376108 L1.49281479,0.980376108 Z" id="path-7"></path>
        <path d="M0.761915407,1.07754128 C0.761915407,1.53199348 1.13545624,1.90283727 1.593954,1.90553431 L5.76493516,1.91767102 C6.2274785,1.91767102 6.60101932,1.54952428 6.60236785,1.09237504 C6.60236785,0.632528746 6.23017554,0.26438201 5.77032925,0.263033487 L1.59934809,0.252245304 C1.14085033,0.252245304 0.765960976,0.620392041 0.761915407,1.07754128 L0.761915407,1.07754128 Z" id="path-9"></path>
        <path d="M3.87700318,0.294049512 L0.517832772,2.74431552 C0.14698899,3.01402009 0.0674261422,3.53185286 0.337130711,3.8999996 C0.49760493,4.11711178 0.751127224,4.23578179 1.00734656,4.23578179 C1.18400306,4.23578179 1.35526546,4.18453792 1.50360297,4.07395905 L4.86277338,1.62773861 C5.23361716,1.35668551 5.31318001,0.840201264 5.04077839,0.472054528 C4.88030417,0.250896781 4.62678188,0.134923816 4.36921402,0.134923816 L4.36381993,0.134923816 C4.19525457,0.134923816 4.02399217,0.187516207 3.87700318,0.294049512 L3.87700318,0.294049512 Z" id="path-11"></path>
        <path d="M2.21022894,0.736365005 L0.811810752,4.62955046 C0.660776194,5.05568368 0.884630986,5.5290152 1.3161583,5.68409532 C1.41190342,5.71645987 1.50495149,5.73129362 1.593954,5.73129362 C1.94322142,5.73129362 2.26282133,5.52092406 2.38418839,5.17974778 L3.77990953,1.29060789 C3.93229262,0.864474675 3.70304373,0.395188725 3.2701679,0.237411553 C3.17981687,0.205047004 3.08676879,0.18886473 2.99372072,0.18886473 C2.64984739,0.18886473 2.33024748,0.40193134 2.21022894,0.736365005 L2.21022894,0.736365005 Z" id="path-13"></path>
        <path d="M0.879236895,0.161894273 C0.419390605,0.161894273 0.043152731,0.532738056 0.043152731,0.9898873 C0.043152731,1.44568802 0.419390605,1.8165318 0.879236895,1.8165318 L16.3360057,1.8165318 C16.795852,1.8165318 17.1693929,1.4443395 17.1693929,0.9898873 C17.1693929,0.534086578 16.795852,0.161894273 16.3360057,0.161894273 L0.879236895,0.161894273 L0.879236895,0.161894273 Z" id="path-15"></path>
        <path d="M1.53057343,0.19418729 C1.07207566,0.19418729 0.695837788,0.563682549 0.695837788,1.02218032 C0.695837788,1.47663251 1.07207566,1.8474763 1.53057343,1.8474763 L16.9873423,1.8474763 C17.443143,1.84612777 17.8234264,1.47663251 17.8234264,1.02218032 C17.8234264,0.566379595 17.4471886,0.19418729 16.9873423,0.19418729 L1.53057343,0.19418729 L1.53057343,0.19418729 Z" id="path-17"></path>
        <path d="M0.832038595,0.736293473 C0.374889351,0.736293473 0,1.10713726 0,1.5642865 C0,2.02008722 0.374889351,2.38958248 0.832038595,2.38958248 L16.292853,2.38958248 C16.7513508,2.38958248 17.1262401,2.02008722 17.1262401,1.5642865 C17.1248916,1.10713726 16.7513508,0.736293473 16.292853,0.736293473 L0.832038595,0.736293473 L0.832038595,0.736293473 Z" id="path-19"></path>
    </defs>
    <g id="Page-1" stroke="none" stroke-width="1" fill="none" fill-rule="evenodd">
        <g id="icons" transform="translate(-562.000000, -615.000000)">
            <g id="delivery" transform="translate(562.000000, 614.500000)">
                <g id="Page-1" transform="translate(0.470390, 0.000000)">
                    <path d="M51.5467463,34.7370045 C51.2797388,35.3276575 50.6594183,36.2783661 50.1699045,36.7098934 C49.5374473,37.2695304 48.6757412,37.6241919 47.5847862,37.6241919 C47.4715103,37.6241919 21.8374395,37.6659961 21.8374395,37.6659961 C20.7208626,37.6659961 20.4039598,36.9310512 20.2745016,36.6060572 C19.9683869,35.8333536 20.1248155,34.6992459 20.4349758,34.0114992 C20.6763614,33.4720901 25.2761728,21.2544731 25.3557356,21.0198301 C25.4609204,20.715064 25.9666165,19.9234811 26.4723126,19.3759808 C27.2099546,18.5129262 28.8470613,17.6067188 30.3290879,17.6067188 C30.7538726,17.6067188 34.7738192,17.648523 34.7738192,17.648523 C35.1959068,17.648523 34.9450816,18.767797 34.9585668,19.0941395 C35.0111592,19.1844905 35.0475693,19.2883268 35.0489178,19.4191335 C35.0489178,19.5782592 35.0637516,19.7346879 35.0745398,19.8911165 L35.0799339,19.8762828 C35.2700756,21.4567515 35.8836535,22.9603545 36.8815604,24.2414512 C38.6117152,26.474605 41.2426833,27.7543532 44.0988547,27.7543532 C46.1014111,27.7543532 48.0028283,27.119199 49.5954338,25.9176651 C50.1833897,25.4740011 50.5636732,24.8294072 50.6621153,24.0998563 C50.7605575,23.3756995 50.5690673,22.6569369 50.1213577,22.0730265 C49.2232415,20.9146454 47.4445398,20.6665172 46.2537942,21.5565422 C44.7421001,22.7014381 42.4091555,22.3858838 41.2521229,20.9038572 C40.7288961,20.2255502 40.4780708,19.4002542 40.5535881,18.5210173 C40.5535881,18.5223658 40.5535881,17.9263187 40.7585636,17.6700994 C40.7585636,17.6700994 41.1604234,17.648523 41.3276402,17.648523 L54.6227269,17.648523 C55.4736449,17.648523 56.2490455,18.2041144 56.603707,18.8702847 C56.8882453,19.4056483 56.8518352,20.1702607 56.7304681,20.6826994 C56.6104496,21.189744 51.9472576,33.8523735 51.5467463,34.7370045 L51.5467463,34.7370045 Z M54.0819693,44.1335117 C53.6612301,46.6053541 52.2924795,48.7643391 50.2224969,50.2166982 C49.6358895,50.6333918 48.695969,50.4958425 48.2536535,49.8849616 C48.0365414,49.5869381 47.9515844,49.2214884 48.0136165,48.8587357 C48.0756485,48.4919375 48.277927,48.1709891 48.5867387,47.9538769 C50.0377493,46.9289996 50.9992461,45.4092143 51.2945726,43.6723169 C51.5750653,42.0068912 51.2837844,40.4722722 50.3506066,39.073854 C50.3506066,39.073854 51.146235,38.6140077 51.5885505,38.2984533 C52.030866,37.9815505 52.5298195,37.2493026 52.5298195,37.2493026 C54.006452,39.2909662 54.5000114,41.6549267 54.0819693,44.1335117 L54.0819693,44.1335117 Z M34.0496624,45.6735248 C31.8812377,46.9667582 29.2597093,47.3456931 26.8701268,46.7456004 C26.5019801,46.6539009 26.1918198,46.4273491 25.998981,46.1077491 C25.8088393,45.7908463 25.7522014,45.418654 25.8412039,45.0612954 C26.0259515,44.330396 26.7878669,43.8570645 27.5538279,44.0499033 C29.2651034,44.4692939 31.0883063,44.1955437 32.5878637,43.296079 C33.8487325,42.5436033 34.79135,41.3528576 35.322668,39.9342116 L35.3496384,39.9355601 L38.3379651,39.9355601 C37.7243872,42.3507645 36.2059504,44.387034 34.0496624,45.6735248 L34.0496624,45.6735248 Z M36.7197377,16.5400372 C36.8141343,16.2541504 36.9125764,15.9601724 36.9489865,15.8725184 C37.4641223,14.6305289 38.3015549,13.5503621 39.3938585,12.7250661 C40.0006937,12.2706139 40.9176893,12.4014206 41.3775356,12.9920736 C41.6027389,13.2860516 41.6998325,13.6488043 41.6499372,14.014254 C41.6202697,14.2327147 41.5407068,14.4349931 41.4179912,14.6116496 C41.3343828,14.7343652 40.6709096,15.4113236 40.3270363,15.8657758 C40.2016236,16.0329927 40.0789081,16.2096491 39.960238,16.3809116 C39.8483107,16.5427343 39.4491479,17.2075561 39.3844188,17.4219712 C39.2819311,17.7550563 39.2293387,18.0813989 39.2225961,18.1434309 C39.2037167,18.2877229 39.1902315,18.4333633 39.1834889,18.5776553 C39.132245,19.7104145 39.4815124,20.8162032 40.1881384,21.7305017 C41.1267103,22.9347326 42.5507504,23.6251763 44.0961576,23.6251763 C45.18037,23.6251763 46.2092929,23.2813029 47.0642564,22.634012 C47.6737887,22.1782113 48.5948298,22.3063209 49.0533276,22.8969739 C49.2785309,23.1896034 49.3756245,23.5537046 49.3257292,23.9191543 C49.2744853,24.287301 49.0829951,24.6163406 48.783623,24.8415439 C47.427009,25.8650727 45.8074331,26.4058304 44.0988547,26.4058304 C41.6620739,26.4058304 39.4208289,25.3162239 37.9455449,23.4148067 C36.9462895,22.1296644 36.4014863,20.5842573 36.3664247,18.9754695 C36.3623791,18.7772366 36.4257597,18.1245516 36.4702609,17.676842 C36.503974,17.3275746 36.6334322,16.8029992 36.7197377,16.5400372 L36.7197377,16.5400372 Z M58.7519039,21.718365 C59.3304202,20.1176684 59.1780371,18.5196688 58.3338618,17.3356657 C57.5247481,16.1948154 56.219378,15.5623582 54.6604856,15.5583126 L42.4239893,15.520554 C42.7247099,15.1402705 42.9202457,14.6871669 42.9863233,14.1963045 C43.0847655,13.4707993 42.8932752,12.7520366 42.4455656,12.1694747 C41.5474494,11.0083965 39.7647022,10.7602683 38.5820477,11.6489449 C37.2524042,12.6522459 36.2450576,13.9764953 35.6449649,15.5003261 L29.9043032,15.4827953 C26.9739631,15.4827953 23.873709,17.7307829 22.8474831,20.6004395 L18.1209106,33.7620225 C17.5477884,35.3654162 17.7028685,36.9620672 18.5443468,38.1420247 C19.3467178,39.2680413 20.652088,39.8964529 22.2244656,39.9099381 L33.8864912,39.9449997 C33.4441757,40.8700864 32.7672172,41.6198651 31.89742,42.1390464 C30.6958861,42.8564606 29.2421785,43.0735727 27.8761248,42.7404876 C26.4251143,42.383129 24.8985864,43.2947305 24.5331367,44.7336044 C24.3564802,45.4429274 24.4670591,46.1792209 24.843297,46.8035869 C25.2235804,47.4333471 25.8290672,47.8770111 26.5437843,48.0536676 C29.2651034,48.7360202 32.2682637,48.3058414 34.7414546,46.8319059 C37.2254337,45.3485308 38.9731193,42.9940099 39.6622145,40.2133558 C39.6837909,40.1310959 39.6999731,40.048836 39.7121098,39.9652276 L46.980648,39.989501 C47.633333,39.989501 49.1598609,39.6793407 49.193574,39.7305846 C49.9123366,40.8336763 50.1847383,42.1444405 49.964929,43.4471136 C49.7302861,44.8253039 48.9643251,46.0349289 47.8099895,46.8521337 C47.2058513,47.2755699 46.80534,47.9093757 46.683973,48.634881 C46.5626059,49.3563407 46.7311713,50.0804974 47.16135,50.675196 C47.6805313,51.3926102 48.517964,51.8187434 49.402595,51.8187434 C49.9851569,51.8187434 50.5380512,51.6461325 50.9992461,51.3184414 C53.3645551,49.6597583 54.9315387,47.1879159 55.4116128,44.3600635 C55.8916869,41.5200744 55.2255166,38.6706457 53.5412116,36.3430952 C53.4913163,36.272972 53.4400724,36.2095915 53.38748,36.151605 C53.6760639,35.6985013 53.8850849,35.2845048 54.0320739,34.8745538 L58.7519039,21.718365 Z" id="Fill-1" fill="#000000"></path>
                    <g id="Group-5" transform="translate(27.809167, 28.405285)">
                        <mask id="mask-2" fill="white">
                            <use xlink:href="#path-1"></use>
                        </mask>
                        <g id="Clip-4"></g>
                        <polygon id="Fill-3" fill="#000000" mask="url(#mask-2)" points="-6.46204994 11.8292424 9.89688069 11.8292424 9.89688069 -6.65091467 -6.46204994 -6.65091467"></polygon>
                    </g>
                    <g id="Group-8" transform="translate(25.621934, 33.799377)">
                        <mask id="mask-4" fill="white">
                            <use xlink:href="#path-3"></use>
                        </mask>
                        <g id="Clip-7"></g>
                        <polygon id="Fill-6" fill="#000000" mask="url(#mask-4)" points="-6.44459067 12.2149199 9.91433995 12.2149199 9.91433995 -6.26523714 -6.44459067 -6.26523714"></polygon>
                    </g>
                    <g id="Group-11" transform="translate(29.667503, 22.501381)">
                        <mask id="mask-6" fill="white">
                            <use xlink:href="#path-5"></use>
                        </mask>
                        <g id="Clip-10"></g>
                        <polygon id="Fill-9" fill="#000000" mask="url(#mask-6)" points="-6.08048951 11.8616785 10.2743956 11.8616785 10.2743956 -6.62252416 -6.08048951 -6.62252416"></polygon>
                    </g>
                    <g id="Group-14" transform="translate(32.364548, 16.268580)">
                        <mask id="mask-8" fill="white">
                            <use xlink:href="#path-7"></use>
                        </mask>
                        <g id="Clip-13"></g>
                        <polygon id="Fill-12" fill="#000000" mask="url(#mask-8)" points="-6.50257716 12.1744642 9.8523079 12.1744642 9.8523079 -6.30973839 -6.50257716 -6.30973839"></polygon>
                    </g>
                    <g id="Group-17" transform="translate(59.335005, 18.455812)">
                        <mask id="mask-10" fill="white">
                            <use xlink:href="#path-9"></use>
                        </mask>
                        <g id="Clip-16"></g>
                        <polygon id="Fill-15" fill="#000000" mask="url(#mask-10)" points="-5.98204734 8.66028524 13.3449821 8.66028524 13.3449821 -6.49036892 -5.98204734 -6.49036892"></polygon>
                    </g>
                    <g id="Group-20" transform="translate(60.683528, 11.713198)">
                        <mask id="mask-12" fill="white">
                            <use xlink:href="#path-11"></use>
                        </mask>
                        <g id="Clip-19"></g>
                        <polygon id="Fill-18" fill="#000000" mask="url(#mask-12)" points="-6.56595773 10.978396 11.9452154 10.978396 11.9452154 -6.60769041 -6.56595773 -6.60769041"></polygon>
                    </g>
                    <g id="Group-23" transform="translate(55.289437, 9.016152)">
                        <mask id="mask-14" fill="white">
                            <use xlink:href="#path-13"></use>
                        </mask>
                        <g id="Clip-22"></g>
                        <polygon id="Fill-21" fill="#000000" mask="url(#mask-14)" points="-5.97935029 12.4725593 10.5683735 12.4725593 10.5683735 -6.55374949 -5.97935029 -6.55374949"></polygon>
                    </g>
                    <g id="Group-26" transform="translate(4.045569, 19.804335)">
                        <mask id="mask-16" fill="white">
                            <use xlink:href="#path-15"></use>
                        </mask>
                        <g id="Clip-25"></g>
                        <polygon id="Fill-24" fill="#000000" mask="url(#mask-16)" points="-6.70081002 8.55914603 23.9120071 8.55914603 23.9120071 -6.58071995 -6.70081002 -6.58071995"></polygon>
                    </g>
                    <g id="Group-29" transform="translate(1.348523, 25.708240)">
                        <mask id="mask-18" fill="white">
                            <use xlink:href="#path-17"></use>
                        </mask>
                        <g id="Clip-28"></g>
                        <polygon id="Fill-27" fill="#000000" mask="url(#mask-18)" points="-6.04677644 8.59009052 24.5660407 8.59009052 24.5660407 -6.54842693 -6.04677644 -6.54842693"></polygon>
                    </g>
                    <g id="Group-32" transform="translate(0.000000, 31.102331)">
                        <mask id="mask-20" fill="white">
                            <use xlink:href="#path-19"></use>
                        </mask>
                        <g id="Clip-31"></g>
                        <polygon id="Fill-30" fill="#000000" mask="url(#mask-20)" points="-6.74261422 9.1321967 23.8688544 9.1321967 23.8688544 -6.00632075 -6.74261422 -6.00632075"></polygon>
                    </g>
                    <path d="M47.4893108,2.11502323 C44.5549251,2.11502323 42.1680396,4.47493821 42.1680396,7.37561085 C42.1680396,10.2762835 44.5549251,12.6361985 47.4893108,12.6361985 C50.422348,12.6361985 52.8078849,10.2762835 52.8078849,7.37561085 C52.8078849,4.47493821 50.422348,2.11502323 47.4893108,2.11502323 M47.4893108,13.9847213 C43.8105405,13.9847213 40.8195168,11.0206681 40.8195168,7.37561085 C40.8195168,3.73190212 43.8105405,0.766500385 47.4893108,0.766500385 C51.1667326,0.766500385 54.1564077,3.73190212 54.1564077,7.37561085 C54.1564077,11.0206681 51.1667326,13.9847213 47.4893108,13.9847213" id="Fill-33" fill="#000000"></path>
                </g>
            </g>
        </g>
    </g>
</svg>