<?xml version="1.0" encoding="UTF-8" standalone="no"?>
<svg width="46px" height="46px" viewBox="0 0 46 46" version="1.1" xmlns="http://www.w3.org/2000/svg" xmlns:xlink="http://www.w3.org/1999/xlink">
    <!-- Generator: Sketch 3.8.3 (29802) - http://www.bohemiancoding.com/sketch -->
    <title>HR</title>
    <desc>Created with Sketch.</desc>
    <defs>
        <rect id="path-1" x="34.8839595" y="28.8084878" width="5.20754717" height="17.3584906"></rect>
        <mask id="mask-2" maskContentUnits="userSpaceOnUse" maskUnits="objectBoundingBox" x="0" y="0" width="5.20754717" height="17.3584906" fill="white">
            <use xlink:href="#path-1"></use>
        </mask>
    </defs>
    <g id="Page-1" stroke="none" stroke-width="1" fill="none" fill-rule="evenodd">
        <g id="icons" transform="translate(-582.000000, -819.000000)">
            <g id="Group-3" transform="translate(583.000000, 820.500000)">
                <g>
                    <g id="group" transform="translate(8.679245, 3.471698)" fill="#000000">
                        <g id="Capa_1">
                            <g id="Group">
                                <path d="M1.73584906,18.2264151 C1.73584906,15.7962264 3.64528302,13.8867925 6.0754717,13.8867925 L7.20377358,13.8867925 L9.63396226,20.309434 C9.72075472,20.5698113 10.0679245,20.8301887 10.4150943,20.8301887 C10.7622642,20.8301887 11.109434,20.5698113 11.3698113,20.309434 L13.8,13.8867925 L14.754717,13.8867925 C17.1849057,13.8867925 19.0943396,15.7962264 19.0943396,18.2264151 L19.0943396,26.9056604 L20.8301887,26.9056604 L20.8301887,18.2264151 C20.8301887,14.8415094 18.1396226,12.1509434 14.754717,12.1509434 L6.0754717,12.1509434 C2.69056604,12.1509434 0,14.8415094 0,18.2264151 L0,26.9056604 L1.73584906,26.9056604 L1.73584906,18.2264151 L1.73584906,18.2264151 L1.73584906,18.2264151 Z M10.5018868,17.5320755 L9.11320755,13.8867925 L11.890566,13.8867925 L10.5018868,17.5320755 L10.5018868,17.5320755 Z" id="Shape"></path>
                                <rect id="Rectangle-path" x="9.54716981" y="21.6981132" width="1.73584906" height="1.73584906"></rect>
                                <rect id="Rectangle-path" x="9.54716981" y="25.1698113" width="1.73584906" height="1.73584906"></rect>
                                <path d="M9.54716981,11.2830189 L11.2830189,11.2830189 C13.7132075,11.2830189 15.6226415,9.37358491 15.6226415,6.94339623 L15.6226415,4.33962264 C15.6226415,1.90943396 13.7132075,0 11.2830189,0 L9.54716981,0 C7.11698113,0 5.20754717,1.90943396 5.20754717,4.33962264 L5.20754717,6.94339623 C5.20754717,9.37358491 7.11698113,11.2830189 9.54716981,11.2830189 L9.54716981,11.2830189 Z M6.94339623,4.33962264 C6.94339623,2.86415094 8.07169811,1.73584906 9.54716981,1.73584906 L11.2830189,1.73584906 C12.7584906,1.73584906 13.8867925,2.86415094 13.8867925,4.33962264 L13.8867925,6.94339623 C13.8867925,8.41886792 12.7584906,9.54716981 11.2830189,9.54716981 L9.54716981,9.54716981 C8.07169811,9.54716981 6.94339623,8.41886792 6.94339623,6.94339623 L6.94339623,4.33962264 L6.94339623,4.33962264 Z" id="Shape"></path>
                                <rect id="Rectangle-path" x="4.33962264" y="20.8301887" width="1.73584906" height="6.0754717"></rect>
                                <rect id="Rectangle-path" x="14.754717" y="20.8301887" width="1.73584906" height="6.0754717"></rect>
                            </g>
                        </g>
                    </g>
                    <circle id="Oval-78" stroke="#000000" stroke-width="1.5" cx="18.6603774" cy="18.6603774" r="18.6603774"></circle>
                    <use id="Rectangle-571" stroke="#000000" mask="url(#mask-2)" stroke-width="3" transform="translate(37.487733, 37.487733) scale(-1, 1) rotate(45.000000) translate(-37.487733, -37.487733) " xlink:href="#path-1"></use>
                </g>
            </g>
        </g>
    </g>
</svg>