<?xml version="1.0" encoding="UTF-8" standalone="no"?>
<svg width="74px" height="76px" viewBox="0 0 74 76" version="1.1" xmlns="http://www.w3.org/2000/svg" xmlns:xlink="http://www.w3.org/1999/xlink">
    <!-- Generator: Sketch 3.8.3 (29802) - http://www.bohemiancoding.com/sketch -->
    <title>infrastructure</title>
    <desc>Created with Sketch.</desc>
    <defs>
        <path d="M11.6950225,3.91839667 C12.1248282,1.75432595 14.2567515,0 16.472881,0 L29.6057096,0 C31.8146423,0 33.2559946,1.75893391 32.8271041,3.91839667 L31.603031,10.0816033 C31.1732253,12.2456741 29.041302,14 26.8251726,14 L13.6923439,14 C11.4834112,14 10.0420589,12.2410661 10.4709494,10.0816033 L11.6950225,3.91839667 Z" id="path-1"></path>
        <mask id="mask-2" maskContentUnits="userSpaceOnUse" maskUnits="objectBoundingBox" x="0" y="0" width="23" height="14" fill="white">
            <use xlink:href="#path-1"></use>
        </mask>
        <rect id="path-3" x="2" y="3.92833154" width="8.98113208" height="1"></rect>
        <mask id="mask-4" maskContentUnits="userSpaceOnUse" maskUnits="objectBoundingBox" x="0" y="0" width="8.98113208" height="1" fill="white">
            <use xlink:href="#path-3"></use>
        </mask>
        <rect id="path-5" x="1" y="5.92833154" width="8.98113208" height="1"></rect>
        <mask id="mask-6" maskContentUnits="userSpaceOnUse" maskUnits="objectBoundingBox" x="0" y="0" width="8.98113208" height="1" fill="white">
            <use xlink:href="#path-5"></use>
        </mask>
        <rect id="path-7" x="0" y="7.92833154" width="8.97999954" height="1"></rect>
        <mask id="mask-8" maskContentUnits="userSpaceOnUse" maskUnits="objectBoundingBox" x="0" y="0" width="8.97999954" height="1" fill="white">
            <use xlink:href="#path-7"></use>
        </mask>
        <polygon id="path-9" points="3.92661055 0 4.51602054 0 3.79695716 2.72 3.20754717 2.72"></polygon>
        <mask id="mask-10" maskContentUnits="userSpaceOnUse" maskUnits="objectBoundingBox" x="0" y="0" width="1.30847337" height="2.72" fill="white">
            <use xlink:href="#path-9"></use>
        </mask>
        <polygon id="path-11" points="3.00474488 3.4 3.59415487 3.4 2.87509149 6.12 2.2856815 6.12"></polygon>
        <mask id="mask-12" maskContentUnits="userSpaceOnUse" maskUnits="objectBoundingBox" x="0" y="0" width="1.30847337" height="2.72" fill="white">
            <use xlink:href="#path-11"></use>
        </mask>
        <polygon id="path-13" points="2.10238457 6.83739298 2.69179456 6.83739298 1.97273118 9.55739298 1.3833212 9.55739298"></polygon>
        <mask id="mask-14" maskContentUnits="userSpaceOnUse" maskUnits="objectBoundingBox" x="0" y="0" width="1.30847337" height="2.72" fill="white">
            <use xlink:href="#path-13"></use>
        </mask>
        <polygon id="path-15" points="1.1605729 10.2364001 1.74998289 10.2364001 1.03091951 12.9564001 0.441509523 12.9564001"></polygon>
        <mask id="mask-16" maskContentUnits="userSpaceOnUse" maskUnits="objectBoundingBox" x="0" y="0" width="1.30847337" height="2.72" fill="white">
            <use xlink:href="#path-15"></use>
        </mask>
    </defs>
    <g id="Page-1" stroke="none" stroke-width="1" fill="none" fill-rule="evenodd">
        <g id="бизнес-центр" transform="translate(-733.000000, -1042.000000)">
            <g id="Group-2" transform="translate(122.000000, 956.000000)">
                <g id="infrastructure" transform="translate(611.000000, 86.000000)">
                    <circle id="Oval-11-Copy-2" stroke="#091337" cx="38" cy="32" r="28"></circle>
                    <g id="Group-10">
                        <g>
                            <path d="M47.3742001,27.9699063 C47.0853893,27.9898585 46.793879,28 46.5,28 C39.5964406,28 34,22.4035594 34,15.5 C34,8.59644063 39.5964406,3 46.5,3 C53.4035594,3 59,8.59644063 59,15.5 C59,19.3756091 57.2362148,22.8392641 54.4675526,25.1320566 C55.1326901,25.0449429 55.8110966,25 56.5,25 C65.0604136,25 72,31.9395864 72,40.5 C72,49.0604136 65.0604136,56 56.5,56 C47.9395864,56 41,49.0604136 41,40.5 C41,35.3511706 43.510505,30.788701 47.3742001,27.9699063 Z M26.5,76 C35.0604136,76 42,69.0604136 42,60.5 C42,51.9395864 35.0604136,45 26.5,45 C17.9395864,45 11,51.9395864 11,60.5 C11,69.0604136 17.9395864,76 26.5,76 Z M15.5,33 C24.0604136,33 31,26.0604136 31,17.5 C31,8.93958638 24.0604136,2 15.5,2 C6.93958638,2 0,8.93958638 0,17.5 C0,26.0604136 6.93958638,33 15.5,33 Z" id="Combined-Shape" fill="#FFFFFF"></path>
                            <g id="Group-9" transform="translate(6.000000, 49.071668)" stroke="#000000" stroke-width="2">
                                <use id="Rectangle-605" mask="url(#mask-2)" xlink:href="#path-1"></use>
                                <use id="Rectangle-610" mask="url(#mask-4)" xlink:href="#path-3"></use>
                                <use id="Rectangle-610-Copy" mask="url(#mask-6)" xlink:href="#path-5"></use>
                                <use id="Rectangle-610-Copy-2" mask="url(#mask-8)" xlink:href="#path-7"></use>
                                <g id="Group-6" transform="translate(13.471698, 0.680000)">
                                    <use id="Rectangle-605-Copy" mask="url(#mask-10)" xlink:href="#path-9"></use>
                                    <use id="Rectangle-605-Copy-2" mask="url(#mask-12)" xlink:href="#path-11"></use>
                                    <use id="Rectangle-605-Copy-3" mask="url(#mask-14)" xlink:href="#path-13"></use>
                                    <use id="Rectangle-605-Copy-4" mask="url(#mask-16)" xlink:href="#path-15"></use>
                                </g>
                            </g>
                            <g id="woman-(1)" transform="translate(5.000000, 3.000000)" fill="#000000">
                                <g transform="translate(0.192113, 0.000000)" id="Shape">
                                    <path d="M18.0574618,18.7752145 L16.0515032,18.2696084 C16.2931695,18.1722407 16.5518954,18.0636684 16.8119548,17.9471409 C18.3876484,17.241085 19.0599132,16.6906606 19.0599132,16.1065665 C19.0599132,10.1628793 18.2840136,6.01746927 16.6879265,3.43341577 C15.2609335,1.12308987 13.1376148,0 10.1967757,0 C7.2559367,0 5.13261791,1.12308987 3.70562499,3.43341577 C2.10953786,6.01746927 1.33363824,10.1628793 1.33363824,16.1065665 C1.33363824,16.6906606 2.00590305,17.241085 3.58159663,17.9471409 C3.84165609,18.0636684 4.10038191,18.1722407 4.34204827,18.2696084 L2.33608965,18.7752145 C0.960608512,19.1218278 -1.77635684e-15,20.3622295 -1.77635684e-15,21.7915963 L-1.77635684e-15,24.6220382 C-1.77635684e-15,25.3479822 0.585800598,25.9385749 1.30585411,25.9385749 L19.0876973,25.9385749 C19.8077508,25.9385749 20.3935514,25.3479822 20.3935514,24.6220382 L20.3935514,21.7915963 C20.3935514,20.3622295 19.4329429,19.1218278 18.0574618,18.7752145 L18.0574618,18.7752145 Z M6.6204025,18.5615434 C7.40108099,18.3647912 7.94626119,17.6607521 7.94626119,16.8494854 L7.94626119,16.4564291 C8.64419854,16.7909415 9.40326097,16.9749205 10.1967757,16.9749205 C10.9740645,16.9749205 11.7364055,16.7962077 12.4472903,16.4567093 L12.4472903,16.8495414 C12.4472903,17.6608082 12.992526,18.3648472 13.7731489,18.5615994 L14.2970465,18.6936452 C13.2724789,19.9595934 11.7437961,21.381397 10.1967757,21.9373117 C8.64975536,21.381341 7.12107253,19.9595373 6.09650495,18.6936452 L6.6204025,18.5615434 L6.6204025,18.5615434 Z M10.1967757,16.1345779 C7.2399886,16.1345779 4.83443863,13.1062073 4.83443863,9.38382571 L4.83443863,9.11676483 C7.15119053,6.98565599 11.6669452,6.69674621 13.4405729,6.66923899 C13.7823177,7.80952788 14.3954579,9.31368511 15.4636465,10.6069724 C15.2418736,12.1245191 14.6085622,13.5079471 13.6696808,14.5189352 C12.7020707,15.560792 11.4687332,16.1345779 10.1967757,16.1345779 L10.1967757,16.1345779 Z M2.16716214,16.0900398 C2.16860692,10.3171662 2.90333045,6.32206545 4.41317565,3.87762087 C5.69307938,1.80544807 7.53083288,0.840342601 10.1967757,0.840342601 C12.8627186,0.840342601 14.7004721,1.80544807 15.9803758,3.87756485 C17.490221,6.32200943 18.2249445,10.3171102 18.2263893,16.0899838 C18.2015503,16.1451102 17.9817223,16.5160374 16.3629077,17.2282558 C15.6232942,17.5536365 14.8966836,17.8144228 14.6238434,17.9097176 L13.9753063,17.746243 C13.566435,17.643161 13.2808142,17.2744186 13.2808142,16.8494294 L13.2808142,15.9676299 C13.6338949,15.7189445 13.9682491,15.4267854 14.2781533,15.0931133 C15.3737371,13.9133844 16.0971803,12.2926436 16.3152857,10.5293247 C16.3299557,10.4107244 16.2938364,10.2914517 16.2159297,10.201367 C15.0703344,8.87575457 14.4628066,7.25815109 14.1548473,6.13455701 C14.104947,5.95242675 13.9405761,5.82631934 13.7531444,5.82631934 C12.819931,5.82631934 10.9661739,5.88895288 9.03584363,6.3084519 C6.8677924,6.77960399 5.21602587,7.56235511 4.12649899,8.6349684 C4.04620286,8.71407265 4.00091473,8.82242083 4.00091473,8.93558696 L4.00091473,9.38376968 C4.00091473,12.1948277 5.25453467,14.6538943 7.11273729,15.9658932 L7.11273729,16.8494294 C7.11273729,17.2743626 6.82711643,17.643161 6.41824517,17.746243 L5.76970801,17.9097176 C5.49770138,17.8147589 4.77453604,17.5552051 4.03553375,17.2303847 C2.41227374,16.5168778 2.19205672,16.1451662 2.16716214,16.0900398 L2.16716214,16.0900398 Z M19.5600275,24.6220382 C19.5600275,24.8846172 19.3481458,25.0982323 19.0876973,25.0982323 L16.8371828,25.0982323 L16.8371828,23.0301492 C16.8371828,22.7981026 16.6505846,22.6099779 16.4204209,22.6099779 C16.1902571,22.6099779 16.0036589,22.7981026 16.0036589,23.0301492 L16.0036589,25.0982323 L4.38989255,25.0982323 L4.38989255,23.0301492 C4.38989255,22.7981026 4.20329433,22.6099779 3.9731306,22.6099779 C3.74296686,22.6099779 3.55636864,22.7981026 3.55636864,23.0301492 L3.55636864,25.0982323 L1.30585411,25.0982323 C1.04540568,25.0982323 0.833523901,24.8846172 0.833523901,24.6220382 L0.833523901,21.7915963 C0.833523901,20.748563 1.5345175,19.843402 2.53819142,19.5904028 L5.20796847,18.9175125 C6.88574095,21.1350646 8.79928955,22.365046 10.0679129,22.7807355 C10.1097558,22.7944611 10.1532658,22.8012959 10.1967202,22.8012959 C10.2401745,22.8012959 10.2836845,22.7944051 10.3255274,22.7807355 C11.5941508,22.365046 13.5076994,21.1350646 15.1854718,18.9175125 L17.8552489,19.5904028 C18.8590339,19.843402 19.5600275,20.748563 19.5600275,21.7915963 L19.5600275,24.6220382 L19.5600275,24.6220382 Z"></path>
                                </g>
                            </g>
                            <g id="law" transform="translate(49.000000, 30.000000)" fill="#000000">
                                <g id="briefcase" transform="translate(0.428622, 0.000000)">
                                    <path d="M21.6944879,3 L17.5713781,3 L17.5713781,2.01624131 C17.5713781,0.904501173 16.7003629,0 15.5713781,0 L9.57137806,0 C8.44239317,0 7.57137806,0.904501173 7.57137806,2.01624131 L7.57137806,3 L3.57137806,3 C1.98504544,3 0.571378056,4.94601856 0.571378056,6.50812065 L0.571378056,13.0417633 C0.571378056,13.704826 1.06815559,14.6323295 1.57137806,15 C1.57122255,15.0045429 1.40075171,14.6706311 1.40075171,14.675174 L1.40075171,19.1670534 C1.40075171,20.7291555 2.98504544,22 4.57137806,22 L20.5713781,22 C22.1577107,22 23.7420044,20.7291555 23.7420044,19.1670534 L23.7420044,14.675174 C23.7420044,14.6706311 23.5715336,15.0045429 23.5713781,15 C24.0746005,14.6323295 24.5713781,13.704826 24.5713781,13.0417633 L24.5713781,6.50812065 C24.5713781,4.94601856 23.2808208,3.67517401 21.6944882,3.67517401 L21.6944879,3 Z M8.57137806,2.28947368 C8.57137806,1.57847368 9.17772288,1 9.92310219,1 L15.2196539,1 C15.9650332,1 16.5713781,1.57847368 16.5713781,2.28947368 L16.5713781,4 L15.633447,4 L15.633447,2.28947368 C15.633447,2.07147368 15.4482332,1.89473684 15.2196539,1.89473684 L9.92310219,1.89473684 C9.69452288,1.89473684 9.50930909,2.07147368 9.50930909,2.28947368 L9.50930909,4 L8.57137806,4 L8.57137806,2.28947368 L8.57137806,2.28947368 Z M10.472026,3.67517401 L10.472026,2.39907193 L14.6707301,2.39907193 L14.6707301,3.67517401 L10.472026,3.67517401 L10.472026,3.67517401 Z M20.5713788,20.9999998 L4.57137808,20.9999998 C3.41377981,20.9999998 2.61889425,20.1399165 2.61889425,19 L2.61889425,15.0580046 C2.76092449,15.0888353 4.71824631,15.0580046 4.71824631,15.0580046 L4.71824631,15.4918794 C4.71824631,16.1533086 5.26469987,16.6914153 5.93638886,16.6914153 L6.76576251,16.6914153 C7.43745149,16.6914153 7.98390505,16.1533086 7.98390505,15.4918794 L7.98390505,15.0580046 L17.1588511,15.0580046 L17.1588511,15.4918794 C17.1588511,16.1533086 17.7053046,16.6914153 18.3769936,16.6914153 L19.2063673,16.6914153 C19.8780562,16.6914153 20.4245098,16.1533086 20.4245098,15.4918794 L20.4245098,15.0580046 L22.5238619,15.0580046 C22.6751189,15.0580046 22.523861,19 22.523861,19 C22.523861,20.1399165 21.7289771,20.9999998 20.5713788,20.9999998 Z M7.20636726,14.2923434 L5.4957841,14.2923434 L5.4957841,13.8584687 C5.4957841,13.6192251 5.69343421,13.424594 5.93638886,13.424594 L6.76576251,13.424594 C7.00871715,13.424594 7.20636726,13.6192251 7.20636726,13.8584687 L7.20636726,14.2923434 L7.20636726,14.2923434 Z M7.20636726,15.0580046 L7.20636726,15.4918794 C7.20636726,15.731123 7.00871715,15.9257541 6.76576251,15.9257541 L5.93638886,15.9257541 C5.69343421,15.9257541 5.4957841,15.731123 5.4957841,15.4918794 L5.4957841,15.0580046 L7.20636726,15.0580046 L7.20636726,15.0580046 Z M19.646972,14.2923434 L17.9363889,14.2923434 L17.9363889,13.8584687 C17.9363889,13.6192251 18.134039,13.424594 18.3769936,13.424594 L19.2063673,13.424594 C19.4493219,13.424594 19.646972,13.6192251 19.646972,13.8584687 L19.646972,14.2923434 L19.646972,14.2923434 Z M19.646972,15.0580046 L19.646972,15.4918794 C19.646972,15.731123 19.4493219,15.9257541 19.2063673,15.9257541 L18.3769936,15.9257541 C18.134039,15.9257541 17.9363889,15.731123 17.9363889,15.4918794 L17.9363889,15.0580046 L19.646972,15.0580046 L19.646972,15.0580046 Z M22.5238619,14.2923434 L20.4245098,14.2923434 L20.4245098,13.8584687 C20.4245098,13.1970394 19.8780562,12.6589327 19.2063673,12.6589327 L18.3769936,12.6589327 C17.7053046,12.6589327 17.1588511,13.1970394 17.1588511,13.8584687 L17.1588511,14.2923434 L7.98390505,14.2923434 L7.98390505,13.8584687 C7.98390505,13.1970394 7.43745149,12.6589327 6.76576251,12.6589327 L5.93638886,12.6589327 C5.26469987,12.6589327 4.71824631,13.1970394 4.71824631,13.8584687 L4.71824631,14.2923434 L2.61889425,14.2923434 C1.91859188,14.2923434 1.57137806,13.7313178 1.57137806,13.0417633 L1.57137806,6 C1.57137806,4.86008353 3.41377976,4 4.57137803,4 L20.5713776,4 C21.7289758,4 23.5713781,4.86008353 23.5713781,6 L23.5713781,13.0417633 C23.5713781,13.7313178 23.2241642,14.2923434 22.5238619,14.2923434 Z" id="Shape"></path>
                                </g>
                            </g>
                            <g id="e-mail" transform="translate(42.000000, 0.000000)" fill="#000000">
                                <g id="-g-Group">
                                    <g id="Group-11">
                                        <path d="M12.1844859,13.4208974 C11.5338596,13.4208974 11.0440488,13.2490016 10.7150389,12.9052047 C10.386029,12.5614078 10.2141331,12.0679004 10.1993462,11.4246675 C9.78531125,12.1122612 9.31768059,12.6094654 8.79644017,12.9162949 C8.27519976,13.2231243 7.71145528,13.3765367 7.10518984,13.3765367 C6.6911549,13.3765367 6.33257645,13.3044514 6.02944372,13.1602785 C5.726311,13.0161056 5.47493642,12.818333 5.27531243,12.5669546 C5.07568844,12.3155763 4.92597269,12.0198415 4.8261607,11.6797413 C4.72634871,11.3396412 4.67644346,10.9736694 4.67644346,10.5818149 C4.67644346,9.95336899 4.79658572,9.32308419 5.03687386,8.69094156 C5.27716199,8.05879893 5.62834707,7.48950943 6.09043964,6.98305598 C6.5525322,6.47660252 7.11997336,6.06442214 7.79278014,5.74650245 C8.46558691,5.42858277 9.23080072,5.26962531 10.0884445,5.26962531 C10.480299,5.26962531 10.8481192,5.30289548 11.1919161,5.36943681 C11.5357129,5.43597813 11.8443861,5.53209195 12.1179449,5.65778112 L11.1087398,9.50606877 C10.9312963,10.186269 10.8462725,10.7370751 10.853666,11.1585035 C10.8610595,11.5799319 10.9312965,11.9070886 11.0643791,12.1399832 C11.1974618,12.3728779 11.376751,12.5281386 11.6022522,12.6057702 C11.8277534,12.6834017 12.0698862,12.7222169 12.3286581,12.7222169 C12.7500865,12.7222169 13.1530252,12.6113164 13.5374862,12.389512 C13.9219472,12.1677075 14.2620422,11.851641 14.5577815,11.4413028 C14.8535207,11.0309646 15.0882602,10.5337604 15.262007,9.94967541 C15.4357538,9.36559041 15.5226259,8.71127715 15.5226259,7.98671601 C15.5226259,6.89248081 15.3433367,5.93688772 14.9847529,5.11990807 C14.626169,4.30292841 14.1382066,3.6245867 13.5208509,3.08486258 C12.9034953,2.54513847 12.18449,2.1421998 11.3638136,1.87603448 C10.5431372,1.60986916 9.67071956,1.4767885 8.74653442,1.4767885 C7.73362752,1.4767885 6.77433774,1.67271281 5.86863632,2.0645673 C4.96293489,2.4564218 4.1681476,3.00353119 3.4842506,3.70591189 C2.8003536,4.40829259 2.2569409,5.24559176 1.85399618,6.21783451 C1.45105146,7.19007727 1.24958213,8.25657091 1.24958213,9.41734744 C1.24958213,10.7259936 1.45844483,11.877511 1.87617651,12.8719342 C2.29390819,13.8663574 2.86134935,14.6981115 3.57851701,15.3672216 C4.29568467,16.0363316 5.13298384,16.5427775 6.09043964,16.8865743 C7.04789543,17.2303712 8.06633217,17.402267 9.1457804,17.402267 C10.2400156,17.402267 11.2399689,17.2765798 12.1456703,17.0252014 C13.0513718,16.773823 13.8738842,16.4078512 14.6132323,15.927275 C14.7019541,15.8681271 14.7832811,15.8496437 14.857216,15.8718241 C14.9311508,15.8940046 14.986601,15.9457582 15.0235684,16.0270864 L15.1899209,16.4374226 C14.3618511,16.9845402 13.4506182,17.4059623 12.456195,17.7017015 C11.4617718,17.9974408 10.3583113,18.1453082 9.1457804,18.1453082 C7.92585603,18.1453082 6.78727703,17.9512322 5.73000924,17.5630745 C4.67274145,17.1749167 3.75226687,16.6093239 2.96855788,15.866279 C2.18484888,15.1232342 1.56750248,14.210153 1.11650013,13.127008 C0.665497789,12.043863 0.44,10.8073219 0.44,9.41734744 C0.44,8.1826361 0.658104419,7.03666373 1.0943198,5.97939594 C1.53053518,4.92212815 2.12570148,4.00535025 2.87983655,3.22903474 C3.63397161,2.45271923 4.51378266,1.84461454 5.51929608,1.40470242 C6.52480951,0.964790295 7.60054486,0.744837533 8.74653442,0.744837533 C9.73726088,0.744837533 10.6873089,0.898249964 11.5967071,1.20507943 C12.5061053,1.51190889 13.3101343,1.97029784 14.0088182,2.58026003 C14.7075022,3.19022221 15.2657017,3.94619431 15.6834333,4.848199 C16.101165,5.75020369 16.3100277,6.79636556 16.3100277,7.98671601 C16.3100277,8.79260544 16.2028239,9.52824577 15.9884129,10.1936591 C15.774002,10.8590724 15.4801155,11.4302102 15.1067447,11.9070897 C14.7333739,12.3839693 14.2953167,12.7554861 13.79256,13.0216514 C13.2898033,13.2878167 12.753784,13.4208974 12.1844859,13.4208974 L12.1844859,13.4208974 Z M7.30481283,12.6445858 C7.57097815,12.6445858 7.84638118,12.6002256 8.1310302,12.5115038 C8.41567922,12.422782 8.68923392,12.2619762 8.9517025,12.0290816 C9.21417107,11.7961869 9.46000063,11.4819687 9.68919854,11.0864174 C9.91839646,10.6908662 10.1106241,10.1862687 10.2658872,9.57260977 L11.1531005,6.13465827 C10.9756569,6.0829039 10.792671,6.04408871 10.6041372,6.01821152 C10.4156035,5.99233434 10.1956507,5.97939594 9.94427237,5.97939594 C9.27885907,5.97939594 8.67445106,6.11432495 8.1310302,6.38418701 C7.58760935,6.65404906 7.12552371,7.00708249 6.74475944,7.44329787 C6.36399517,7.87951325 6.06826036,8.36932402 5.85754615,8.91274488 C5.64683194,9.45616574 5.54147642,10.0051235 5.54147642,10.5596345 C5.54147642,10.8553738 5.57844327,11.1307768 5.65237808,11.3858519 C5.72631289,11.640927 5.83721344,11.8608798 5.98508306,12.0457168 C6.13295268,12.2305538 6.31593859,12.3765729 6.53404628,12.4837784 C6.75215397,12.5909838 7.00907359,12.6445858 7.30481283,12.6445858 L7.30481283,12.6445858 Z" id="@"></path>
                                    </g>
                                </g>
                            </g>
                        </g>
                    </g>
                </g>
            </g>
        </g>
    </g>
</svg>