<?xml version="1.0" encoding="UTF-8" standalone="no"?>
<svg width="49px" height="45px" viewBox="0 0 49 45" version="1.1" xmlns="http://www.w3.org/2000/svg" xmlns:xlink="http://www.w3.org/1999/xlink">
    <!-- Generator: Sketch 3.8.3 (29802) - http://www.bohemiancoding.com/sketch -->
    <title>law</title>
    <desc>Created with Sketch.</desc>
    <defs></defs>
    <g id="Page-1" stroke="none" stroke-width="1" fill="none" fill-rule="evenodd">
        <g id="icons" transform="translate(-580.000000, -1028.000000)" fill="#000000">
            <g id="law" transform="translate(580.000000, 1028.000000)">
                <g id="briefcase" transform="translate(0.876727, 0.000000)">
                    <path d="M41.7316202,7.37343964 L32.6684339,7.37343964 L32.6684339,4.04515091 C32.6684339,1.81468542 30.8537485,0 28.623283,0 L18.7920302,0 C16.5615647,0 14.7468793,1.81468542 14.7468793,4.04515091 L14.7468793,7.37343964 L5.68369305,7.37343964 C2.54967398,7.37343964 0,9.92311362 0,13.0571327 L0,26.1654698 C0,27.4957612 0.645688013,28.677867 1.63987346,29.4155182 C1.63956623,29.4246326 1.63854214,29.4334397 1.63854214,29.4425541 L1.63854214,38.4545359 C1.63854214,41.588555 4.18821612,44.1382289 7.3222352,44.1382289 L40.093078,44.1382289 C43.2270971,44.1382289 45.7767711,41.588555 45.7767711,38.4545359 L45.7767711,29.4425541 C45.7767711,29.4334397 45.775747,29.4246326 45.7754398,29.4155182 C46.7696252,28.677867 47.4153132,27.4957612 47.4153132,26.1654698 L47.4153132,13.0571327 C47.4153132,9.92311362 44.8656392,7.37343964 41.7316202,7.37343964 L41.7316202,7.37343964 Z M16.2830125,4.04515091 C16.2830125,2.6617093 17.4084862,1.53613326 18.7920302,1.53613326 L28.623283,1.53613326 C30.0068271,1.53613326 31.1323007,2.6617093 31.1323007,4.04515091 L31.1323007,7.37343964 L29.3913497,7.37343964 L29.3913497,4.04515091 C29.3913497,3.62097332 29.047563,3.27708428 28.623283,3.27708428 L18.7920302,3.27708428 C18.3677502,3.27708428 18.0239636,3.62097332 18.0239636,4.04515091 L18.0239636,7.37343964 L16.2830125,7.37343964 L16.2830125,4.04515091 L16.2830125,4.04515091 Z M19.5600968,7.37343964 L19.5600968,4.81321754 L27.8552164,4.81321754 L27.8552164,7.37343964 L19.5600968,7.37343964 L19.5600968,7.37343964 Z M44.2406378,38.4545359 C44.2406378,40.7415311 42.3800732,42.6020957 40.093078,42.6020957 L7.3222352,42.6020957 C5.03524,42.6020957 3.1746754,40.7415311 3.1746754,38.4545359 L3.1746754,30.1152781 C3.45527574,30.177133 3.74632179,30.2106207 4.04515091,30.2106207 L8.19271071,30.2106207 L8.19271071,31.0810963 C8.19271071,32.4081106 9.27230516,33.487705 10.5993195,33.487705 L12.2378616,33.487705 C13.5648759,33.487705 14.6444704,32.4081106 14.6444704,31.0810963 L14.6444704,30.2106207 L32.7708428,30.2106207 L32.7708428,31.0810963 C32.7708428,32.4081106 33.8504373,33.487705 35.1774516,33.487705 L36.8159937,33.487705 C38.1430081,33.487705 39.2226025,32.4081106 39.2226025,31.0810963 L39.2226025,30.2106207 L43.3701623,30.2106207 C43.6689914,30.2106207 43.9600375,30.1770306 44.2406378,30.1152781 L44.2406378,38.4545359 L44.2406378,38.4545359 Z M13.1083371,28.6744875 L9.72884397,28.6744875 L9.72884397,27.804012 C9.72884397,27.3240215 10.119329,26.9335365 10.5993195,26.9335365 L12.2378616,26.9335365 C12.7178521,26.9335365 13.1083371,27.3240215 13.1083371,27.804012 L13.1083371,28.6744875 L13.1083371,28.6744875 Z M13.1083371,30.2106207 L13.1083371,31.0810963 C13.1083371,31.5610867 12.7178521,31.9515718 12.2378616,31.9515718 L10.5993195,31.9515718 C10.119329,31.9515718 9.72884397,31.5610867 9.72884397,31.0810963 L9.72884397,30.2106207 L13.1083371,30.2106207 L13.1083371,30.2106207 Z M37.6864693,28.6744875 L34.3069761,28.6744875 L34.3069761,27.804012 C34.3069761,27.3240215 34.6974612,26.9335365 35.1774516,26.9335365 L36.8159937,26.9335365 C37.2959842,26.9335365 37.6864693,27.3240215 37.6864693,27.804012 L37.6864693,28.6744875 L37.6864693,28.6744875 Z M37.6864693,30.2106207 L37.6864693,31.0810963 C37.6864693,31.5610867 37.2959842,31.9515718 36.8159937,31.9515718 L35.1774516,31.9515718 C34.6974612,31.9515718 34.3069761,31.5610867 34.3069761,31.0810963 L34.3069761,30.2106207 L37.6864693,30.2106207 L37.6864693,30.2106207 Z M45.87918,26.1654698 C45.87918,27.5489114 44.7537063,28.6744875 43.3701623,28.6744875 L39.2226025,28.6744875 L39.2226025,27.804012 C39.2226025,26.4769976 38.1430081,25.3974032 36.8159937,25.3974032 L35.1774516,25.3974032 C33.8504373,25.3974032 32.7708428,26.4769976 32.7708428,27.804012 L32.7708428,28.6744875 L14.6444704,28.6744875 L14.6444704,27.804012 C14.6444704,26.4769976 13.5648759,25.3974032 12.2378616,25.3974032 L10.5993195,25.3974032 C9.27230516,25.3974032 8.19271071,26.4769976 8.19271071,27.804012 L8.19271071,28.6744875 L4.04515091,28.6744875 C2.66160689,28.6744875 1.53613326,27.5489114 1.53613326,26.1654698 L1.53613326,13.0571327 C1.53613326,10.7701375 3.39669786,8.9095729 5.68369305,8.9095729 L41.7316202,8.9095729 C44.0186154,8.9095729 45.87918,10.7701375 45.87918,13.0571327 L45.87918,26.1654698 L45.87918,26.1654698 Z" id="Shape"></path>
                </g>
            </g>
        </g>
    </g>
</svg>