<?xml version="1.0" encoding="UTF-8" standalone="no"?>
<svg width="44px" height="47px" viewBox="0 0 44 47" version="1.1" xmlns="http://www.w3.org/2000/svg" xmlns:xlink="http://www.w3.org/1999/xlink">
    <!-- Generator: Sketch 3.8.3 (29802) - http://www.bohemiancoding.com/sketch -->
    <title>law</title>
    <desc>Created with Sketch.</desc>
    <defs></defs>
    <g id="Page-1" stroke="none" stroke-width="1" fill="none" fill-rule="evenodd">
        <g id="сервис-аренда-офиса-общая" transform="translate(-750.000000, -1029.000000)" fill="#000000">
            <g id="Group" transform="translate(120.000000, 670.000000)">
                <g id="law" transform="translate(630.376727, 359.500000)">
                    <g id="avatar-(1)" transform="translate(0.408163, 0.000000)">
                        <path d="M38.3640349,33.1457322 L31.0327296,31.3321598 C31.0053766,31.2912268 30.9753183,31.251784 30.9394488,31.216216 L28.7557176,29.0499438 L28.7557176,26.9762678 C28.9374698,26.7930626 29.1154146,26.6029028 29.28855,26.4046955 C31.326098,24.0714125 32.5511717,20.928013 32.7382342,17.5535205 C32.7457488,17.4181037 32.7526622,17.2829849 32.7594754,17.1479654 C32.7822194,16.7014773 32.803661,16.2798272 32.8466443,15.8543024 L33.5696452,8.68436285 C33.7930781,6.46811663 33.0569517,4.25008207 31.5498315,2.59865227 C30.0427113,0.94712311 27.8899401,0 25.6437879,0 L17.5398856,0 C15.2937334,0 13.1410624,0.94712311 11.6338419,2.59855292 C10.1266215,4.24998272 9.39049519,6.46821598 9.61392812,8.68436285 L10.3364281,15.8494341 C10.3795115,16.2765486 10.4012537,16.7017754 10.4241981,17.1520389 C10.4310113,17.2858661 10.4378245,17.4196933 10.4452389,17.5535205 C10.6323013,20.928013 11.8573751,24.0714125 13.8949231,26.4046955 C14.0679583,26.6029028 14.2460033,26.7929633 14.4277555,26.9762678 L14.4277555,29.0499438 L12.243924,31.2161166 C12.2089563,31.2507905 12.1794992,31.289041 12.1526472,31.3287819 L4.81923784,33.1458315 C1.71151626,33.9162073 0,35.8075724 0,38.4714989 L0,43.6652268 C0,44.9526307 1.0562466,46 2.35456224,46 L40.8291112,46 C42.1274269,46 43.1836735,44.9526307 43.1836735,43.6652268 L43.1836735,38.4713996 C43.1836735,35.8075724 41.4721572,33.9162073 38.3640349,33.1457322 L38.3640349,33.1457322 Z M20.7902836,41.2311015 L22.3933898,41.2311015 C22.4492982,41.2311015 22.5045051,41.228419 22.5595117,41.2246436 L23.1234043,44.5097192 L20.0602691,44.5097192 L20.6241618,41.2246436 C20.6791683,41.228419 20.7343753,41.2311015 20.7902836,41.2311015 L20.7902836,41.2311015 Z M23.24504,38.8963283 C23.24504,39.3619914 22.8629998,39.7408207 22.3933898,39.7408207 L20.7902836,39.7408207 C20.3206737,39.7408207 19.9386335,39.3619914 19.9386335,38.8963283 L19.9386335,37.7054946 L21.5918367,36.612622 L23.24504,37.7054946 L23.24504,38.8963283 L23.24504,38.8963283 Z M15.9308679,28.2539352 C17.6307617,29.4588769 19.5751291,30.1036717 21.5918367,30.1036717 C23.6085443,30.1036717 25.5529118,29.4588769 27.2528055,28.2539352 L27.2528055,29.0499438 L21.5918367,34.6633348 L15.9308679,29.0499438 L15.9308679,28.2539352 L15.9308679,28.2539352 Z M24.417612,36.6895205 C24.4168105,36.6890238 24.4160089,36.688527 24.4152073,36.6879309 L22.7713221,35.6012181 L28.0041614,30.4123585 L29.4772156,31.8735292 C28.9801525,32.7628294 27.8127906,34.8460432 26.164597,37.7849762 C26.161491,37.79054 26.1549784,37.8020648 26.1365426,37.8065356 C26.1153015,37.8117019 26.100072,37.8016674 26.0950623,37.7983888 L24.417612,36.6895205 L24.417612,36.6895205 Z M12.7482011,3.59853132 C13.9709704,2.25866955 15.7175546,1.49028078 17.5398856,1.49028078 L25.6437879,1.49028078 C27.466219,1.49028078 29.2127031,2.25866955 30.4355725,3.59853132 C31.6583418,4.93829374 32.255599,6.7379568 32.0742476,8.53593089 L31.616661,13.0731404 C30.6012936,10.6737883 29.4779169,9.13691145 29.4117888,9.04739525 C29.1723248,8.72340821 28.7166419,8.64611231 28.3821939,8.87263499 C26.4073674,10.2095162 17.6120254,10.3797063 14.3889803,10.3326134 C14.1715591,10.32854 13.9632555,10.4197451 13.8181743,10.5804968 C12.89729,11.5997495 12.1727862,12.7457754 11.6353449,13.7507214 L11.109526,8.53603024 C10.9280744,6.73805616 11.5254319,4.93839309 12.7482011,3.59853132 L12.7482011,3.59853132 Z M11.9460469,17.4717538 C11.9387327,17.340013 11.9320197,17.2083715 11.9253067,17.0766307 C11.9206978,16.9855248 11.9158884,16.8933261 11.9109789,16.8010281 C12.0728927,16.3452009 13.0122127,13.8328855 14.7169158,11.8267689 C16.7962447,11.844851 25.2890004,11.8313391 28.5553293,10.4576976 C29.1993772,11.4651274 30.5572082,13.8234471 31.2734961,16.7839395 C31.268286,16.8807084 31.2633765,16.9772786 31.258467,17.0727559 C31.2516538,17.2055896 31.2449408,17.3385227 31.2375264,17.4717538 C30.8912555,23.7194082 26.6543459,28.6133909 21.5918367,28.6133909 C16.5293275,28.6133909 12.292418,23.7194082 11.9460469,17.4717538 L11.9460469,17.4717538 Z M15.1795121,30.4123585 L20.4123513,35.6012181 L18.7681655,36.6881296 C18.7675644,36.688527 18.766863,36.6890238 18.7662618,36.6894212 L17.0886112,37.7984881 C17.0837017,37.8018661 17.0684722,37.8118013 17.0471308,37.806635 C17.0286951,37.8022635 17.0221825,37.7906393 17.0191767,37.7851749 C15.3709831,34.8461425 14.2036212,32.7629287 13.7065581,31.8736285 L15.1795121,30.4123585 L15.1795121,30.4123585 Z M1.50291207,43.6652268 L1.50291207,38.4714989 C1.50291207,36.5024406 2.74131162,35.197054 5.18364392,34.5916026 L12.4951108,32.780216 C12.9283502,33.5559568 13.8266908,35.1589028 15.7057317,38.5094514 C15.9151375,38.8828164 16.2752352,39.1546436 16.6934455,39.2549892 C16.8132777,39.2838013 16.935214,39.2979093 17.0568497,39.2979093 C17.3618406,39.2979093 17.6643267,39.2088898 17.9223266,39.0384017 L18.4358216,38.6989158 L18.4358216,38.8962289 C18.4358216,39.5779827 18.7320956,40.1922765 19.2036093,40.6195896 L18.5358153,44.5097192 L8.71689,44.5097192 L8.71689,40.4859611 C8.71689,40.0744449 8.38043809,39.7408207 7.96543397,39.7408207 C7.55042985,39.7408207 7.21397793,40.0744449 7.21397793,40.4859611 L7.21397793,44.5097192 L2.35456224,44.5097192 C1.88495232,44.5097192 1.50291207,44.1308898 1.50291207,43.6652268 L1.50291207,43.6652268 Z M41.6807614,43.6652268 C41.6807614,44.1308898 41.2987212,44.5097192 40.8291112,44.5097192 L35.9696955,44.5097192 L35.9696955,40.4859611 C35.9696955,40.0744449 35.6332436,39.7408207 35.2182395,39.7408207 C34.8032354,39.7408207 34.4667835,40.0744449 34.4667835,40.4859611 L34.4667835,44.5097192 L24.6478581,44.5097192 L23.9800642,40.619689 C24.4515778,40.1924752 24.7478519,39.5780821 24.7478519,38.8963283 L24.7478519,38.6990151 L25.2613468,39.0385011 C25.5193467,39.2090886 25.8218329,39.2980086 26.1268238,39.2980086 C26.2484595,39.2980086 26.370496,39.2838013 26.4902279,39.2550886 C26.9084383,39.1546436 27.268536,38.8829158 27.4779418,38.5094514 C29.3549787,35.1623801 30.2534196,33.5593348 30.68716,32.7826004 L37.9998292,34.5916026 C40.4423619,35.197054 41.6807614,36.5024406 41.6807614,38.4713996 L41.6807614,43.6652268 L41.6807614,43.6652268 Z" id="Shape"></path>
                    </g>
                </g>
            </g>
        </g>
    </g>
</svg>