<?xml version="1.0" encoding="UTF-8" standalone="no"?>
<svg width="26px" height="40px" viewBox="0 0 26 40" version="1.1" xmlns="http://www.w3.org/2000/svg" xmlns:xlink="http://www.w3.org/1999/xlink">
    <!-- Generator: Sketch 3.8.3 (29802) - http://www.bohemiancoding.com/sketch -->
    <title>map</title>
    <desc>Created with Sketch.</desc>
    <defs>
        <path d="M31.5000842,0 C24.3318182,0 18.5,5.93541971 18.5,13.2309433 C18.5,16.1693336 20.3436174,20.959917 24.1358912,27.8765147 C26.8183895,32.7685166 29.4567494,36.8475423 29.5676006,37.0187448 L31.5000842,40 L33.4324837,37.0188306 C33.5434191,36.8475423 36.1819475,32.7686023 38.8641088,27.8766005 C42.6565511,20.959917 44.5,16.1694193 44.5,13.2310291 C44.5000842,5.93541971 38.668266,0 31.5000842,0 L31.5000842,0 Z M31.5000842,20 C27.7784822,20 24.7614088,16.9294143 24.7614088,13.1416128 C24.7614088,9.35381133 27.7784822,6.28322567 31.5000842,6.28322567 C35.2216862,6.28322567 38.2387597,9.35381133 38.2387597,13.1416128 C38.2387597,16.9294143 35.221602,20 31.5000842,20 L31.5000842,20 Z" id="path-1"></path>
        <mask id="mask-2" maskContentUnits="userSpaceOnUse" maskUnits="objectBoundingBox" x="0" y="0" width="26" height="40" fill="white">
            <use xlink:href="#path-1"></use>
        </mask>
    </defs>
    <g id="Page-1" stroke="none" stroke-width="1" fill="none" fill-rule="evenodd">
        <g id="бизнес-центр" transform="translate(-143.000000, -1344.000000)" stroke-width="2" stroke="#000000" fill="#FFFFFF">
            <g id="Group-2" transform="translate(122.000000, 956.000000)">
                <g id="map" transform="translate(2.000000, 388.000000)">
                    <g id="Group-4">
                        <g id="Group-3" transform="translate(0.500000, 0.000000)">
                            <use id="Shape" mask="url(#mask-2)" xlink:href="#path-1"></use>
                        </g>
                    </g>
                </g>
            </g>
        </g>
    </g>
</svg>