<?xml version="1.0" encoding="UTF-8" standalone="no"?>
<svg width="53px" height="33px" viewBox="0 0 53 33" version="1.1" xmlns="http://www.w3.org/2000/svg" xmlns:xlink="http://www.w3.org/1999/xlink">
    <!-- Generator: Sketch 41 (35326) - http://www.bohemiancoding.com/sketch -->
    <title>meeting room@2x</title>
    <desc>Created with Sketch.</desc>
    <defs>
        <polygon id="path-1" points="0 31 23 31 24 24 22 21 21 17 21 14 22 11 23 8 23 0 0 0"></polygon>
        <path d="M13.5,28.46875 C14.4113104,28.46875 15.3015307,28.3869181 16.1622019,28.2309203 C16.4389849,28.180753 16.7127119,28.1229155 16.9831016,28.0576627 C16.9831009,28.057663 21.0149156,31 21.0149156,31 C21.0149156,31 21.0149155,27 21.0149159,26.3994892 C21.3395601,26.2019859 21.6542215,25.992048 21.9580699,25.7704279 C25.0325889,23.5279443 27,20.0893767 27,16.234375 C27,9.47751626 20.9558441,4 13.5,4 C6.04415588,4 0,9.47751626 0,16.234375 C0,22.9912337 6.04415588,28.46875 13.5,28.46875 Z" id="path-3"></path>
        <mask id="mask-4" maskContentUnits="userSpaceOnUse" maskUnits="objectBoundingBox" x="0" y="0" width="27" height="27" fill="white">
            <use xlink:href="#path-3"></use>
        </mask>
        <path d="M36,30 C37.2327165,30 38.4328728,29.8736631 39.5855639,29.6344972 C39.7676197,29.5967234 40.1281204,29.5127854 40.1281204,29.5127854 L44.9065666,33 L44.906567,27.5475427 C44.906567,27.5475427 45.2246241,27.3502512 45.3805109,27.2478446 C49.3913184,24.6130265 52,20.3325979 52,15.5 C52,7.49187113 44.836556,1 36,1 C27.163444,1 20,7.49187113 20,15.5 C20,23.5081289 27.163444,30 36,30 Z" id="path-5"></path>
        <mask id="mask-6" maskContentUnits="userSpaceOnUse" maskUnits="objectBoundingBox" x="0" y="0" width="32" height="32" fill="white">
            <use xlink:href="#path-5"></use>
        </mask>
        <rect id="path-7" x="27" y="12" width="18" height="2"></rect>
        <mask id="mask-8" maskContentUnits="userSpaceOnUse" maskUnits="objectBoundingBox" x="0" y="0" width="18" height="2" fill="white">
            <use xlink:href="#path-7"></use>
        </mask>
        <rect id="path-9" x="6" y="13" width="15" height="2"></rect>
        <mask id="mask-10" maskContentUnits="userSpaceOnUse" maskUnits="objectBoundingBox" x="0" y="0" width="15" height="2" fill="white">
            <use xlink:href="#path-9"></use>
        </mask>
        <rect id="path-11" x="29" y="18" width="14" height="2"></rect>
        <mask id="mask-12" maskContentUnits="userSpaceOnUse" maskUnits="objectBoundingBox" x="0" y="0" width="14" height="2" fill="white">
            <use xlink:href="#path-11"></use>
        </mask>
        <rect id="path-13" x="9" y="19" width="8" height="2"></rect>
        <mask id="mask-14" maskContentUnits="userSpaceOnUse" maskUnits="objectBoundingBox" x="0" y="0" width="8" height="2" fill="white">
            <use xlink:href="#path-13"></use>
        </mask>
    </defs>
    <g id="Page-1" stroke="none" stroke-width="1" fill="none" fill-rule="evenodd">
        <g id="сервис-аренда-общая" transform="translate(-130.000000, -752.000000)">
            <g id="Group" transform="translate(120.000000, 492.000000)">
                <g id="meeting-room" transform="translate(10.918038, 259.771618)">
                    <g id="Oval-34-Copy">
                        <mask id="mask-2" fill="white">
                            <use xlink:href="#path-1"></use>
                        </mask>
                        <g id="Mask"></g>
                        <g mask="url(#mask-2)" transform="translate(13.500000, 17.500000) scale(-1, 1) translate(-13.500000, -17.500000) " stroke-width="3.4" stroke="#000000">
                            <use mask="url(#mask-4)" xlink:href="#path-3"></use>
                        </g>
                    </g>
                    <use id="Oval-34" stroke="#000000" mask="url(#mask-6)" stroke-width="3.4" xlink:href="#path-5"></use>
                    <use id="Rectangle-180" stroke="#000000" mask="url(#mask-8)" stroke-width="3" fill="#000000" xlink:href="#path-7"></use>
                    <use id="Rectangle-180-Copy-2" stroke="#000000" mask="url(#mask-10)" stroke-width="3" fill="#000000" xlink:href="#path-9"></use>
                    <use id="Rectangle-180-Copy" stroke="#000000" mask="url(#mask-12)" stroke-width="3" fill="#000000" xlink:href="#path-11"></use>
                    <use id="Rectangle-180-Copy-3" stroke="#000000" mask="url(#mask-14)" stroke-width="3" fill="#000000" xlink:href="#path-13"></use>
                </g>
            </g>
        </g>
    </g>
</svg>