<?xml version="1.0" encoding="UTF-8" standalone="no"?>
<svg width="38px" height="52px" viewBox="0 0 38 52" version="1.1" xmlns="http://www.w3.org/2000/svg" xmlns:xlink="http://www.w3.org/1999/xlink">
    <!-- Generator: Sketch 3.8.3 (29802) - http://www.bohemiancoding.com/sketch -->
    <title>office-chair</title>
    <desc>Created with Sketch.</desc>
    <defs></defs>
    <g id="Page-1" stroke="none" stroke-width="1" fill="none" fill-rule="evenodd">
        <g id="icons" transform="translate(-577.000000, -689.000000)" fill="#000000">
            <g id="office-chair" transform="translate(576.500000, 689.000000)">
                <g transform="translate(0.722222, 0.000000)" id="Shape">
                    <path d="M34.9210614,18.8682505 L33.1273632,18.8682505 C31.6746919,18.8682505 30.492869,20.0522333 30.492869,21.5075594 C30.492869,22.668406 31.2451012,23.6558445 32.2865672,24.0082765 L32.2865672,27.7969762 C32.2865672,28.586635 31.7901612,29.2606134 31.0943184,29.5270151 C30.7086733,28.548 29.755659,27.8531317 28.6431177,27.8531317 L21.412272,27.8531317 L21.412272,25.9438445 L26.8494196,25.9438445 C28.3020909,25.9438445 29.4839138,24.7598618 29.4839138,23.3045356 L29.4839138,6.23326134 C29.4839138,2.79620734 26.6928073,0 23.2620232,0 L14.2935323,0 C10.8627483,0 8.07164179,2.79620734 8.07164179,6.23326134 L8.07164179,23.3045356 C8.07164179,24.7598618 9.25346468,25.9438445 10.706136,25.9438445 L16.1432836,25.9438445 L16.1432836,27.8531317 L8.91243781,27.8531317 C7.79989652,27.8531317 6.84688226,28.548 6.46123715,29.5270151 C5.76539436,29.2606134 5.26898839,28.586635 5.26898839,27.7969762 L5.26898839,24.0082765 C6.31045439,23.6558445 7.06268657,22.668406 7.06268657,21.5075594 C7.06268657,20.0522333 5.88086368,18.8682505 4.42819237,18.8682505 L2.6344942,18.8682505 C1.18182289,18.8682505 0,20.0522333 0,21.5075594 C0,22.9628855 1.18182289,24.1468683 2.6344942,24.1468683 L3.58739635,24.1468683 L3.58739635,27.7969762 C3.58739635,29.4980389 4.79208889,30.9222549 6.39161924,31.2589633 C6.72031443,32.3415292 7.72579436,33.1317495 8.91243781,33.1317495 L16.1432836,33.1317495 L16.1432836,35.8833693 C16.1432836,37.044216 16.8955158,38.0316544 17.9369818,38.3840864 L17.9369818,46.7213823 L10.706136,46.7213823 C9.25346468,46.7213823 8.07164179,47.905365 8.07164179,49.3606911 C8.07164179,50.8160173 9.25346468,52 10.706136,52 C12.1588073,52 13.3406302,50.8160173 13.3406302,49.3606911 C13.3406302,49.024095 13.2767297,48.702324 13.1615967,48.4060475 L24.394071,48.4060475 C24.278938,48.702324 24.2150375,49.024095 24.2150375,49.3606911 C24.2150375,50.8160173 25.3968604,52 26.8495317,52 C28.302203,52 29.4840259,50.8160173 29.4840259,49.3606911 C29.4840259,47.905365 28.3020909,46.7213823 26.8494196,46.7213823 L19.6185738,46.7213823 L19.6185738,38.3840864 C20.6600398,38.0316544 21.412272,37.044216 21.412272,35.8833693 L21.412272,33.1317495 L28.6431177,33.1317495 C29.8297612,33.1317495 30.8352411,32.3415292 31.1639363,31.2589633 C32.7634667,30.9222549 33.9681592,29.4980389 33.9681592,27.7969762 L33.9681592,24.1468683 L34.9210614,24.1468683 C36.3737327,24.1468683 37.5555556,22.9628855 37.5555556,21.5075594 C37.5555556,20.0522333 36.3737327,18.8682505 34.9210614,18.8682505 L34.9210614,18.8682505 Z M1.68159204,21.5075594 C1.68159204,20.9811577 2.10905274,20.5529158 2.6344942,20.5529158 L4.42819237,20.5529158 C4.95363383,20.5529158 5.38109453,20.9811577 5.38109453,21.5075594 C5.38109453,22.0339611 4.95363383,22.462203 4.42819237,22.462203 L2.6344942,22.462203 C2.10905274,22.462203 1.68159204,22.0339611 1.68159204,21.5075594 L1.68159204,21.5075594 Z M11.6590381,49.3606911 C11.6590381,49.8870929 11.2315774,50.3153348 10.706136,50.3153348 C10.1806945,50.3153348 9.75323383,49.8870929 9.75323383,49.3606911 C9.75323383,48.8342894 10.1806945,48.4060475 10.706136,48.4060475 C11.2315774,48.4060475 11.6590381,48.8342894 11.6590381,49.3606911 L11.6590381,49.3606911 Z M26.8494196,50.3153348 C26.3239781,50.3153348 25.8965174,49.8870929 25.8965174,49.3606911 C25.8965174,48.8342894 26.3239781,48.4060475 26.8494196,48.4060475 C27.374861,48.4060475 27.8023217,48.8342894 27.8023217,49.3606911 C27.8023217,49.8870929 27.374861,50.3153348 26.8494196,50.3153348 L26.8494196,50.3153348 Z M9.75323383,23.3045356 L9.75323383,6.23326134 C9.75323383,3.72513175 11.7899781,1.68466523 14.2935323,1.68466523 L23.2620232,1.68466523 C25.7655774,1.68466523 27.8023217,3.72513175 27.8023217,6.23326134 L27.8023217,23.3045356 C27.8023217,23.8309374 27.374861,24.2591793 26.8494196,24.2591793 L10.706136,24.2591793 C10.1806945,24.2591793 9.75323383,23.8309374 9.75323383,23.3045356 L9.75323383,23.3045356 Z M17.8248756,25.9438445 L19.7306799,25.9438445 L19.7306799,27.8531317 L17.8248756,27.8531317 L17.8248756,25.9438445 L17.8248756,25.9438445 Z M19.7306799,35.8833693 C19.7306799,36.4097711 19.3032192,36.838013 18.7777778,36.838013 C18.2523363,36.838013 17.8248756,36.4097711 17.8248756,35.8833693 L17.8248756,33.1317495 L19.7306799,33.1317495 L19.7306799,35.8833693 L19.7306799,35.8833693 Z M28.6431177,31.4470842 L8.91243781,31.4470842 C8.38699635,31.4470842 7.95953566,31.0188423 7.95953566,30.4924406 C7.95953566,29.9660389 8.38699635,29.537797 8.91243781,29.537797 L28.6431177,29.537797 C29.1685592,29.537797 29.5960199,29.9660389 29.5960199,30.4924406 C29.5960199,31.0188423 29.1685592,31.4470842 28.6431177,31.4470842 L28.6431177,31.4470842 Z M34.9210614,22.462203 L33.1273632,22.462203 C32.6019217,22.462203 32.174461,22.0339611 32.174461,21.5075594 C32.174461,20.9811577 32.6019217,20.5529158 33.1273632,20.5529158 L34.9210614,20.5529158 C35.4465028,20.5529158 35.8739635,20.9811577 35.8739635,21.5075594 C35.8739635,22.0339611 35.4465028,22.462203 34.9210614,22.462203 L34.9210614,22.462203 Z"></path>
                </g>
            </g>
        </g>
    </g>
</svg>