<?xml version="1.0" encoding="UTF-8" standalone="no"?>
<svg width="38px" height="46px" viewBox="0 0 38 46" version="1.1" xmlns="http://www.w3.org/2000/svg" xmlns:xlink="http://www.w3.org/1999/xlink">
    <!-- Generator: Sketch 3.8.3 (29802) - http://www.bohemiancoding.com/sketch -->
    <title>secretary</title>
    <desc>Created with Sketch.</desc>
    <defs></defs>
    <g id="Page-1" stroke="none" stroke-width="1" fill="none" fill-rule="evenodd">
        <g id="icons" transform="translate(-577.000000, -425.000000)" fill="#000000">
            <g id="woman-(1)" transform="translate(577.500000, 425.000000)">
                <g transform="translate(0.342105, 0.000000)" id="Shape">
                    <path d="M32.1558009,33.2963499 L28.5836928,32.3996976 C29.0140399,32.2270238 29.4747655,32.0344795 29.9378661,31.8278272 C32.7437803,30.5756933 33.940915,29.5995594 33.940915,28.5637149 C33.940915,18.0230583 32.5592328,10.6715032 29.7170027,6.08888985 C27.175887,1.99171058 23.3947899,0 18.1578947,0 C12.9209996,0 9.13990248,1.99171058 6.59878675,6.08888985 C3.75655672,10.6715032 2.37487452,18.0230583 2.37487452,28.5637149 C2.37487452,29.5995594 3.57200918,30.5756933 6.37792342,31.8278272 C6.84102395,32.0344795 7.30174961,32.2270238 7.73209666,32.3996976 L4.15998853,33.2963499 C1.71060232,33.911041 -3.55271368e-15,36.1107948 -3.55271368e-15,38.6456631 L-3.55271368e-15,43.6652268 C-3.55271368e-15,44.9526307 1.04316363,46 2.32539796,46 L33.9903915,46 C35.2726258,46 36.3157895,44.9526307 36.3157895,43.6652268 L36.3157895,38.6456631 C36.3157895,36.1107948 34.6051872,33.911041 32.1558009,33.2963499 L32.1558009,33.2963499 Z M11.7892729,32.9174212 C13.1794651,32.5684968 14.150294,31.3199395 14.150294,29.8812225 L14.150294,29.1841685 C15.393145,29.7773996 16.7448444,30.1036717 18.1578947,30.1036717 C19.5420508,30.1036717 20.8995884,29.7867387 22.1654955,29.1846652 L22.1654955,29.8813218 C22.1654955,31.3200389 23.1364233,32.5685961 24.5265166,32.9175205 L25.4594464,33.1516933 C23.6349491,35.3967516 20.9127492,37.9182073 18.1578947,38.9040778 C15.4030403,37.918108 12.6808404,35.3966523 10.856343,33.1516933 L11.7892729,32.9174212 L11.7892729,32.9174212 Z M18.1578947,28.6133909 C12.8926,28.6133909 8.60892012,23.2428164 8.60892012,16.6414687 L8.60892012,16.1678575 C12.734473,12.3885054 20.775897,11.8761469 23.9342822,11.827365 C24.5428438,13.8495767 25.6346924,16.5170799 27.5368679,18.810622 C27.1419461,21.5018704 26.0141775,23.95527 24.3422659,25.7481771 C22.6191955,27.5958272 20.4229313,28.6133909 18.1578947,28.6133909 L18.1578947,28.6133909 Z M3.85917109,28.534406 C3.86174387,18.2966739 5.17010182,11.2116803 7.85875663,6.87665227 C10.1379435,3.20181857 13.4105206,1.49028078 18.1578947,1.49028078 C22.9052689,1.49028078 26.177846,3.20181857 28.4570328,6.87655292 C31.1456877,11.211581 32.4540456,18.2965745 32.4566184,28.5343067 C32.4123863,28.6320691 32.0209279,29.289879 29.138226,30.5529417 C27.8211602,31.1299784 26.5272494,31.5924622 26.0413896,31.76146 L24.886508,31.4715508 C24.158411,31.288743 23.6497921,30.6348078 23.6497921,29.8811231 L23.6497921,28.3173218 C24.2785401,27.8762981 24.8739409,27.3581771 25.4258024,26.7664363 C27.3767618,24.6742808 28.6650323,21.8000259 29.0534232,18.6729201 C29.0795468,18.4625918 29.0152273,18.2510713 28.8764951,18.0913132 C26.8364778,15.7404449 25.7546235,12.8717538 25.2062254,10.879149 C25.1173656,10.5561555 24.8246623,10.332514 24.4908934,10.332514 C22.829075,10.332514 19.5279994,10.4435896 16.0905665,11.1875378 C12.2298121,12.0230886 9.28843109,13.4112354 7.34825756,15.3134298 C7.20527033,15.4537149 7.12462355,15.6458618 7.12462355,15.8465529 L7.12462355,16.6413693 C7.12462355,21.6265572 9.35700559,25.9875162 12.6659974,28.3142419 L12.6659974,29.8811231 C12.6659974,30.6347084 12.1573785,31.288743 11.4292815,31.4715508 L10.2743998,31.76146 C9.79002438,31.5930583 8.50224867,31.1327603 7.18627133,30.5567171 C4.29565323,29.2913693 3.90350208,28.6321685 3.85917109,28.534406 L3.85917109,28.534406 Z M34.8314929,43.6652268 C34.8314929,44.1308898 34.4541847,44.5097192 33.9903915,44.5097192 L29.9827908,44.5097192 L29.9827908,40.8421382 C29.9827908,40.430622 29.6505062,40.0969978 29.2406425,40.0969978 C28.8307787,40.0969978 28.4984942,40.430622 28.4984942,40.8421382 L28.4984942,44.5097192 L7.81729528,44.5097192 L7.81729528,40.8421382 C7.81729528,40.430622 7.48501076,40.0969978 7.075147,40.0969978 C6.66528324,40.0969978 6.33299871,40.430622 6.33299871,40.8421382 L6.33299871,44.5097192 L2.32539796,44.5097192 C1.86160476,44.5097192 1.48429657,44.1308898 1.48429657,43.6652268 L1.48429657,38.6456631 C1.48429657,36.7959266 2.73258999,35.1906955 4.51988097,34.7420216 L9.27408289,33.5487041 C12.261774,37.4813564 15.6693231,39.6626307 17.9284225,40.3998229 C18.0029342,40.4241641 18.0804145,40.4362851 18.1577958,40.4362851 C18.2351771,40.4362851 18.3126574,40.4240648 18.3871691,40.3998229 C20.6462685,39.6626307 24.0538176,37.4813564 27.0415087,33.5487041 L31.7957106,34.7420216 C33.5831995,35.1906955 34.8314929,36.7959266 34.8314929,38.6456631 L34.8314929,43.6652268 L34.8314929,43.6652268 Z"></path>
                </g>
            </g>
        </g>
    </g>
</svg>