<?xml version="1.0" encoding="UTF-8" standalone="no"?>
<svg width="36px" height="42px" viewBox="0 0 36 42" version="1.1" xmlns="http://www.w3.org/2000/svg" xmlns:xlink="http://www.w3.org/1999/xlink">
    <!-- Generator: Sketch 41 (35326) - http://www.bohemiancoding.com/sketch -->
    <title>security</title>
    <desc>Created with Sketch.</desc>
    <defs>
        <path d="M0.657894737,36.6101741 C0.657894737,31.5282812 4.77031279,27.408593 7.65789474,27.408593 L7.65789474,27.408593 L10.6673956,27.1626608 C11.7667179,27.0728257 12.6578947,26.1122704 12.6578947,25 L12.6578947,23 C12.6578947,23 15.591226,25 18.6578947,25 C21.7245635,25 24.6578947,23 24.6578947,23 L24.6578947,25 C24.6578947,26.1045695 25.5517945,27.0730482 26.6483939,27.1626608 L29.6578947,27.408593 L29.6578947,27.408593 C33.523888,27.408593 36.6578947,31.5333336 36.6578947,36.6101741 L36.6578947,39.4027344 C36.6578947,40.5105395 35.7680022,41.408593 34.6581875,41.408593 L2.65760201,41.408593 C1.55319418,41.408593 0.657894737,40.5115329 0.657894737,39.4027344 L0.657894737,36.6101741 Z" id="path-1"></path>
        <mask id="mask-2" maskContentUnits="userSpaceOnUse" maskUnits="objectBoundingBox" x="0" y="0" width="36" height="18.408593" fill="white">
            <use xlink:href="#path-1"></use>
        </mask>
        <polygon id="path-3" points="5.56259899 2.32445195 11.562599 2.32445195 10.562599 7.32445195 6.56259899 7.32445195"></polygon>
        <mask id="mask-4" maskContentUnits="userSpaceOnUse" maskUnits="objectBoundingBox" x="0" y="0" width="6" height="5" fill="white">
            <use xlink:href="#path-3"></use>
        </mask>
        <polygon id="path-5" points="4.56259899 5.88711209 12.562599 5.88711209 10.562599 14.3569538 6.56259899 14.3569538"></polygon>
        <mask id="mask-6" maskContentUnits="userSpaceOnUse" maskUnits="objectBoundingBox" x="0" y="0" width="8" height="8.46984169" fill="white">
            <use xlink:href="#path-5"></use>
        </mask>
        <rect id="path-7" x="7" y="35" width="1.5" height="6" rx="0.75"></rect>
        <mask id="mask-8" maskContentUnits="userSpaceOnUse" maskUnits="objectBoundingBox" x="0" y="0" width="1.5" height="6" fill="white">
            <use xlink:href="#path-7"></use>
        </mask>
        <rect id="path-9" x="29.1578947" y="35" width="1.5" height="6" rx="0.75"></rect>
        <mask id="mask-10" maskContentUnits="userSpaceOnUse" maskUnits="objectBoundingBox" x="0" y="0" width="1.5" height="6" fill="white">
            <use xlink:href="#path-9"></use>
        </mask>
        <path d="M18.6578947,26.5211429 C24.4568846,26.5211429 29.1578947,19.8269711 29.1578947,13.4756964 C29.1578947,12.2903147 28.994143,11.1468217 28.6900635,10.0708723 C28.5944741,9.73264051 27.9158757,10.4736965 27.6578947,10 C27.6578947,10 9.65789474,10 9.65789474,10 C9.37057436,10.509621 8.65959371,9.92137874 8.54345825,10.3770656 C8.2922166,11.3628759 8.15789474,12.4021059 8.15789474,13.4756964 C8.15789474,19.8269711 12.8589049,26.5211429 18.6578947,26.5211429 Z" id="path-11"></path>
        <mask id="mask-12" maskContentUnits="userSpaceOnUse" maskUnits="objectBoundingBox" x="0" y="0" width="21" height="16.542051" fill="white">
            <use xlink:href="#path-11"></use>
        </mask>
        <path d="M31.6578947,10.2484039 C31.6578947,8.97883023 30.4709631,8.74020565 29.6578947,8.24840385 C29.1230601,7.9248977 28.9970045,6.3990125 28.6052932,5.72566729 C26.6134511,2.30172388 22.904473,-1.58060916e-05 18.6578947,-1.58060916e-05 C14.3513714,-1.58060916e-05 10.597733,2.36716563 8.62717507,5.87133283 C8.27033358,6.50589029 8.16043692,7.95179013 7.65789474,8.24840385 C7.15535255,8.54501758 5.65789474,8.98350586 5.65789474,10.2484039 C5.65789474,13.4163357 12.1737047,16.2407171 18.6578947,16.2484039 C25.1736281,16.256128 31.6578947,13.4317466 31.6578947,10.2484039 Z" id="path-13"></path>
        <mask id="mask-14" maskContentUnits="userSpaceOnUse" maskUnits="objectBoundingBox" x="0" y="0" width="26" height="16.2484355" fill="white">
            <use xlink:href="#path-13"></use>
        </mask>
    </defs>
    <g id="Page-1" stroke="none" stroke-width="1" fill="none" fill-rule="evenodd">
        <g id="сервис-аренда-общая" transform="translate(-138.000000, -820.000000)" stroke="#000000">
            <g id="Group" transform="translate(120.000000, 490.000000)">
                <g id="ВИРТУАЛЬНЫЙ-ОФИС-+-почта,-телефон,-секр-+-Page-1-Copy-10" transform="translate(17.000000, 326.000000)">
                    <g id="security" transform="translate(0.000000, 4.000000)">
                        <g transform="translate(0.342105, 0.000000)" id="Group-6">
                            <g>
                                <use id="Rectangle" mask="url(#mask-2)" stroke-width="3" xlink:href="#path-1"></use>
                                <g id="Group-5" transform="translate(10.000000, 27.000000)">
                                    <g id="Group-4" stroke-width="1.5">
                                        <polyline id="Path-2" points="2.65789474 0.408593041 6.31578947 3 10.3157895 3 14.6578947 0.408593041"></polyline>
                                        <g id="Group-3" transform="translate(0.157895, 1.000000)">
                                            <polyline id="Path-2-Copy" points="0.275105635 0 3.27510563 5 6.27510563 2"></polyline>
                                            <polyline id="Path-2-Copy-2" transform="translate(13.817225, 2.500000) scale(-1, 1) translate(-13.817225, -2.500000) " points="10.8172249 0 13.8172249 5 16.8172249 2"></polyline>
                                        </g>
                                    </g>
                                    <use id="Rectangle-3" mask="url(#mask-4)" stroke-width="3" xlink:href="#path-3"></use>
                                    <use id="Rectangle-3-Copy" mask="url(#mask-6)" stroke-width="3" transform="translate(8.562599, 10.122033) scale(1, -1) translate(-8.562599, -10.122033) " xlink:href="#path-5"></use>
                                </g>
                                <use id="Rectangle-2" mask="url(#mask-8)" stroke-width="2" fill="#D8D8D8" xlink:href="#path-7"></use>
                                <use id="Rectangle-2-Copy" mask="url(#mask-10)" stroke-width="2" fill="#D8D8D8" xlink:href="#path-9"></use>
                                <use id="Oval" mask="url(#mask-12)" stroke-width="3" xlink:href="#path-11"></use>
                                <use id="Oval-Copy" mask="url(#mask-14)" stroke-width="3" transform="translate(18.657895, 8.124202) scale(1, -1) translate(-18.657895, -8.124202) " xlink:href="#path-13"></use>
                                <path d="M8.5,7.75 L28.5,7.75" id="Path-3" stroke-width="1.5"></path>
                            </g>
                        </g>
                    </g>
                </g>
            </g>
        </g>
    </g>
</svg>