<?xml version="1.0" encoding="UTF-8" standalone="no"?>
<svg width="45px" height="44px" viewBox="0 0 45 44" version="1.1" xmlns="http://www.w3.org/2000/svg" xmlns:xlink="http://www.w3.org/1999/xlink">
    <!-- Generator: Sketch 3.8.3 (29802) - http://www.bohemiancoding.com/sketch -->
    <title>server</title>
    <desc>Created with Sketch.</desc>
    <defs></defs>
    <g id="Page-1" stroke="none" stroke-width="1" fill="none" fill-rule="evenodd">
        <g id="icons" transform="translate(-574.000000, -557.000000)" fill="#000000">
            <g id="server" transform="translate(573.500000, 557.500000)">
                <g transform="translate(0.827586, 0.000000)" id="Capa_1">
                    <g>
                        <g id="Group">
                            <path d="M7.76034483,4.43448276 C5.92668621,4.43448276 4.43448276,5.92668621 4.43448276,7.76034483 C4.43448276,9.59400345 5.92668621,11.0862069 7.76034483,11.0862069 C9.59400345,11.0862069 11.0862069,9.59400345 11.0862069,7.76034483 C11.0862069,5.92668621 9.59400345,4.43448276 7.76034483,4.43448276 L7.76034483,4.43448276 Z M7.76034483,9.60804598 C6.74189195,9.60804598 5.91264368,8.77953678 5.91264368,7.76034483 C5.91264368,6.74115287 6.74189195,5.91264368 7.76034483,5.91264368 C8.7787977,5.91264368 9.60804598,6.74115287 9.60804598,7.76034483 C9.60804598,8.77953678 8.7787977,9.60804598 7.76034483,9.60804598 L7.76034483,9.60804598 Z" id="Shape"></path>
                            <ellipse id="Oval" cx="36.954023" cy="6.65172414" rx="0.73908046" ry="0.73908046"></ellipse>
                            <ellipse id="Oval" cx="33.9977011" cy="6.65172414" rx="0.73908046" ry="0.73908046"></ellipse>
                            <ellipse id="Oval" cx="38.4321839" cy="8.86896552" rx="0.73908046" ry="0.73908046"></ellipse>
                            <ellipse id="Oval" cx="35.4758621" cy="8.86896552" rx="0.73908046" ry="0.73908046"></ellipse>
                            <ellipse id="Oval" cx="31.0413793" cy="6.65172414" rx="0.73908046" ry="0.73908046"></ellipse>
                            <ellipse id="Oval" cx="32.5195402" cy="8.86896552" rx="0.73908046" ry="0.73908046"></ellipse>
                            <ellipse id="Oval" cx="28.0850575" cy="6.65172414" rx="0.73908046" ry="0.73908046"></ellipse>
                            <ellipse id="Oval" cx="29.5632184" cy="8.86896552" rx="0.73908046" ry="0.73908046"></ellipse>
                            <ellipse id="Oval" cx="25.1287356" cy="6.65172414" rx="0.73908046" ry="0.73908046"></ellipse>
                            <ellipse id="Oval" cx="26.6068966" cy="8.86896552" rx="0.73908046" ry="0.73908046"></ellipse>
                            <path d="M44.3448276,12.1150069 L44.3448276,3.40568276 C44.3448276,1.52767931 42.8171483,0 40.9391448,0 L3.40568276,0 C1.52767931,0 0,1.52767931 0,3.40568276 L0,12.1142678 C0,13.199977 0.519573563,14.1578253 1.31334598,14.7816092 C0.519573563,15.4053931 0,16.3632414 0,17.4482115 L0,26.1567966 C0,28.0355391 1.52767931,29.5632184 3.40568276,29.5632184 L21.4333333,29.5632184 L21.4333333,35.5505092 C19.987692,35.8454023 18.8465517,36.9865425 18.5516586,38.4321839 L0.73908046,38.4321839 C0.331108046,38.4321839 0,38.7625529 0,39.1712644 C0,39.5799759 0.331108046,39.9103448 0.73908046,39.9103448 L18.5516586,39.9103448 C18.895331,41.5947092 20.3875345,42.8666667 22.1724138,42.8666667 C23.9572931,42.8666667 25.4494966,41.5947092 25.793169,39.9103448 L43.6057471,39.9103448 C44.0137195,39.9103448 44.3448276,39.5799759 44.3448276,39.1712644 C44.3448276,38.7625529 44.0137195,38.4321839 43.6057471,38.4321839 L25.793169,38.4321839 C25.4982759,36.9865425 24.3571356,35.8454023 22.9114943,35.5505092 L22.9114943,29.5632184 L40.9391448,29.5632184 C42.8171483,29.5632184 44.3448276,28.0355391 44.3448276,26.1575356 L44.3448276,17.4482115 C44.3448276,16.3625023 43.825254,15.4053931 43.0314816,14.7816092 C43.825254,14.1578253 44.3448276,13.199977 44.3448276,12.1150069 L44.3448276,12.1150069 Z M24.3896552,39.1712644 C24.3896552,40.3937034 23.3948529,41.3885057 22.1724138,41.3885057 C20.9499747,41.3885057 19.9551724,40.3937034 19.9551724,39.1712644 C19.9551724,37.9488253 20.9499747,36.954023 22.1724138,36.954023 C23.3948529,36.954023 24.3896552,37.9488253 24.3896552,39.1712644 L24.3896552,39.1712644 Z M42.8666667,17.4482115 L42.8666667,26.1567966 C42.8666667,27.2203333 42.0019425,28.0850575 40.9391448,28.0850575 L3.40568276,28.0850575 C2.34288506,28.0850575 1.47816092,27.2203333 1.47816092,26.1575356 L1.47816092,17.4482115 C1.47816092,16.3854138 2.34288506,15.5206897 3.40568276,15.5206897 L40.9384057,15.5206897 C42.0019425,15.5206897 42.8666667,16.3854138 42.8666667,17.4482115 L42.8666667,17.4482115 Z M3.40568276,14.0425287 C2.34288506,14.0425287 1.47816092,13.1778046 1.47816092,12.1150069 L1.47816092,3.40568276 C1.47816092,2.34288506 2.34288506,1.47816092 3.40568276,1.47816092 L40.9384057,1.47816092 C42.0019425,1.47816092 42.8666667,2.34288506 42.8666667,3.40568276 L42.8666667,12.1142678 C42.8666667,13.1778046 42.0019425,14.0425287 40.9391448,14.0425287 L3.40568276,14.0425287 L3.40568276,14.0425287 Z" id="Shape"></path>
                            <path d="M7.76034483,25.1287356 C9.59400345,25.1287356 11.0862069,23.6365322 11.0862069,21.8028736 C11.0862069,19.9692149 9.59400345,18.4770115 7.76034483,18.4770115 C5.92668621,18.4770115 4.43448276,19.9692149 4.43448276,21.8028736 C4.43448276,23.6365322 5.92668621,25.1287356 7.76034483,25.1287356 L7.76034483,25.1287356 Z M7.76034483,19.9551724 C8.7787977,19.9551724 9.60804598,20.7836816 9.60804598,21.8028736 C9.60804598,22.8220655 8.7787977,23.6505747 7.76034483,23.6505747 C6.74189195,23.6505747 5.91264368,22.8220655 5.91264368,21.8028736 C5.91264368,20.7836816 6.74189195,19.9551724 7.76034483,19.9551724 L7.76034483,19.9551724 Z" id="Shape"></path>
                            <ellipse id="Oval" cx="36.954023" cy="20.6942529" rx="0.73908046" ry="0.73908046"></ellipse>
                            <ellipse id="Oval" cx="33.9977011" cy="20.6942529" rx="0.73908046" ry="0.73908046"></ellipse>
                            <ellipse id="Oval" cx="38.4321839" cy="22.9114943" rx="0.73908046" ry="0.73908046"></ellipse>
                            <ellipse id="Oval" cx="35.4758621" cy="22.9114943" rx="0.73908046" ry="0.73908046"></ellipse>
                            <ellipse id="Oval" cx="31.0413793" cy="20.6942529" rx="0.73908046" ry="0.73908046"></ellipse>
                            <ellipse id="Oval" cx="32.5195402" cy="22.9114943" rx="0.73908046" ry="0.73908046"></ellipse>
                            <ellipse id="Oval" cx="28.0850575" cy="20.6942529" rx="0.73908046" ry="0.73908046"></ellipse>
                            <ellipse id="Oval" cx="29.5632184" cy="22.9114943" rx="0.73908046" ry="0.73908046"></ellipse>
                            <ellipse id="Oval" cx="25.1287356" cy="20.6942529" rx="0.73908046" ry="0.73908046"></ellipse>
                            <ellipse id="Oval" cx="26.6068966" cy="22.9114943" rx="0.73908046" ry="0.73908046"></ellipse>
                        </g>
                    </g>
                </g>
            </g>
        </g>
    </g>
</svg>