<?xml version="1.0" encoding="UTF-8" standalone="no"?>
<svg width="51px" height="41px" viewBox="0 0 51 41" version="1.1" xmlns="http://www.w3.org/2000/svg" xmlns:xlink="http://www.w3.org/1999/xlink">
    <!-- Generator: Sketch 3.8.3 (29802) - http://www.bohemiancoding.com/sketch -->
    <title>telephone</title>
    <desc>Created with Sketch.</desc>
    <defs></defs>
    <g id="Page-1" stroke="none" stroke-width="1" fill="none" fill-rule="evenodd">
        <g id="icons" transform="translate(-570.000000, -493.000000)" fill="#000000">
            <g id="telephone" transform="translate(570.500000, 493.500000)">
                <g id="Group">
                    <g>
                        <path d="M46.1580381,3.48773842 L18.9947684,3.48773842 C18.6116621,1.50354223 16.8627793,0 14.7683924,0 L7.79291553,0 C5.67520436,0 3.91095368,1.53754768 3.55455041,3.55455041 C1.53754768,3.91095368 0,5.67520436 0,7.79291553 L0,35.6948229 C0,38.0686649 1.93133515,40 4.30517711,40 L46.1580381,40 C48.5318801,40 50.4632153,38.0686649 50.4632153,35.6948229 L50.4632153,7.79291553 C50.4632153,5.41907357 48.5318801,3.48773842 46.1580381,3.48773842 L46.1580381,3.48773842 Z M7.79291553,1.63487738 L14.7683924,1.63487738 C16.239564,1.63487738 17.4367302,2.83084469 17.4385831,4.30168937 C17.4385831,4.30288828 17.4383651,4.3039782 17.4383651,4.30517711 C17.4383651,4.30692098 17.4385831,4.30866485 17.4385831,4.31040872 L17.4385831,32.2070845 C17.4385831,33.679455 16.240654,34.8773842 14.7682834,34.8773842 L7.79280654,34.8773842 C6.32054496,34.8773842 5.1226158,33.679455 5.1226158,32.2070845 L5.1226158,4.30517711 C5.1226158,2.83280654 6.32054496,1.63487738 7.79291553,1.63487738 L7.79291553,1.63487738 Z M46.1580381,38.3651226 L4.30517711,38.3651226 C2.83280654,38.3651226 1.63487738,37.1671935 1.63487738,35.6948229 L1.63487738,7.79291553 C1.63487738,6.60555858 2.41405995,5.5972752 3.48773842,5.25111717 L3.48773842,32.2070845 C3.48773842,34.5809264 5.41907357,36.5122616 7.79291553,36.5122616 L14.7683924,36.5122616 C17.1422343,36.5122616 19.0735695,34.5809264 19.0735695,32.2070845 L19.0735695,5.1226158 L46.1580381,5.1226158 C47.6304087,5.1226158 48.8283379,6.32054496 48.8283379,7.79291553 L48.8283379,35.6948229 C48.8283379,37.1671935 47.6304087,38.3651226 46.1580381,38.3651226 L46.1580381,38.3651226 Z" id="Shape"></path>
                        <path d="M42.6702997,7.84741144 L25.2316076,7.84741144 C23.8192916,7.84741144 22.6702997,8.99640327 22.6702997,10.4087193 L22.6702997,13.8964578 C22.6702997,15.3087738 23.8192916,16.4577657 25.2316076,16.4577657 L42.6702997,16.4577657 C44.0826158,16.4577657 45.2316076,15.3087738 45.2316076,13.8964578 L45.2316076,10.4087193 C45.2316076,8.99640327 44.0826158,7.84741144 42.6702997,7.84741144 L42.6702997,7.84741144 Z M43.5967302,13.8964578 C43.5967302,14.4073025 43.1811444,14.8228883 42.6702997,14.8228883 L25.2316076,14.8228883 C24.7207629,14.8228883 24.3051771,14.4073025 24.3051771,13.8964578 L24.3051771,10.4087193 C24.3051771,9.89787466 24.7207629,9.48228883 25.2316076,9.48228883 L42.6702997,9.48228883 C43.1811444,9.48228883 43.5967302,9.89787466 43.5967302,10.4087193 L43.5967302,13.8964578 L43.5967302,13.8964578 Z" id="Shape"></path>
                        <path d="M27.2861035,19.3106267 C26.7346993,19.3106267 26.2861035,19.7592224 26.2861035,20.3106267 C26.2861035,20.862031 26.7346993,21.3106267 27.2861035,21.3106267 C27.8375078,21.3106267 28.2861035,20.862031 28.2861035,20.3106267 C28.2861035,19.7592224 27.8375078,19.3106267 27.2861035,19.3106267 L27.2861035,19.3106267 Z M27.2861035,20.6723288 C27.0866567,20.6723288 26.9244014,20.5100735 26.9244014,20.3106267 C26.9244014,20.1111799 27.0866567,19.9489246 27.2861035,19.9489246 C27.4855504,19.9489246 27.6478057,20.1111799 27.6478057,20.3106267 C27.6478057,20.5100735 27.4855504,20.6723288 27.2861035,20.6723288 L27.2861035,20.6723288 Z" id="Shape"></path>
                        <path d="M33.3896458,19.3106267 C32.8382415,19.3106267 32.3896458,19.7592224 32.3896458,20.3106267 C32.3896458,20.862031 32.8382415,21.3106267 33.3896458,21.3106267 C33.94105,21.3106267 34.3896458,20.862031 34.3896458,20.3106267 C34.3896458,19.7592224 33.94105,19.3106267 33.3896458,19.3106267 L33.3896458,19.3106267 Z M33.3896458,20.6723288 C33.190199,20.6723288 33.0279436,20.5100735 33.0279436,20.3106267 C33.0279436,20.1111799 33.190199,19.9489246 33.3896458,19.9489246 C33.5890926,19.9489246 33.7513479,20.1111799 33.7513479,20.3106267 C33.7513479,20.5100735 33.5890926,20.6723288 33.3896458,20.6723288 L33.3896458,20.6723288 Z" id="Shape"></path>
                        <path d="M39.493188,19.3106267 C38.9417838,19.3106267 38.493188,19.7592224 38.493188,20.3106267 C38.493188,20.862031 38.9417838,21.3106267 39.493188,21.3106267 C40.0445923,21.3106267 40.493188,20.862031 40.493188,20.3106267 C40.493188,19.7592224 40.0445923,19.3106267 39.493188,19.3106267 L39.493188,19.3106267 Z M39.493188,20.6723288 C39.2937412,20.6723288 39.1314859,20.5100735 39.1314859,20.3106267 C39.1314859,20.1111799 39.2937412,19.9489246 39.493188,19.9489246 C39.6926348,19.9489246 39.8548901,20.1111799 39.8548901,20.3106267 C39.8548901,20.5100735 39.6926348,20.6723288 39.493188,20.6723288 L39.493188,20.6723288 Z" id="Shape"></path>
                        <path d="M27.2861035,25.4141689 C26.7346993,25.4141689 26.2861035,25.8627647 26.2861035,26.4141689 C26.2861035,26.9655732 26.7346993,27.4141689 27.2861035,27.4141689 C27.8375078,27.4141689 28.2861035,26.9655732 28.2861035,26.4141689 C28.2861035,25.8627647 27.8375078,25.4141689 27.2861035,25.4141689 L27.2861035,25.4141689 Z M27.2861035,26.7758711 C27.0866567,26.7758711 26.9244014,26.6136157 26.9244014,26.4141689 C26.9244014,26.2147221 27.0866567,26.0524668 27.2861035,26.0524668 C27.4855504,26.0524668 27.6478057,26.2147221 27.6478057,26.4141689 C27.6478057,26.6136157 27.4855504,26.7758711 27.2861035,26.7758711 L27.2861035,26.7758711 Z" id="Shape"></path>
                        <path d="M33.3896458,25.4141689 C32.8382415,25.4141689 32.3896458,25.8627647 32.3896458,26.4141689 C32.3896458,26.9655732 32.8382415,27.4141689 33.3896458,27.4141689 C33.94105,27.4141689 34.3896458,26.9655732 34.3896458,26.4141689 C34.3896458,25.8627647 33.94105,25.4141689 33.3896458,25.4141689 L33.3896458,25.4141689 Z M33.3896458,26.7758711 C33.190199,26.7758711 33.0279436,26.6136157 33.0279436,26.4141689 C33.0279436,26.2147221 33.190199,26.0524668 33.3896458,26.0524668 C33.5890926,26.0524668 33.7513479,26.2147221 33.7513479,26.4141689 C33.7513479,26.6136157 33.5890926,26.7758711 33.3896458,26.7758711 L33.3896458,26.7758711 Z" id="Shape"></path>
                        <path d="M39.493188,25.4141689 C38.9417838,25.4141689 38.493188,25.8627647 38.493188,26.4141689 C38.493188,26.9655732 38.9417838,27.4141689 39.493188,27.4141689 C40.0445923,27.4141689 40.493188,26.9655732 40.493188,26.4141689 C40.493188,25.8627647 40.0445923,25.4141689 39.493188,25.4141689 L39.493188,25.4141689 Z M39.493188,26.7758711 C39.2937412,26.7758711 39.1314859,26.6136157 39.1314859,26.4141689 C39.1314859,26.2147221 39.2937412,26.0524668 39.493188,26.0524668 C39.6926348,26.0524668 39.8548901,26.2147221 39.8548901,26.4141689 C39.8548901,26.6136157 39.6926348,26.7758711 39.493188,26.7758711 L39.493188,26.7758711 Z" id="Shape"></path>
                        <path d="M27.2861035,31.5177112 C26.7346993,31.5177112 26.2861035,31.9663069 26.2861035,32.5177112 C26.2861035,33.0691154 26.7346993,33.5177112 27.2861035,33.5177112 C27.8375078,33.5177112 28.2861035,33.0691154 28.2861035,32.5177112 C28.2861035,31.9663069 27.8375078,31.5177112 27.2861035,31.5177112 L27.2861035,31.5177112 Z M27.2861035,32.8794133 C27.0866567,32.8794133 26.9244014,32.717158 26.9244014,32.5177112 C26.9244014,32.3182644 27.0866567,32.156009 27.2861035,32.156009 C27.4855504,32.156009 27.6478057,32.3182644 27.6478057,32.5177112 C27.6478057,32.717158 27.4855504,32.8794133 27.2861035,32.8794133 L27.2861035,32.8794133 Z" id="Shape"></path>
                        <path d="M33.3896458,31.5177112 C32.8382415,31.5177112 32.3896458,31.9663069 32.3896458,32.5177112 C32.3896458,33.0691154 32.8382415,33.5177112 33.3896458,33.5177112 C33.94105,33.5177112 34.3896458,33.0691154 34.3896458,32.5177112 C34.3896458,31.9663069 33.94105,31.5177112 33.3896458,31.5177112 L33.3896458,31.5177112 Z M33.3896458,32.8794133 C33.190199,32.8794133 33.0279436,32.717158 33.0279436,32.5177112 C33.0279436,32.3182644 33.190199,32.156009 33.3896458,32.156009 C33.5890926,32.156009 33.7513479,32.3182644 33.7513479,32.5177112 C33.7513479,32.717158 33.5890926,32.8794133 33.3896458,32.8794133 L33.3896458,32.8794133 Z" id="Shape"></path>
                        <path d="M39.493188,31.5177112 C38.9417838,31.5177112 38.493188,31.9663069 38.493188,32.5177112 C38.493188,33.0691154 38.9417838,33.5177112 39.493188,33.5177112 C40.0445923,33.5177112 40.493188,33.0691154 40.493188,32.5177112 C40.493188,31.9663069 40.0445923,31.5177112 39.493188,31.5177112 L39.493188,31.5177112 Z M39.493188,32.8794133 C39.2937412,32.8794133 39.1314859,32.717158 39.1314859,32.5177112 C39.1314859,32.3182644 39.2937412,32.156009 39.493188,32.156009 C39.6926348,32.156009 39.8548901,32.3182644 39.8548901,32.5177112 C39.8548901,32.717158 39.6926348,32.8794133 39.493188,32.8794133 L39.493188,32.8794133 Z" id="Shape"></path>
                    </g>
                </g>
            </g>
        </g>
    </g>
</svg>