<?xml version="1.0" encoding="UTF-8" standalone="no"?>
<svg width="47px" height="46px" viewBox="0 0 47 46" version="1.1" xmlns="http://www.w3.org/2000/svg" xmlns:xlink="http://www.w3.org/1999/xlink">
    <!-- Generator: Sketch 41 (35326) - http://www.bohemiancoding.com/sketch -->
    <title>vacuum-cleaner</title>
    <desc>Created with Sketch.</desc>
    <defs></defs>
    <g id="Page-1" stroke="none" stroke-width="1" fill="none" fill-rule="evenodd">
        <g id="сервис-аренда-общая" transform="translate(-443.000000, -816.000000)" fill="#000000">
            <g id="Group" transform="translate(120.000000, 490.000000)">
                <g id="ВИРТУАЛЬНЫЙ-ОФИС-+-почта,-телефон,-секр-+-Page-1-Copy-10" transform="translate(17.000000, 326.000000)">
                    <g id="vacuum-cleaner" transform="translate(306.000000, 0.500000)">
                        <g transform="translate(0.598055, 0.031102)" id="Capa_1">
                            <g>
                                <g id="Group">
                                    <path d="M20.4514706,40.1448342 L9.84857517,40.1448342 C9.43051815,40.1448342 9.09122549,40.4833695 9.09122549,40.9021839 C9.09122549,41.3209982 9.43051815,41.6595335 9.84857517,41.6595335 L20.4514706,41.6595335 C20.8695276,41.6595335 21.2088203,41.3209982 21.2088203,40.9021839 C21.2088203,40.4833695 20.8695276,40.1448342 20.4514706,40.1448342 Z" id="Shape"></path>
                                    <path d="M20.4514706,37.1154355 L9.84857517,37.1154355 C9.43051815,37.1154355 9.09122549,37.4539708 9.09122549,37.8727852 C9.09122549,38.2915995 9.43051815,38.6301348 9.84857517,38.6301348 L20.4514706,38.6301348 C20.8695276,38.6301348 21.2088203,38.2915995 21.2088203,37.8727852 C21.2088203,37.4539708 20.8695276,37.1154355 20.4514706,37.1154355 Z" id="Shape"></path>
                                    <path d="M15.1500229,17.424344 C10.9739968,17.424344 7.57652614,21.1618646 7.57652614,25.7551904 C7.57652614,30.3485162 10.9739968,34.0860368 15.1500229,34.0860368 C19.326049,34.0860368 22.7235196,30.3485162 22.7235196,25.7551904 C22.7235196,21.1618646 19.326049,17.424344 15.1500229,17.424344 Z M15.1500229,32.5713375 C11.8093535,32.5713375 9.09122549,29.5139168 9.09122549,25.7551904 C9.09122549,21.9964639 11.8093535,18.9390433 15.1500229,18.9390433 C18.4906923,18.9390433 21.2088203,21.9964639 21.2088203,25.7551904 C21.2088203,29.5139168 18.4906923,32.5713375 15.1500229,32.5713375 Z" id="Shape"></path>
                                    <path d="M15.1500229,20.4537427 C13.4793095,20.4537427 12.1206242,21.812428 12.1206242,23.4831414 C12.1206242,25.1538547 13.4793095,26.5125401 15.1500229,26.5125401 C16.8207363,26.5125401 18.1794216,25.1538547 18.1794216,23.4831414 C18.1794216,21.812428 16.8199789,20.4537427 15.1500229,20.4537427 Z M15.1500229,24.9978407 C14.3146662,24.9978407 13.6353235,24.318498 13.6353235,23.4831414 C13.6353235,22.6477847 14.3146662,21.968442 15.1500229,21.968442 C15.9853796,21.968442 16.6647222,22.6477847 16.6647222,23.4831414 C16.6647222,24.318498 15.9853796,24.9978407 15.1500229,24.9978407 Z" id="Shape"></path>
                                    <path d="M44.6866602,43.9315826 L43.9293105,43.9315826 L43.9293105,41.6595335 L40.8999118,41.6595335 L40.8999118,38.6301348 L39.3852125,38.6301348 L39.3852125,27.2698897 L39.3852125,22.7257917 L39.3852125,20.1401999 L41.6784673,17.8469451 C43.6187972,15.9073726 44.6866602,13.3285969 44.6866602,10.5847191 L44.6866602,8.33614787 L44.6866602,6.82144852 L44.6866602,4.46912043 C44.6866602,3.04075894 43.9959573,1.7350881 42.8402417,0.97622373 C41.0862198,-0.175705124 39.115596,-0.313542765 37.4320077,0.593762145 C35.8339998,1.45714077 34.8411144,3.11725126 34.8411144,4.92883168 L34.8411144,18.2589433 L27.2676177,25.83244 L27.2676177,25.7559477 C27.2676177,20.6817049 24.1291606,16.3322457 19.6941209,14.5305109 L19.6941209,13.6383529 C19.6941209,11.1322829 17.656093,9.09425489 15.1500229,9.09425489 C12.6439528,9.09425489 10.6059248,11.1322829 10.6059248,13.6383529 L10.6059248,14.5305109 C7.49170298,15.7960422 5.02804449,18.3195313 3.83067465,21.4670765 C1.46774367,22.817431 0.0030293987,25.2954791 0.0030293987,28.0279968 C0.0030293987,30.417435 1.13450981,32.6379842 3.0324281,34.0678604 L3.0324281,36.3588432 L3.0324281,37.8735425 L3.0324281,45.4470393 L7.57652614,45.4470393 L7.57652614,43.9323399 L22.7235196,43.9323399 L22.7235196,45.4470393 L27.2676177,45.4470393 L27.2676177,37.8735425 L27.2676177,36.3588432 L27.2676177,32.258552 L34.8411144,24.6850553 L34.8411144,27.2706471 L34.8411144,38.6308922 L33.3264151,38.6308922 L33.3264151,41.6602909 L30.2970164,41.6602909 L30.2970164,43.9323399 L29.5396667,43.9323399 C29.1216097,43.9323399 28.782317,44.2708752 28.782317,44.6896896 C28.782317,45.108504 29.1216097,45.4470393 29.5396667,45.4470393 L30.2970164,45.4470393 L43.9293105,45.4470393 L44.6866602,45.4470393 C45.1047172,45.4470393 45.4440099,45.108504 45.4440099,44.6896896 C45.4440099,44.2708752 45.1047172,43.9315826 44.6866602,43.9315826 Z M37.8705131,25.7551904 L36.3558138,25.7551904 L36.3558138,24.240491 L37.8705131,24.240491 L37.8705131,25.7551904 Z M40.1425621,6.82144852 L40.1425621,8.33614787 L40.1425621,9.32979064 C40.1425621,10.5544251 39.8767324,11.756339 39.3852125,12.8643416 L39.3852125,4.92807433 C39.3852125,4.71980317 39.5548588,4.54939949 39.7638873,4.54939949 C39.9729158,4.54939949 40.1425621,4.71980317 40.1425621,4.92807433 L40.1425621,6.82144852 Z M43.1719608,10.5847191 C43.1719608,12.9234148 42.2608692,15.122001 40.6075748,16.7760526 L39.3852125,17.998415 L39.3852125,15.7619614 C40.8521988,13.9375061 41.6572615,11.6646997 41.6572615,9.32979064 L41.6572615,8.33614787 L43.1719608,8.33614787 L43.1719608,10.5847191 Z M36.3558138,4.92807433 C36.3558138,3.67466062 37.0442446,2.52424647 38.1514899,1.92594022 C39.3284112,1.29052385 40.7348096,1.405641 42.0086717,2.24175504 C42.7266392,2.71282653 43.1719608,3.56635962 43.1719608,4.46836308 L43.1719608,6.82069117 L41.6572615,6.82069117 L41.6572615,4.92731698 C41.6572615,3.88293178 40.8075152,3.0339428 39.7638873,3.0339428 C38.7202595,3.0339428 37.8705131,3.88293178 37.8705131,4.92731698 L37.8705131,15.2090962 L37.8705131,21.6541419 L37.8705131,22.7250343 L36.3558138,22.7250343 L36.3558138,16.7427293 L36.3558138,4.92807433 L36.3558138,4.92807433 Z M12.1206242,14.0314174 L12.1206242,13.6375956 C12.1206242,11.9668822 13.4793095,10.6081969 15.1500229,10.6081969 C16.8207363,10.6081969 18.1794216,11.9668822 18.1794216,13.6375956 L18.1794216,14.0314174 C18.1180763,14.0155131 18.0559736,14.0041528 17.9946283,13.9890058 C17.8083202,13.9435649 17.6235269,13.8966092 17.4341895,13.8610137 C17.1350364,13.8026978 16.8351259,13.7587715 16.5337007,13.7231761 C16.4269144,13.7110585 16.3193708,13.701213 16.2110698,13.6921248 C15.8573875,13.6603161 15.5037052,13.6383529 15.1492655,13.6383529 C14.7948259,13.6383529 14.4411436,13.6603161 14.0874613,13.6921248 C13.9799176,13.701213 13.872374,13.7110585 13.7648303,13.7231761 C13.4641625,13.7587715 13.1634947,13.8026978 12.8643416,13.8610137 C12.6750042,13.8973665 12.4902108,13.9443222 12.3039028,13.9890058 C12.2433148,14.0041528 12.1812122,14.0147557 12.1206242,14.0314174 Z M1.51772875,28.0272394 C1.51772875,26.4428639 2.12966728,24.9607306 3.18692743,23.852728 C3.16950839,23.9617864 3.16193489,24.0708447 3.1467879,24.1799031 C3.12558211,24.3419759 3.10210427,24.502534 3.08771462,24.6668789 C3.05439124,25.028892 3.0324281,25.3916625 3.0324281,25.7551904 L3.0324281,32.0336192 C2.06604991,30.9400063 1.51772875,29.5222477 1.51772875,28.0272394 Z M4.54712745,43.9315826 L4.54712745,37.8727852 L6.06182679,37.8727852 L6.06182679,43.9315826 L4.54712745,43.9315826 Z M25.7529183,43.9315826 L24.238219,43.9315826 L24.238219,37.8727852 L25.7529183,37.8727852 L25.7529183,43.9315826 Z M25.7529183,36.3580858 L22.7235196,36.3580858 L22.7235196,42.4168832 L7.57652614,42.4168832 L7.57652614,36.3580858 L4.54712745,36.3580858 L4.54712745,35.1122456 L4.54712745,25.7551904 C4.54712745,25.4280153 4.56681854,25.1061417 4.59635517,24.7865401 C4.61225952,24.6146218 4.63876676,24.4434607 4.6637593,24.2722997 C4.68269304,24.1405209 4.70086943,24.0079847 4.72434727,23.8777205 C4.7660015,23.6505156 4.81522923,23.4240681 4.87278781,23.1991352 C4.8879348,23.1393046 4.90308179,23.079474 4.91898614,23.0196434 C4.98790496,22.7644165 5.06515462,22.509947 5.15376453,22.2569922 C6.21708348,19.2268362 8.6156099,16.8267951 11.6442512,15.7604467 C11.9025075,15.6695648 12.1630358,15.5908004 12.4243214,15.5203669 C12.4727918,15.5074919 12.5220195,15.4953743 12.5704899,15.4824994 C12.8120844,15.4211541 13.0544363,15.3681396 13.2975456,15.3249707 C13.3891849,15.3090663 13.4823389,15.2961914 13.5754929,15.2825591 C13.7890655,15.249993 14.0018808,15.2189417 14.2162107,15.1992506 C14.381313,15.184861 14.5494446,15.1810742 14.7168189,15.1742581 C15.0068838,15.1621405 15.2969487,15.1621405 15.5870137,15.1742581 C15.7543879,15.1810742 15.9225196,15.184861 16.0876218,15.1992506 C16.3011944,15.2189417 16.514767,15.2492357 16.7283396,15.2825591 C16.8207363,15.2961914 16.9146476,15.3090663 17.0062869,15.3249707 C17.2493962,15.3688969 17.4917481,15.4219114 17.7325853,15.4824994 C17.781813,15.494617 17.8302834,15.5074919 17.8787538,15.5203669 C18.1400394,15.5908004 18.4005677,15.6695648 18.6588239,15.7604467 C22.784865,17.2130434 25.754433,21.1383868 25.754433,25.7551904 L25.754433,27.346382 L25.754433,33.772494 L25.754433,36.3580858 L25.7529183,36.3580858 Z M27.2676177,27.9734676 L34.8411144,20.3999708 L34.8411144,22.5425131 L27.2676177,30.1160098 L27.2676177,27.9734676 Z M36.3558138,27.2698897 L37.8705131,27.2698897 L37.8705131,38.6301348 L36.3558138,38.6301348 L36.3558138,27.2698897 Z M34.8411144,40.1448342 L39.3852125,40.1448342 L39.3852125,41.6595335 L34.8411144,41.6595335 L34.8411144,40.1448342 Z M31.8117157,43.9315826 L31.8117157,43.1742329 L33.3264151,43.1742329 L40.8999118,43.1742329 L42.4146112,43.1742329 L42.4146112,43.9315826 L31.8117157,43.9315826 Z" id="Shape"></path>
                                </g>
                            </g>
                        </g>
                    </g>
                </g>
            </g>
        </g>
    </g>
</svg>