<?xml version="1.0" encoding="UTF-8" standalone="no"?>
<svg width="50px" height="49px" viewBox="0 0 50 49" version="1.1" xmlns="http://www.w3.org/2000/svg" xmlns:xlink="http://www.w3.org/1999/xlink">
    <!-- Generator: Sketch 3.8.3 (29802) - http://www.bohemiancoding.com/sketch -->
    <title>videoconf</title>
    <desc>Created with Sketch.</desc>
    <defs>
        <rect id="path-1" x="0" y="3" width="50" height="33"></rect>
        <mask id="mask-2" maskContentUnits="userSpaceOnUse" maskUnits="objectBoundingBox" x="0" y="0" width="50" height="33" fill="white">
            <use xlink:href="#path-1"></use>
        </mask>
        <rect id="path-3" x="0" y="0" width="50" height="41"></rect>
        <mask id="mask-4" maskContentUnits="userSpaceOnUse" maskUnits="objectBoundingBox" x="0" y="0" width="50" height="41" fill="white">
            <use xlink:href="#path-3"></use>
        </mask>
        <rect id="path-5" x="16" y="46.5100964" width="18" height="2"></rect>
        <mask id="mask-6" maskContentUnits="userSpaceOnUse" maskUnits="objectBoundingBox" x="0" y="0" width="18" height="2" fill="white">
            <use xlink:href="#path-5"></use>
        </mask>
        <rect id="path-7" x="18" y="39.5100964" width="14" height="9"></rect>
        <mask id="mask-8" maskContentUnits="userSpaceOnUse" maskUnits="objectBoundingBox" x="0" y="0" width="14" height="9" fill="white">
            <use xlink:href="#path-7"></use>
        </mask>
    </defs>
    <g id="Page-1" stroke="none" stroke-width="1" fill="none" fill-rule="evenodd">
        <g id="услуги" transform="translate(-1004.000000, -2228.000000)">
            <g id="Group-4-Copy" transform="translate(934.000000, 2228.500000)">
                <g id="videoconf" transform="translate(70.000000, 0.000000)">
                    <g id="Group-3">
                        <g>
                            <use id="Rectangle-611" stroke="#000000" mask="url(#mask-2)" stroke-width="3" xlink:href="#path-1"></use>
                            <use id="Rectangle-611-Copy" stroke="#000000" mask="url(#mask-4)" stroke-width="3" xlink:href="#path-3"></use>
                            <use id="Rectangle-611-Copy-2" stroke="#000000" mask="url(#mask-6)" stroke-width="3" xlink:href="#path-5"></use>
                            <use id="Rectangle-611-Copy-3" stroke="#000000" mask="url(#mask-8)" stroke-width="3" xlink:href="#path-7"></use>
                            <g id="avatar-(2)" transform="translate(11.843038, 6.859401)" fill="#000000">
                                <path d="M22.5705453,20.4725666 L18.2573505,19.3524078 C18.241258,19.3271254 18.223574,19.3027635 18.202471,19.2807948 L16.917726,17.9427899 L16.917726,16.6619773 C17.0246554,16.5488201 17.1293449,16.4313673 17.2312049,16.3089439 C18.4299467,14.8677843 19.1506889,12.9262535 19.2607426,10.8419876 C19.2651636,10.7583469 19.2692309,10.6748904 19.2732393,10.5914952 C19.2866202,10.3157204 19.2992348,10.0552869 19.324523,9.79246012 L19.749883,5.36392424 C19.8813343,3.99505274 19.4482523,2.62507667 18.5615748,1.60506581 C17.6748973,0.584993591 16.4083668,4.39589106e-13 15.0868979,4.39589106e-13 L10.3191644,4.39589106e-13 C8.99769549,4.39589106e-13 7.73122392,0.584993591 6.8444875,1.60500445 C5.95775109,2.6250153 5.52466909,3.99511411 5.65612041,5.36392424 L6.08118564,9.78945323 C6.10653276,10.0532618 6.11932421,10.3159045 6.13282302,10.5940112 C6.13683141,10.67667 6.14083979,10.7593288 6.14520185,10.8419876 C6.25525549,12.9262535 6.97599777,14.8677843 8.17473949,16.3089439 C8.27654058,16.4313673 8.38128901,16.5487587 8.48821847,16.6619773 L8.48821847,17.9427899 L7.20341445,19.2807334 C7.18284202,19.3021498 7.16551167,19.3257754 7.14971393,19.3503214 L2.83528119,20.4726279 C1.0069289,20.948453 0,22.1166606 0,23.7620433 L0,26.9699657 C0,27.7651348 0.621416958,28.4120458 1.38524934,28.4120458 L24.020813,28.4120458 C24.7846454,28.4120458 25.4060623,27.7651348 25.4060623,26.9699657 L25.4060623,23.7619819 C25.4060623,22.1166606 24.3991334,20.948453 22.5705453,20.4725666 L22.5705453,20.4725666 Z M12.2314569,25.4665206 L13.1746054,25.4665206 C13.2074977,25.4665206 13.2399774,25.4648637 13.2723392,25.4625318 L13.6040916,27.4915692 L11.8019707,27.4915692 L12.1337232,25.4625318 C12.1660849,25.4648637 12.1985646,25.4665206 12.2314569,25.4665206 L12.2314569,25.4665206 Z M13.675653,24.0244405 C13.675653,24.3120587 13.450889,24.5460439 13.1746054,24.5460439 L12.2314569,24.5460439 C11.9551734,24.5460439 11.7304093,24.3120587 11.7304093,24.0244405 L11.7304093,23.2889183 L12.7030312,22.6139021 L13.675653,23.2889183 L13.675653,24.0244405 L13.675653,24.0244405 Z M9.37253807,17.4511326 C10.3726291,18.1953687 11.5165504,18.5936283 12.7030312,18.5936283 C13.889512,18.5936283 15.0334332,18.1953687 16.0335242,17.4511326 L16.0335242,17.9427899 L12.7030312,21.4099186 L9.37253807,17.9427899 L9.37253807,17.4511326 L9.37253807,17.4511326 Z M14.3655072,22.6613987 C14.3650356,22.6610918 14.3645641,22.660785 14.3640925,22.6604168 L13.3969527,21.9892052 L16.4755662,18.7842897 L17.3422017,19.6867863 C17.0497667,20.2360654 16.3629778,21.522769 15.3933033,23.3380104 C15.3914759,23.3414468 15.3876444,23.3485652 15.3767982,23.3513266 C15.3643015,23.3545176 15.3553415,23.3483197 15.3523942,23.3462946 L14.3655072,22.6613987 L14.3655072,22.6613987 Z M7.50009359,2.22264428 C8.2194801,1.39507441 9.24704038,0.920476647 10.3191644,0.920476647 L15.0868979,0.920476647 C16.1590809,0.920476647 17.1865822,1.39507441 17.9060277,2.22264428 C18.6254142,3.05015278 18.9767959,4.16172038 18.8701023,5.27224477 L18.6008923,8.0746666 C18.0035256,6.5926992 17.3426143,5.64344232 17.3037095,5.58815236 C17.1628267,5.38804073 16.8947367,5.34029868 16.6979724,5.48021113 C15.5361313,6.30594004 10.3616061,6.41105848 8.46540607,6.38197142 C8.33749156,6.37945545 8.2149412,6.43578862 8.12958626,6.53507736 C7.5878064,7.16462203 7.16156223,7.87246857 6.84537171,8.49317665 L6.536019,5.27230614 C6.42926638,4.16178174 6.78070709,3.05021415 7.50009359,2.22264428 L7.50009359,2.22264428 Z M7.02816567,10.7914841 C7.02386256,10.710114 7.01991312,10.6288052 7.01596369,10.5474351 C7.01325214,10.4911633 7.01042269,10.4342164 7.0075343,10.3772083 C7.10279229,10.0956651 7.65541836,8.5439256 8.65833888,7.3048413 C9.88166141,7.31600975 14.8781674,7.3076641 16.7998324,6.45923009 C17.1787423,7.0814723 17.9775891,8.53809591 18.3989996,10.3666535 C18.3959344,10.4264231 18.393046,10.48607 18.3901576,10.5450418 C18.3861492,10.627087 18.3821998,10.7091935 18.3778377,10.7914841 C18.1741176,14.6503677 15.6814351,17.6731516 12.7030312,17.6731516 C9.72462719,17.6731516 7.23194469,14.6503677 7.02816567,10.7914841 L7.02816567,10.7914841 Z M8.93049617,18.7842897 L12.0091097,21.9892052 L11.041793,22.6605395 C11.0414393,22.660785 11.0410267,22.6610918 11.040673,22.6613373 L10.0536681,23.346356 C10.0507797,23.3484424 10.0418198,23.3545789 10.0292642,23.351388 C10.0184179,23.3486879 10.0145864,23.3415082 10.012818,23.3381331 C9.04314346,21.5228304 8.35635452,20.2361268 8.06391955,19.6868477 L8.93049617,18.7842897 L8.93049617,18.7842897 Z M0.884201705,26.9699657 L0.884201705,23.7620433 C0.884201705,22.5458482 1.61278391,21.739572 3.04967063,21.365613 L7.35119403,20.2468043 C7.60607991,20.7259431 8.13459674,21.7160078 9.24008466,23.7854847 C9.36328343,24.0160948 9.57513815,24.1839898 9.82118202,24.2459685 C9.89168237,24.2637644 9.9634206,24.2724782 10.034982,24.2724782 C10.214416,24.2724782 10.3923763,24.2174951 10.5441643,24.1121926 L10.8462665,23.902508 L10.8462665,24.0243791 C10.8462665,24.4454665 11.0205722,24.824887 11.2979757,25.0888183 L10.9050954,27.4915692 L5.12836989,27.4915692 L5.12836989,25.0062822 C5.12836989,24.7521079 4.9304266,24.5460439 4.68626904,24.5460439 C4.44211147,24.5460439 4.24416818,24.7521079 4.24416818,25.0062822 L4.24416818,27.4915692 L1.38524934,27.4915692 C1.10896578,27.4915692 0.884201705,27.257584 0.884201705,26.9699657 L0.884201705,26.9699657 Z M24.5218606,26.9699657 C24.5218606,27.257584 24.2970965,27.4915692 24.020813,27.4915692 L21.1618941,27.4915692 L21.1618941,25.0062822 C21.1618941,24.7521079 20.9639508,24.5460439 20.7197933,24.5460439 C20.4756357,24.5460439 20.2776924,24.7521079 20.2776924,25.0062822 L20.2776924,27.4915692 L14.5009669,27.4915692 L14.1080866,25.0888797 C14.3854902,24.8250097 14.5597958,24.4455279 14.5597958,24.0244405 L14.5597958,23.9025694 L14.861898,24.1122539 C15.013686,24.2176178 15.1916463,24.2725396 15.3710803,24.2725396 C15.4426417,24.2725396 15.5144389,24.2637644 15.5848803,24.2460299 C15.8309242,24.1839898 16.0427789,24.0161562 16.1659777,23.7854847 C17.2702866,21.7181556 17.7988624,20.7280295 18.054043,20.2482771 L22.3562738,21.365613 C23.7932784,21.739572 24.5218606,22.5458482 24.5218606,23.7619819 L24.5218606,26.9699657 L24.5218606,26.9699657 Z" id="Shape"></path>
                            </g>
                        </g>
                    </g>
                </g>
            </g>
        </g>
    </g>
</svg>