<?xml version="1.0" encoding="UTF-8" standalone="no"?>
<svg width="50px" height="49px" viewBox="0 0 50 49" version="1.1" xmlns="http://www.w3.org/2000/svg" xmlns:xlink="http://www.w3.org/1999/xlink">
    <!-- Generator: Sketch 3.8.3 (29802) - http://www.bohemiancoding.com/sketch -->
    <title>wifi</title>
    <desc>Created with Sketch.</desc>
    <defs></defs>
    <g id="Page-1" stroke="none" stroke-width="1" fill="none" fill-rule="evenodd">
        <g id="icons" transform="translate(-573.000000, -747.000000)" fill="#000000">
            <g id="wifi" transform="translate(573.500000, 747.000000)">
                <g id="Layer_1">
                    <g>
                        <g id="Group">
                            <path d="M45.6117021,0 C43.7433426,0 42.2234043,1.5199383 42.2234043,3.38829787 L42.2234043,19.287234 L39.6170213,19.287234 L39.6170213,17.462766 C39.6170213,14.7322149 37.3954447,12.5106383 34.6648936,12.5106383 L14.3351064,12.5106383 C11.6045553,12.5106383 9.38297872,14.7322149 9.38297872,17.462766 L9.38297872,19.287234 L6.77659574,19.287234 L6.77659574,3.38829787 C6.77659574,1.5199383 5.25655319,0 3.38829787,0 C1.52004255,0 0,1.5199383 0,3.38829787 L0,28.4095745 C0,28.8415043 0.350089362,29.1914894 0.781914894,29.1914894 L5.99468085,29.1914894 C6.42650638,29.1914894 6.77659574,28.8415043 6.77659574,28.4095745 L6.77659574,27.106383 L9.38297872,27.106383 L9.38297872,44.0478723 C9.38297872,46.7784234 11.6045553,49 14.3351064,49 L34.6648936,49 C37.3954447,49 39.6170213,46.7784234 39.6170213,44.0478723 L39.6170213,27.106383 L42.2234043,27.106383 L42.2234043,28.4095745 C42.2234043,28.8415043 42.5733894,29.1914894 43.0053191,29.1914894 L48.2180851,29.1914894 C48.6500149,29.1914894 49,28.8415043 49,28.4095745 L49,3.38829787 C49,1.5199383 47.4800617,0 45.6117021,0 L45.6117021,0 Z M9.38297872,25.5425532 L6.77659574,25.5425532 L6.77659574,24.7606383 C6.77659574,24.3287085 6.42650638,23.9787234 5.99468085,23.9787234 C5.56285532,23.9787234 5.21276596,24.3287085 5.21276596,24.7606383 L5.21276596,27.6276596 L1.56382979,27.6276596 L1.56382979,3.38829787 C1.56382979,2.3823383 2.3823383,1.56382979 3.38829787,1.56382979 C4.39425745,1.56382979 5.21276596,2.3823383 5.21276596,3.38829787 L5.21276596,21.6329787 C5.21276596,22.0649085 5.56285532,22.4148936 5.99468085,22.4148936 C6.42650638,22.4148936 6.77659574,22.0649085 6.77659574,21.6329787 L6.77659574,20.8510638 L9.38297872,20.8510638 L9.38297872,25.5425532 L9.38297872,25.5425532 Z M38.0531915,44.0478723 C38.0531915,45.9162319 36.5332532,47.4361702 34.6648936,47.4361702 L14.3351064,47.4361702 C12.4668511,47.4361702 10.9468085,45.9162319 10.9468085,44.0478723 L10.9468085,17.462766 C10.9468085,15.5944064 12.4668511,14.0744681 14.3351064,14.0744681 L34.6648936,14.0744681 C36.5332532,14.0744681 38.0531915,15.5944064 38.0531915,17.462766 L38.0531915,44.0478723 L38.0531915,44.0478723 Z M47.4361702,27.6276596 L43.787234,27.6276596 L43.787234,24.7606383 C43.787234,24.3287085 43.4372489,23.9787234 43.0053191,23.9787234 C42.5733894,23.9787234 42.2234043,24.3287085 42.2234043,24.7606383 L42.2234043,25.5425532 L39.6170213,25.5425532 L39.6170213,20.8510638 L42.2234043,20.8510638 L42.2234043,21.6329787 C42.2234043,22.0649085 42.5733894,22.4148936 43.0053191,22.4148936 C43.4372489,22.4148936 43.787234,22.0649085 43.787234,21.6329787 L43.787234,3.38829787 C43.787234,2.3823383 44.6057426,1.56382979 45.6117021,1.56382979 C46.6176617,1.56382979 47.4361702,2.3823383 47.4361702,3.38829787 L47.4361702,27.6276596 L47.4361702,27.6276596 Z" id="Shape"></path>
                            <ellipse id="Oval" cx="19.287234" cy="39.0958489" rx="1.04255319" ry="1.04255319"></ellipse>
                            <ellipse id="Oval" cx="24.5" cy="39.0958489" rx="1.04255319" ry="1.04255319"></ellipse>
                            <ellipse id="Oval" cx="29.712766" cy="39.0958489" rx="1.04255319" ry="1.04255319"></ellipse>
                            <path d="M32.6297255,23.3344255 C30.2613574,21.608583 27.450217,20.6964532 24.5001043,20.6963489 C21.5499915,20.6963489 18.7385383,21.608583 16.3703787,23.3343213 C16.0213319,23.5886 15.9446,24.077766 16.1988787,24.4268128 C16.4531574,24.7758596 16.9422191,24.8524872 17.2913702,24.5983128 C21.5357085,21.5054745 27.4643957,21.5055787 31.708734,24.598417 C31.8477064,24.6997532 32.0088851,24.7484404 32.1686043,24.7484404 C32.4099553,24.7483362 32.6481787,24.6369915 32.8011213,24.426917 C33.0555043,24.0778702 32.9786681,23.5888085 32.6297255,23.3344255 L32.6297255,23.3344255 Z" id="Shape"></path>
                            <path d="M18.9788468,27.6989702 C19.138566,27.6989702 19.2997447,27.6500745 19.438717,27.5489468 C22.3796553,25.4057702 26.3707574,25.3514532 29.3702872,27.4137277 C29.7261106,27.6582064 30.2128787,27.568234 30.4576702,27.2123064 C30.7023574,26.856483 30.6120723,26.3697149 30.2562489,26.1249234 C26.7111511,23.6875383 21.9939106,23.7518638 18.5177255,26.2849553 C18.1686787,26.539234 18.0919468,27.0284 18.3462255,27.3774468 C18.4992723,27.587417 18.7373915,27.6989702 18.9788468,27.6989702 L18.9788468,27.6989702 Z" id="Shape"></path>
                            <path d="M28.1900128,29.1328979 C25.9174553,27.5706319 22.8935298,27.6116043 20.6650723,29.2354851 C20.3160255,29.4897638 20.2392936,29.9789298 20.4935723,30.3279766 C20.6466191,30.5380511 20.8847383,30.6495 21.1261936,30.6495 C21.2859128,30.6495 21.4470915,30.6006043 21.5860638,30.4994766 C23.2792745,29.2657191 25.5773745,29.234234 27.3040511,30.4217021 C27.6597702,30.6660766 28.1465383,30.5761043 28.391434,30.2202809 C28.636017,29.8644574 28.5458362,29.3775851 28.1900128,29.1328979 L28.1900128,29.1328979 Z" id="Shape"></path>
                        </g>
                    </g>
                </g>
            </g>
        </g>
    </g>
</svg>