<?xml version="1.0" encoding="UTF-8" standalone="no"?>
<svg width="1440px" height="10px" viewBox="0 0 1440 10" version="1.1" xmlns="http://www.w3.org/2000/svg" xmlns:xlink="http://www.w3.org/1999/xlink">
    <!-- Generator: sketchtool 3.7.2 (28276) - http://www.bohemiancoding.com/sketch -->
    <title>4A67F1D1-148E-42DF-A8FF-9C6D5B890F9F</title>
    <desc>Created with sketchtool.</desc>
    <defs>
        <rect id="path-1" x="0" y="0" width="480" height="10"></rect>
        <rect id="path-3" x="0" y="0" width="480" height="10"></rect>
        <rect id="path-5" x="0" y="0" width="480" height="10"></rect>
    </defs>
    <g id="Symbols" stroke="none" stroke-width="1" fill="none" fill-rule="evenodd">
        <g id="меню" transform="translate(0.000000, -50.000000)">
            <g id="Group">
                <g transform="translate(0.000000, 50.000000)">
                    <g id="Page-1">
                        <mask id="mask-2" fill="white">
                            <use xlink:href="#path-1"></use>
                        </mask>
                        <use id="Mask" fill="#D8D8D8" xlink:href="#path-1"></use>
                        <g mask="url(#mask-2)">
                            <g transform="translate(-10.666667, -1.222222)">
                                <polygon id="Fill-1" fill="#FFE600" points="390.448499 0.111111111 176 45.6666667 500 45.6666667 484.603019 0.111111111"></polygon>
                                <polygon id="Fill-2" fill="#40D5E7" points="88 45.6666667 580 45.6666667 580 0.111111111 88 0.111111111"></polygon>
                                <polygon id="Fill-3" fill="#008CCD" points="127.419912 0.111111111 112 45.6666667 382.666667 45.6666667 167.903056 0.111111111"></polygon>
                                <polygon id="Fill-4" fill="#7F3F98" points="234.676822 0.111111111 177.333333 45.6666667 432 45.6666667 374.654382 0.111111111"></polygon>
                                <polygon id="Fill-5" fill="#E62E65" points="345.04307 0.111111111 245.333333 45.6666667 461.333333 45.6666667 428.09533 0.111111111"></polygon>
                                <polygon id="Fill-6" fill="#FFE600" points="5.32907052e-15 0.111111111 5.32907052e-15 45.6666667 151.570759 45.6666667 184 0.111111111"></polygon>
                                <polygon id="Fill-7" fill="#40D5E7" points="5.32907052e-15 0.111111111 5.32907052e-15 45.6666667 180 45.6666667 125.121534 0.111111111"></polygon>
                                <polygon id="Fill-8" fill="#008CCD" points="5.32907052e-15 0.111111111 5.32907052e-15 45.6666667 66.6666667 45.6666667 35.9097609 0.111111111"></polygon>
                                <polygon id="Fill-9" fill="#8C278F" points="5.32907052e-15 0.111111111 5.32907052e-15 45.6666667 34.6629867 45.6666667 36 0.111111111"></polygon>
                                <polygon id="Fill-10" fill="#E62E65" points="5.32907052e-15 0.111111111 5.32907052e-15 45.6666667 73.5662614 45.6666667 89.3333333 0.111111111"></polygon>
                            </g>
                        </g>
                    </g>
                    <g id="Page-1-Copy-4" transform="translate(960.000000, 0.000000)">
                        <mask id="mask-4" fill="white">
                            <use xlink:href="#path-3"></use>
                        </mask>
                        <use id="Mask" fill="#D8D8D8" xlink:href="#path-3"></use>
                        <g id="Page-1" mask="url(#mask-4)">
                            <g transform="translate(-10.666667, -2.222222)">
                                <polygon id="Fill-1" fill="#FFE600" points="390.448499 1.11111111 176 46.6666667 500 46.6666667 484.603019 1.11111111"></polygon>
                                <polygon id="Fill-2" fill="#40D5E7" points="88 46.6666667 580 46.6666667 580 1.11111111 88 1.11111111"></polygon>
                                <polygon id="Fill-3" fill="#008CCD" points="127.419912 1.11111111 112 46.6666667 382.666667 46.6666667 167.903056 1.11111111"></polygon>
                                <polygon id="Fill-4" fill="#7F3F98" points="234.676822 1.11111111 177.333333 46.6666667 432 46.6666667 374.654382 1.11111111"></polygon>
                                <polygon id="Fill-5" fill="#E62E65" points="345.04307 1.11111111 245.333333 46.6666667 461.333333 46.6666667 428.09533 1.11111111"></polygon>
                                <polygon id="Fill-6" fill="#FFE600" points="0 1.11111111 0 46.6666667 151.570759 46.6666667 184 1.11111111"></polygon>
                                <polygon id="Fill-7" fill="#40D5E7" points="0 1.11111111 0 46.6666667 180 46.6666667 125.121534 1.11111111"></polygon>
                                <polygon id="Fill-8" fill="#008CCD" points="0 1.11111111 0 46.6666667 66.6666667 46.6666667 35.9097609 1.11111111"></polygon>
                                <polygon id="Fill-9" fill="#8C278F" points="0 1.11111111 0 46.6666667 34.6629867 46.6666667 36 1.11111111"></polygon>
                                <polygon id="Fill-10" fill="#E62E65" points="0 1.11111111 0 46.6666667 73.5662614 46.6666667 89.3333333 1.11111111"></polygon>
                            </g>
                        </g>
                    </g>
                    <g id="Page-1-Copy-3" transform="translate(480.000000, 0.000000)">
                        <mask id="mask-6" fill="white">
                            <use xlink:href="#path-5"></use>
                        </mask>
                        <use id="Mask" fill="#D8D8D8" xlink:href="#path-5"></use>
                        <g id="Page-1" mask="url(#mask-6)">
                            <g transform="translate(-10.666667, -2.222222)">
                                <polygon id="Fill-1" fill="#FFE600" points="390.448499 1.11111111 176 46.6666667 500 46.6666667 484.603019 1.11111111"></polygon>
                                <polygon id="Fill-2" fill="#40D5E7" points="88 46.6666667 580 46.6666667 580 1.11111111 88 1.11111111"></polygon>
                                <polygon id="Fill-3" fill="#008CCD" points="127.419912 1.11111111 112 46.6666667 382.666667 46.6666667 167.903056 1.11111111"></polygon>
                                <polygon id="Fill-4" fill="#7F3F98" points="234.676822 1.11111111 177.333333 46.6666667 432 46.6666667 374.654382 1.11111111"></polygon>
                                <polygon id="Fill-5" fill="#E62E65" points="345.04307 1.11111111 245.333333 46.6666667 461.333333 46.6666667 428.09533 1.11111111"></polygon>
                                <polygon id="Fill-6" fill="#FFE600" points="0 1.11111111 0 46.6666667 151.570759 46.6666667 184 1.11111111"></polygon>
                                <polygon id="Fill-7" fill="#40D5E7" points="0 1.11111111 0 46.6666667 180 46.6666667 125.121534 1.11111111"></polygon>
                                <polygon id="Fill-8" fill="#008CCD" points="0 1.11111111 0 46.6666667 66.6666667 46.6666667 35.9097609 1.11111111"></polygon>
                                <polygon id="Fill-9" fill="#8C278F" points="0 1.11111111 0 46.6666667 34.6629867 46.6666667 36 1.11111111"></polygon>
                                <polygon id="Fill-10" fill="#E62E65" points="0 1.11111111 0 46.6666667 73.5662614 46.6666667 89.3333333 1.11111111"></polygon>
                            </g>
                        </g>
                    </g>
                </g>
            </g>
        </g>
    </g>
</svg>