<?xml version="1.0" encoding="UTF-8" standalone="no"?>
<svg width="24px" height="24px" viewBox="0 0 24 24" version="1.1" xmlns="http://www.w3.org/2000/svg" xmlns:xlink="http://www.w3.org/1999/xlink">
    <!-- Generator: sketchtool 3.7.2 (28276) - http://www.bohemiancoding.com/sketch -->
    <title>85A93DBC-DBA6-4FBE-BFF4-6166ED5EAB62</title>
    <desc>Created with sketchtool.</desc>
    <defs></defs>
    <g id="Page-1" stroke="none" stroke-width="1" fill="none" fill-rule="evenodd">
        <g id="спецпредложение" transform="translate(-826.000000, -1635.000000)">
            <g id="Group-5" transform="translate(120.000000, 1238.000000)">
                <g id="офис-21-copy-5" transform="translate(0.000000, 360.000000)">
                    <g id="Group" transform="translate(586.000000, 37.000000)">
                        <g id="coworking-small" transform="translate(121.000000, 1.000000)">
                            <ellipse id="Oval-1-Copy-4" stroke="#FFFFFF" stroke-width="1" cx="10.9478723" cy="10.903169" rx="8.73801418" ry="9.03799883"></ellipse>
                            <path d="M10.9478723,10.4552299 L4.19506499,3.70242256 L3.7127949,4.18469265 L10.4656023,10.9375 L3.7127949,17.6903073 L4.19506499,18.1725774 L10.9478723,11.4197701 L17.7006797,18.1725774 L18.1829498,17.6903073 L11.4301424,10.9375 L18.1829498,4.18469265 L17.7006797,3.70242256 L10.9478723,10.4552299 Z" id="Rectangle-8" fill="#FFFFFF" fill-rule="evenodd"></path>
                            <path d="M4.07446809,7.65625 C6.1185092,7.65625 7.77553191,5.94234006 7.77553191,3.828125 C7.77553191,1.71390994 6.1185092,0 4.07446809,0 C2.03042697,0 0.373404255,1.71390994 0.373404255,3.828125 C0.373404255,5.94234006 2.03042697,7.65625 4.07446809,7.65625 Z M17.8212766,7.65625 C19.8653177,7.65625 21.5223404,5.94234006 21.5223404,3.828125 C21.5223404,1.71390994 19.8653177,0 17.8212766,0 C15.7772355,0 14.1202128,1.71390994 14.1202128,3.828125 C14.1202128,5.94234006 15.7772355,7.65625 17.8212766,7.65625 Z M4.07446809,21.875 C6.1185092,21.875 7.77553191,20.1610901 7.77553191,18.046875 C7.77553191,15.9326599 6.1185092,14.21875 4.07446809,14.21875 C2.03042697,14.21875 0.373404255,15.9326599 0.373404255,18.046875 C0.373404255,20.1610901 2.03042697,21.875 4.07446809,21.875 Z M17.8212766,21.875 C19.8653177,21.875 21.5223404,20.1610901 21.5223404,18.046875 C21.5223404,15.9326599 19.8653177,14.21875 17.8212766,14.21875 C15.7772355,14.21875 14.1202128,15.9326599 14.1202128,18.046875 C14.1202128,20.1610901 15.7772355,21.875 17.8212766,21.875 Z" id="Oval-1" stroke="#FFFFFF" stroke-width="1" fill="#009cdf" fill-rule="evenodd"></path>
                        </g>
                    </g>
                </g>
            </g>
        </g>
    </g>
</svg>