<?xml version="1.0" encoding="UTF-8" standalone="no"?>
<svg width="31px" height="21px" viewBox="0 0 31 21" version="1.1" xmlns="http://www.w3.org/2000/svg" xmlns:xlink="http://www.w3.org/1999/xlink">
    <!-- Generator: sketchtool 3.7.2 (28276) - http://www.bohemiancoding.com/sketch -->
    <title>EA64E92B-0083-45FD-90F1-9FBB4A33D249</title>
    <desc>Created with sketchtool.</desc>
    <defs>
        <polygon id="path-1" points="0 0.277372784 30.1541176 0.277372784 30.1541176 20.4402516 0 20.4402516"></polygon>
    </defs>
    <g id="Page-1" stroke="none" stroke-width="1" fill="none" fill-rule="evenodd">
        <g id="спецпредложение" transform="translate(-745.000000, -1638.000000)">
            <g id="Group-5" transform="translate(120.000000, 1238.000000)">
                <g id="офис-21-copy-5" transform="translate(0.000000, 360.000000)">
                    <g id="Group" transform="translate(586.000000, 37.000000)">
                        <g id="meeting-room-small" transform="translate(39.269504, 3.125000)">
                            <g id="Page-1">
                                <path d="M25.310154,8.321875 C25.310154,8.075 24.9730658,7.875 24.5512644,7.875 L16.4929158,7.875 C16.0728792,7.875 15.7304965,8.075 15.7304965,8.321875 C15.7304965,8.565625 16.0728792,8.76458333 16.4929158,8.76458333 L24.5512644,8.76458333 C24.9730658,8.76458333 25.310154,8.565625 25.310154,8.321875" id="Fill-1" fill="#FFFFFF"></path>
                                <path d="M23.3377117,10.875 L17.4940366,10.875 C17.0756095,10.875 16.7304965,11.0729167 16.7304965,11.31875 C16.7304965,11.565625 17.0756095,11.7645833 17.4940366,11.7645833 L23.3377117,11.7645833 C23.7561389,11.7645833 24.0994638,11.565625 24.0994638,11.31875 C24.0994638,11.0729167 23.7561389,10.875 23.3377117,10.875" id="Fill-3" fill="#FFFFFF"></path>
                                <g id="Group-7">
                                    <mask id="mask-2" fill="white">
                                        <use xlink:href="#path-1"></use>
                                    </mask>
                                    <g id="Clip-6"></g>
                                    <path d="M4.05437547,16.2141152 L4.08281101,14.2463122 C4.08281101,14.1781304 4.04726658,14.1156304 3.99217272,14.0815395 C2.30203504,13.0001001 1.29435044,11.2330546 1.29435044,9.3580546 C1.29435044,6.17623642 4.14501377,3.58722127 7.64969462,3.58722127 C9.37182228,3.58722127 10.981985,4.22358491 12.1656145,5.32206975 C11.760408,6.11184248 11.479607,6.96032733 11.3445382,7.8580546 C11.2254643,7.75010006 11.0761777,7.67813036 10.9091189,7.67813036 L4.38493867,7.67813036 C4.02238548,7.67813036 3.73447559,7.98684248 3.73447559,8.36563036 C3.73447559,8.7425243 4.02238548,9.05123642 4.38493867,9.05123642 L10.9091189,9.05123642 C11.0353016,9.05123642 11.1419349,9.00578188 11.246791,8.939494 C11.2396821,9.00010006 11.2361277,9.05881218 11.2361277,9.1175243 C11.2361277,10.6061607 11.6360025,12.0057819 12.3326733,13.2368425 C11.134826,14.4357061 9.45535169,15.1364637 7.64969462,15.1364637 C7.15384981,15.1364637 6.6331239,15.0758576 6.10884355,14.9603273 C6.06796746,14.9508576 6.01287359,14.9603273 5.9808836,14.9849485 L4.05437547,16.2141152 Z M25.4890715,18.2406304 L22.8809442,16.5611176 C22.8507051,16.5429498 22.8129061,16.530838 22.780777,16.530838 C22.7694373,16.530838 22.7543177,16.5348753 22.7391982,16.5389126 C22.0455875,16.6943482 21.3595366,16.7730754 20.6904953,16.7730754 C16.0393349,16.7730754 12.2556604,13.317155 12.2556604,9.07194437 C12.2556604,4.82875239 16.0393349,1.37888794 20.6904953,1.37888794 C25.3492154,1.37888794 29.1404497,4.82875239 29.1404497,9.07194437 C29.1404497,11.5750643 27.7966972,13.9288045 25.5533297,15.3680984 C25.4890715,15.404434 25.4569424,15.4750866 25.4569424,15.5437205 L25.4890715,18.2406304 Z M20.6909462,0.276615209 C17.4386308,0.276615209 14.5719725,1.82017581 12.867617,4.16108491 C11.4653892,2.92623642 9.59397497,2.20653945 7.64969462,2.20653945 C3.43234793,2.20653945 0.000533166458,5.41487278 0.000533166458,9.3580546 C0.000533166458,11.5171455 1.02065832,13.5285091 2.80143429,14.8921455 L2.80143429,18.3126001 C2.80143429,18.3826758 2.83875594,18.4470698 2.89562703,18.4811607 C2.92228536,18.4963122 2.95427534,18.5038879 2.98448811,18.5038879 C3.0164781,18.5038879 3.04846809,18.4963122 3.07868085,18.4754788 L6.28656571,16.3978273 C6.76819274,16.4754788 7.21249812,16.5152516 7.64969462,16.5152516 C9.70238548,16.5152516 11.6662153,15.721691 13.0933242,14.3618425 C14.8190063,16.5398728 17.5772541,17.9622213 20.6909462,17.9622213 C21.2294443,17.9622213 21.7821602,17.9129788 22.3953016,17.814494 L26.3976045,20.4110849 C26.4260401,20.4300243 26.4598073,20.439494 26.4882428,20.439494 C26.5202328,20.439494 26.5504456,20.4300243 26.5788811,20.4148728 C26.6375294,20.3826758 26.6695194,20.3182819 26.6695194,20.2482061 L26.6695194,15.9641152 C28.8874919,14.2785091 30.1546508,11.7898728 30.1546508,9.1175243 C30.1546508,4.2425243 25.9088686,0.276615209 20.6909462,0.276615209 L20.6909462,0.276615209 Z" id="Fill-5" fill="#FFFFFF" mask="url(#mask-2)"></path>
                                </g>
                                <path d="M10.6256703,11.236 C10.6256703,11.037 10.337844,10.875 9.9850813,10.875 L5.37108545,10.875 C5.01832274,10.875 4.73049645,11.037 4.73049645,11.236 C4.73049645,11.438 5.01832274,11.602 5.37108545,11.602 L9.9850813,11.602 C10.337844,11.602 10.6256703,11.438 10.6256703,11.236" id="Fill-8" fill="#FFFFFF"></path>
                            </g>
                        </g>
                    </g>
                </g>
            </g>
        </g>
    </g>
</svg>