<?xml version="1.0" encoding="UTF-8" standalone="no"?>
<svg width="24px" height="24px" viewBox="0 0 24 24" version="1.1" xmlns="http://www.w3.org/2000/svg" xmlns:xlink="http://www.w3.org/1999/xlink">
    <!-- Generator: sketchtool 3.7.2 (28276) - http://www.bohemiancoding.com/sketch -->
    <title>95B2C778-EF7A-4F52-A482-2FFBF56C1923</title>
    <desc>Created with sketchtool.</desc>
    <defs>
        <polygon id="path-1" points="0 0.479166667 24 0.479166667 24 24.4791667 0 24.4791667"></polygon>
        <path d="M22.6213137,0.479166667 L1.37480811,0.479166667 C0.616627616,0.479166667 0,1.09579428 0,1.85591386 L0,23.1024195 C0,23.8606 0.616627616,24.4791667 1.37480811,24.4791667 L22.6213137,24.4791667 C23.3833724,24.4791667 24,23.8606 24,23.1024195 L24,1.85591386 C24,1.09579428 23.3833724,0.479166667 22.6213137,0.479166667 L22.6213137,0.479166667 Z" id="path-3"></path>
        <mask id="mask-4" maskContentUnits="userSpaceOnUse" maskUnits="objectBoundingBox" x="0" y="0" width="24" height="24" fill="white">
            <use xlink:href="#path-3"></use>
        </mask>
    </defs>
    <g id="Page-1" stroke="none" stroke-width="1" fill="none" fill-rule="evenodd">
        <g id="спецпредложение" transform="translate(-706.000000, -1396.000000)">
            <g id="Group-5" transform="translate(120.000000, 1238.000000)">
                <g id="офис-21-copy-3" transform="translate(0.000000, 120.000000)">
                    <g id="Group" transform="translate(586.000000, 37.000000)">
                        <g id="office-small" transform="translate(0.000000, 0.520833)">
                            <path d="M5.60469542,17.119877 L5.84026695,17.119877 C6.17414786,17.119877 6.44867217,16.8365114 6.44867217,16.4871566 L6.44867217,11.9106078 L8.35735803,15.3226403 C8.50389465,15.5768931 8.74132108,15.7224576 9.00657091,15.7224576 L9.05665305,15.7224576 C9.32190288,15.7224576 9.55747441,15.5768931 9.70586593,15.3148769 L11.5273718,11.9707745 L11.5273718,16.4871566 C11.5273718,16.8365114 11.7963314,17.119877 12.1302123,17.119877 L12.3713485,17.119877 C12.7052294,17.119877 12.974189,16.8365114 12.974189,16.4871566 L12.974189,9.11188715 C12.974189,8.76253228 12.7052294,8.47916667 12.3713485,8.47916667 L12.2099727,8.47916667 C12.0931144,8.47916667 11.9873855,8.50439785 11.8872212,8.54903764 C11.7592335,8.61114517 11.6553595,8.71012905 11.575599,8.84404842 C11.5681794,8.849871 11.5644697,8.8595753 11.5570501,8.86539788 L9.02141006,13.5079359 L6.40229982,8.84404842 C6.32253938,8.71012905 6.21310064,8.61114517 6.08696785,8.54709678 C5.98494868,8.50439785 5.88292952,8.47916667 5.76792609,8.47916667 L5.60469542,8.47916667 C5.27081452,8.47916667 5,8.76253228 5,9.11188715 L5,16.4871566 C5,16.8365114 5.27081452,17.119877 5.60469542,17.119877" id="Fill-1" fill="#000000" fill-rule="evenodd"></path>
                            <path d="M15.8121296,12.7827869 L18.7426897,12.7827869 C19.09061,12.7827869 19.3658877,12.5056258 19.3658877,12.1639203 L19.3658877,12.0652053 C19.3658877,11.6855326 19.0638469,11.3855911 18.6834285,11.3855911 L17.5555547,11.3855911 L18.0487605,10.8863214 C18.1902227,10.7458424 18.3278615,10.6072619 18.4521188,10.472478 C18.5974042,10.3168122 18.7273964,10.1554513 18.8401838,9.99409034 C18.9567945,9.81374577 19.0562003,9.62390938 19.1307547,9.42268281 C19.2091324,9.20816769 19.2511887,8.97466893 19.2511887,8.72788163 C19.2511887,8.4298385 19.1919275,8.15837246 19.0829634,7.92297534 C18.9701761,7.68378149 18.817244,7.48255492 18.6241673,7.32688908 C18.4444722,7.17501997 18.2284557,7.0630165 17.9933227,6.99087867 C17.5402615,6.85039974 17.0260276,6.85989156 16.5997295,7.01176067 C16.3722431,7.09149196 16.1600499,7.21298725 15.9841781,7.36865308 C15.804483,7.52431892 15.6553742,7.71415531 15.5425868,7.93056879 C15.4317111,8.14508391 15.3571568,8.38048104 15.3189237,8.64055689 C15.2998072,8.80571455 15.3418636,8.97277057 15.443181,9.10375768 C15.5464101,9.23284642 15.6955189,9.31637443 15.8637441,9.3391548 L15.9382985,9.34674825 C15.9688849,9.35054498 16.0109412,9.35434171 16.0357927,9.35434171 C16.3569499,9.35434171 16.6341392,9.13792823 16.7201635,8.81900309 C16.7239868,8.80191782 16.7278101,8.78483254 16.7297218,8.76774727 C16.745015,8.68042253 16.7717781,8.61018307 16.8061878,8.54753706 C16.8386858,8.48868778 16.8730955,8.44312704 16.9208868,8.40515977 C16.9686781,8.36529412 17.0260276,8.33302194 17.089112,8.30834321 C17.215281,8.26468084 17.4026227,8.25898575 17.559378,8.30834321 C17.6148159,8.32542848 17.6606955,8.35200558 17.7008402,8.3823794 C17.7390732,8.41465159 17.7639246,8.45451723 17.7906877,8.50767142 C17.8136275,8.54374033 17.8289207,8.61208143 17.8289207,8.72977999 C17.8289207,8.81900309 17.8174508,8.89683601 17.7868644,8.97277057 C17.7543664,9.06199367 17.7084868,9.1550135 17.6492256,9.2442366 C17.5784945,9.35244334 17.4924703,9.45875172 17.3987994,9.56316174 C17.286012,9.68845375 17.1674897,9.81374577 17.0451441,9.94093615 L15.404948,11.5830209 C15.3571568,11.6361751 15.3112771,11.6950244 15.2749558,11.7614671 C15.2176063,11.8696739 15.1889315,11.9835757 15.1889315,12.1031726 L15.1889315,12.1639203 C15.1889315,12.5056258 15.4680325,12.7827869 15.8121296,12.7827869" id="Fill-3" fill="#000000" fill-rule="evenodd"></path>
                            <mask id="mask-2" fill="white">
                                <use xlink:href="#path-1"></use>
                            </mask>
                            <g id="Clip-6"></g>
                            <g id="Fill-5" mask="url(#mask-2)" stroke-width="2" stroke="#000000">
                                <use mask="url(#mask-4)" xlink:href="#path-3"></use>
                            </g>
                        </g>
                    </g>
                </g>
            </g>
        </g>
    </g>
</svg>