<?xml version="1.0" encoding="UTF-8" standalone="no"?>
<svg width="21px" height="25px" viewBox="0 0 21 25" version="1.1" xmlns="http://www.w3.org/2000/svg" xmlns:xlink="http://www.w3.org/1999/xlink">
    <!-- Generator: sketchtool 3.7.2 (28276) - http://www.bohemiancoding.com/sketch -->
    <title>E0D8257C-263B-498B-9F80-DFED39C001AE</title>
    <desc>Created with sketchtool.</desc>
    <defs>
        <polygon id="path-1" points="0 0 21.6524823 0 21.6524823 25 0 25"></polygon>
    </defs>
    <g id="Page-1" stroke="none" stroke-width="1" fill="none" fill-rule="evenodd">
        <g id="спецпредложение" transform="translate(-790.000000, -1635.000000)">
            <g id="Group-5" transform="translate(120.000000, 1238.000000)">
                <g id="офис-21-copy-5" transform="translate(0.000000, 360.000000)">
                    <g id="Group" transform="translate(586.000000, 37.000000)">
                        <g id="virtual-office-small" transform="translate(83.574468, 0.000000)">
                            <g id="Page-1">
                                <mask id="mask-2" fill="white">
                                    <use xlink:href="#path-1"></use>
                                </mask>
                                <g id="Clip-2"></g>
                                <path d="M17.3116482,22.6959738 L4.32245652,22.6959738 C2.88868237,22.6959738 1.72729189,21.4482518 1.72729189,19.9078986 C1.72729189,18.378317 2.86027426,17.1413667 4.27900881,17.1198233 C4.3374961,17.1234139 4.40600979,17.1341856 4.46449708,17.1413667 L5.45376782,17.2077922 L5.60416371,16.7464044 L5.77795451,16.2024335 C5.96344278,15.6225569 6.31937971,15.1503973 6.76555419,14.8200652 C7.18332054,14.5040953 7.68296911,14.3281575 8.22272325,14.3281575 C8.33969783,14.3281575 8.48006732,14.3407245 8.66555559,14.3766302 L9.57628625,14.5579538 L10.0341582,13.685446 C10.7293214,12.3605268 12.0243971,11.5364917 13.4147236,11.5364917 C15.5486741,11.5364917 17.2782269,13.3856337 17.3116482,15.6692343 C17.3016218,15.7482267 17.2915954,15.8361956 17.2915954,15.9259598 L17.256503,16.9492714 L17.3968725,16.9995393 L18.1572073,17.2903752 C18.2942346,17.3388479 18.4245777,17.4052734 18.558263,17.4806753 C19.3737429,17.9582207 19.9101549,18.8881776 19.9101549,19.9078986 C19.9101549,21.4482518 18.7404091,22.6959738 17.3116482,22.6959738 L17.3116482,22.6959738 Z M6.76555419,2.81320922 C7.73811427,2.11843451 8.9696895,1.62652684 10.2948444,1.39313998 L10.2948444,3.41283391 L10.9348625,3.337432 C11.3024968,3.30152633 11.6851708,3.28357349 12.047792,3.28357349 C14.0547416,3.28357349 15.9864933,3.86704063 17.3968725,4.89932863 L17.3968725,6.04831006 C15.826071,4.89932863 13.9929122,4.31765678 11.9258043,4.31765678 C10.0525399,4.31765678 8.65218706,4.7610918 7.51753363,5.71259205 C7.26186062,5.92084493 7.22342612,6.31401202 7.4222829,6.58330454 C7.61445543,6.85259706 7.97707663,6.902865 8.22773644,6.69281683 C9.15183563,5.92084493 10.3232525,5.55999295 11.9258043,5.55999295 C14.0447152,5.55999295 15.8845583,6.25297238 17.3968725,7.60841141 L17.3968725,8.6532664 C15.826071,7.50248969 13.9929122,6.92081784 11.9258043,6.92081784 C10.0525399,6.92081784 8.65218706,7.35707172 7.51753363,8.31216254 C7.26186062,8.52759656 7.22342612,8.90999194 7.4222829,9.18467031 C7.61445543,9.4575534 7.97707663,9.50243549 8.22773644,9.29238732 C9.15183563,8.52759656 10.3232525,8.16315401 11.9258043,8.16315401 C14.0447152,8.16315401 15.8845583,8.85254287 17.3968725,10.2061866 L17.3968725,12.1379116 C16.4460363,10.9171189 15.0139332,10.1361706 13.4147236,10.1361706 C11.4662613,10.1361706 9.79185369,11.3031048 8.89783368,13.0068289 C8.67558198,12.9601515 8.45333028,12.9314269 8.22272325,12.9314269 C7.7030219,12.9314269 7.21005759,13.0373487 6.76555419,13.2312393 L6.76555419,2.81320922 Z M18.585,15.9690466 C18.585,15.8846683 18.6067239,15.8056758 18.6067239,15.7195022 C18.6067239,15.4466191 18.5950264,15.1898936 18.558263,14.9277822 L18.558263,4.26559356 L18.3226428,4.08426993 C16.6816565,2.75755543 14.4457709,2.03226091 12.047792,2.03226091 C11.8472642,2.03226091 11.6517495,2.03944204 11.4528927,2.05380431 L11.4528927,0 L10.8162168,0.066425489 C8.92958393,0.276473657 7.16828096,0.94790968 5.8364418,1.99276467 L5.60416371,2.17049773 L5.60416371,14.0193687 C5.12791006,14.4861424 4.76528886,15.078586 4.55306355,15.7446362 C4.47452347,15.7428409 4.39598339,15.7195022 4.32245652,15.7195022 C2.17012423,15.7195022 0.425531915,17.5955734 0.425531915,19.9078986 C0.425531915,22.2184284 2.17012423,24.0909091 4.32245652,24.0909091 L17.3116482,24.0909091 C19.4589672,24.0909091 21.2119149,22.2184284 21.2119149,19.9078986 C21.2119149,18.0803 20.1056696,16.5345609 18.585,15.9690466 L18.585,15.9690466 Z" id="Fill-1" fill="#FFFFFF" mask="url(#mask-2)"></path>
                            </g>
                        </g>
                    </g>
                </g>
            </g>
        </g>
    </g>
</svg>