<?xml version="1.0" encoding="UTF-8" standalone="no"?>
<svg width="145px" height="158px" viewBox="0 0 145 158" version="1.1" xmlns="http://www.w3.org/2000/svg" xmlns:xlink="http://www.w3.org/1999/xlink">
    <!-- Generator: sketchtool 3.7.2 (28276) - http://www.bohemiancoding.com/sketch -->
    <title>B620BDA6-8B54-4BF2-8B2B-9C7415BD639D</title>
    <desc>Created with sketchtool.</desc>
    <defs></defs>
    <g id="Symbols" stroke="none" stroke-width="1" fill="none" fill-rule="evenodd">
        <g id="меню" transform="translate(-121.000000, -103.000000)">
            <g id="Group-53" transform="translate(121.000000, 102.000000)">
                <polygon id="Fill-21" fill="#FFE600" points="108.453516 11.5318349 134.896263 119.138742 36.1562729 147.969374 9.6933918 40.3729192"></polygon>
                <polygon id="Fill-23" fill="#91C73D" points="123.41492 135.450876 21.1835937 135.450876 21.1835937 24.0478244 123.41492 24.0478244"></polygon>
                <polygon id="Fill-25" fill="#008CCD" points="134.896867 40.3727101 108.45412 147.962894 9.69399583 119.138533 36.1548635 11.5316258"></polygon>
                <polygon id="Fill-26" fill="#8C278F" points="144.59348 79.7512317 72.3022771 158.514964 0.00704710369 79.7512317 72.3022771 0.979137775"></polygon>
                <polygon id="Fill-27" fill="#E62E65" points="142.133638 100.138578 53.5898007 155.820245 2.47816435 59.3697389 91.0119347 3.65671586"></polygon>
                <g id="Group" transform="translate(27.884093, 88.903226)" fill="#FEFEFE">
                    <path d="M0.0831794962,5.00811872 C0.0831794962,3.81320559 0.930096333,2.77892937 2.07560564,2.77892937 C2.80579997,2.77892937 3.27811897,3.12556691 3.65000233,3.5511138 L3.27811897,3.96820612 C2.95781068,3.60465943 2.59678524,3.34256764 2.0566043,3.34256764 C1.26397701,3.34256764 0.661363106,4.08657015 0.661363106,5.00811872 C0.661363106,5.94375824 1.29383626,6.66803341 2.11089385,6.66803341 C2.59678524,6.66803341 2.98766993,6.38339609 3.29169136,6.01984941 L3.66900367,6.411578 C3.27811897,6.90194329 2.80579997,7.24858083 2.07560564,7.24858083 C0.930096333,7.24858083 0.0831794962,6.23685014 0.0831794962,5.00811872" id="Fill-28"></path>
                    <path d="M7.50700275,4.75786333 C7.44999874,3.96876975 7.04825613,3.30085841 6.25291436,3.30085841 C5.58243853,3.30085841 5.0775458,3.91240593 4.99339701,4.75786333 L7.50700275,4.75786333 Z M4.40164102,5.00868236 C4.40164102,3.77713274 5.19426831,2.77949301 6.28005913,2.77949301 C7.42828292,2.77949301 8.11233113,3.77995093 8.11233113,5.05659161 L8.11233113,5.26795596 L4.99339701,5.26795596 C5.0775458,6.18104995 5.68287418,6.69959716 6.37235135,6.69959716 C6.90438885,6.69959716 7.29255907,6.45159632 7.61286736,6.0993224 L7.9738928,6.43750536 C7.58300811,6.92787065 7.11611806,7.24914446 6.36149344,7.24914446 C5.28113158,7.24914446 4.40164102,6.34450505 4.40164102,5.00868236 L4.40164102,5.00868236 Z" id="Fill-29"></path>
                    <polygon id="Fill-30" points="9.9432459 3.43387704 8.52628888 3.43387704 8.52628888 2.87305696 11.9248141 2.87305696 11.9248141 3.43387704 10.524144 3.43387704 10.524144 7.13979864 9.9432459 7.13979864"></polygon>
                    <path d="M14.424576,6.58517859 C15.0109031,6.58517859 15.374643,6.30617764 15.374643,5.77917587 C15.374643,5.26626504 15.0109031,5.02953697 14.4110037,5.02953697 L13.3632155,5.02953697 L13.3632155,6.58517859 L14.424576,6.58517859 Z M12.7850319,2.8736206 L13.3632155,2.8736206 L13.3632155,4.47998966 L14.4110037,4.47998966 C15.2660639,4.47998966 15.9745424,4.84917273 15.9745424,5.77353948 C15.9745424,6.60208773 15.374643,7.14036228 14.4842945,7.14036228 L12.7850319,7.14036228 L12.7850319,2.8736206 Z" id="Fill-31"></path>
                    <path d="M22.4089388,5.00811872 C22.4089388,4.08657015 21.7846091,3.34256764 20.9241199,3.34256764 C20.077203,3.34256764 19.5207352,4.08657015 19.5207352,5.00811872 C19.5207352,5.93248547 20.139636,6.66803341 20.9539791,6.66803341 C21.8144683,6.66803341 22.4089388,5.93248547 22.4089388,5.00811872 M18.9018345,5.00811872 C18.9018345,3.81320559 19.7786106,2.77892937 20.9539791,2.77892937 C22.1347766,2.77892937 23.0088382,3.7793873 23.0088382,5.00811872 C23.0088382,6.22275918 22.1347766,7.24858083 20.9241199,7.24858083 C19.7786106,7.24858083 18.9018345,6.24248652 18.9018345,5.00811872" id="Fill-32"></path>
                    <path d="M29.0053895,5.00811872 C29.0053895,4.01329718 28.6199337,3.34256764 27.8870249,3.34256764 C27.5205705,3.34256764 27.2464083,3.49756816 27.0211067,3.7765691 L27.0211067,6.25657748 C27.2464083,6.53276023 27.5205705,6.66803341 27.8870249,6.66803341 C28.644364,6.66803341 29.0053895,6.05930408 29.0053895,5.00811872 L29.0053895,5.00811872 Z M26.4212073,6.25657748 L26.4212073,3.7765691 C26.1850478,3.49756816 25.924458,3.34256764 25.5661471,3.34256764 C24.8223803,3.34256764 24.4396391,4.01329718 24.4396391,5.03066425 C24.4396391,6.05930408 24.79795,6.66803341 25.5661471,6.66803341 C25.924458,6.66803341 26.1850478,6.53276023 26.4212073,6.25657748 L26.4212073,6.25657748 Z M26.4212073,6.80894298 C26.168761,7.02594371 25.872883,7.24858083 25.4602824,7.24858083 C24.4884997,7.24858083 23.8288817,6.40875981 23.8288817,4.98557319 C23.8288817,3.60465943 24.4884997,2.77892937 25.4602824,2.77892937 C25.872883,2.77892937 26.168761,2.9987483 26.4212073,3.23265818 L26.4212073,1.36419732 L27.0211067,1.36419732 L27.0211067,3.23265818 C27.2762676,2.9987483 27.5341429,2.77892937 28.001033,2.77892937 C28.9320986,2.77892937 29.5917165,3.60465943 29.5917165,5.00811872 C29.5917165,6.40875981 28.9320986,7.24858083 28.001033,7.24858083 C27.5097126,7.24858083 27.2762676,7.02594371 27.0211067,6.80894298 L27.0211067,8.45194853 L26.4212073,8.45194853 L26.4212073,6.80894298 Z" id="Fill-33"></path>
                    <polygon id="Fill-34" points="30.6834792 2.87249333 31.2698062 2.87249333 31.2698062 6.25714112 33.596113 2.87249333 34.1797256 2.87249333 34.1797256 7.14205319 33.5852551 7.14205319 33.5852551 3.76304179 31.2535193 7.14205319 30.6834792 7.14205319"></polygon>
                    <path d="M35.2402718,5.00811872 C35.2402718,3.81320559 36.1034755,2.77892937 37.2462703,2.77892937 C38.0036094,2.77892937 38.4596415,3.12556691 38.8179525,3.5511138 L38.4406402,3.96820612 C38.1257609,3.60465943 37.7728789,3.34256764 37.2435558,3.34256764 C36.4454996,3.34256764 35.8401712,4.08657015 35.8401712,5.00811872 C35.8401712,5.94375824 36.4726444,6.66803341 37.2869875,6.66803341 C37.7891657,6.66803341 38.1420477,6.38339609 38.4650705,6.01984941 L38.8613841,6.411578 C38.4596415,6.90194329 37.9818936,7.24858083 37.2462703,7.24858083 C36.1034755,7.24858083 35.2402718,6.23685014 35.2402718,5.00811872" id="Fill-35"></path>
                    <polygon id="Fill-36" points="39.8062936 2.87249333 40.411622 2.87249333 40.411622 4.70713588 42.6700669 4.70713588 42.6700669 2.87249333 43.2401071 2.87249333 43.2401071 7.14205319 42.6700669 7.14205319 42.6700669 5.26795596 40.411622 5.26795596 40.411622 7.14205319 39.8062936 7.14205319"></polygon>
                    <path d="M48.4339874,2.87305696 L49.0311724,2.87305696 L49.0311724,7.14261683 L48.4339874,7.14261683 L48.4339874,2.87305696 Z M46.2081163,6.58461495 C46.7944433,6.58461495 47.1500398,6.3084322 47.1500398,5.77861223 C47.1500398,5.2657014 46.7808709,5.02897333 46.1701136,5.02897333 L45.1386123,5.02897333 L45.1386123,6.58461495 L46.2081163,6.58461495 Z M44.5604287,2.87305696 L45.1386123,2.87305696 L45.1386123,4.47942602 L46.1945439,4.47942602 C47.0441752,4.47942602 47.7417958,4.84860909 47.7417958,5.77297584 C47.7417958,6.6015241 47.1636122,7.13979864 46.2624058,7.13979864 L44.5604287,7.13979864 L44.5604287,2.87305696 Z" id="Fill-37"></path>
                    <polygon id="Fill-38" points="51.5230623 4.96697312 50.0572447 2.87305696 50.7168626 2.87305696 51.8542285 4.52733528 53.0295971 2.87305696 53.6810715 2.87305696 52.1881092 4.96697312 53.7435045 7.13979864 53.0648853 7.13979864 51.8542285 5.39533821 50.6218559 7.13979864 49.9920972 7.13979864"></polygon>
                    <polygon id="Fill-39" points="60.3703573 7.14120774 56.9881189 7.14120774 56.9881189 2.87164787 57.5473012 2.87164787 57.5473012 6.58602404 59.7623145 6.58602404 59.7623145 2.87164787 60.345927 2.87164787 60.345927 6.58602404 60.943112 6.58602404 60.8616777 8.21212044 60.3703573 8.21212044"></polygon>
                    <path d="M64.6250286,4.75786333 C64.5544522,3.96876975 64.1499951,3.30085841 63.3627968,3.30085841 C62.692321,3.30085841 62.1874282,3.91240593 62.0924215,4.75786333 L64.6250286,4.75786333 Z M61.5060945,5.00868236 C61.5060945,3.77713274 62.3068652,2.77949301 63.3845126,2.77949301 C64.5544522,2.77949301 65.2059267,3.77995093 65.2059267,5.05659161 L65.2059267,5.26795596 L62.0924215,5.26795596 C62.1874282,6.18104995 62.7846132,6.69959716 63.4768048,6.69959716 C64.0387016,6.69959716 64.4160139,6.45159632 64.7227498,6.0993224 L65.0783463,6.43750536 C64.6820326,6.92787065 64.1988557,7.24914446 63.4659469,7.24914446 C62.391014,7.24914446 61.5060945,6.34450505 61.5060945,5.00868236 L61.5060945,5.00868236 Z" id="Fill-40"></path>
                    <polygon id="Fill-41" points="66.2368851 2.87249333 66.83407 2.87249333 66.83407 4.70713588 69.1006584 4.70713588 69.1006584 2.87249333 69.6761275 2.87249333 69.6761275 7.14205319 69.1006584 7.14205319 69.1006584 5.26795596 66.83407 5.26795596 66.83407 7.14205319 66.2368851 7.14205319"></polygon>
                    <polygon id="Fill-42" points="71.9256146 3.43387704 70.5548037 3.43387704 70.5548037 2.87305696 73.9207553 2.87305696 73.9207553 3.43387704 72.5119417 3.43387704 72.5119417 7.13979864 71.9256146 7.13979864"></polygon>
                    <path d="M78.1338951,5.00276415 C78.1338951,3.99103347 77.5068509,3.34284946 76.7712276,3.34284946 C76.0328898,3.34284946 75.3488416,4.02203357 75.3488416,5.00840054 C75.3488416,6.00040389 76.0328898,6.66267885 76.7712276,6.66267885 C77.5177088,6.66267885 78.1338951,6.0595859 78.1338951,5.00276415 L78.1338951,5.00276415 Z M74.7978028,2.87221151 L75.362414,2.87221151 L75.362414,3.72612348 C75.6745789,3.22166723 76.1414689,2.77921119 76.8662343,2.77921119 C77.8081578,2.77921119 78.7446524,3.5908503 78.7446524,5.00840054 C78.7446524,6.41185982 77.8190157,7.24886265 76.8662343,7.24886265 C76.13604,7.24886265 75.6691499,6.8092248 75.362414,6.3216777 L75.362414,8.45223034 L74.7978028,8.45223034 L74.7978028,2.87221151 Z" id="Fill-43"></path>
                    <path d="M83.0764149,5.00811872 C83.0764149,4.08657015 82.4330838,3.34256764 81.6051683,3.34256764 C80.7663949,3.34256764 80.1692099,4.08657015 80.1692099,5.00811872 C80.1692099,5.93248547 80.8043976,6.66803341 81.637742,6.66803341 C82.4819444,6.66803341 83.0764149,5.93248547 83.0764149,5.00811872 M79.572025,5.00811872 C79.572025,3.81320559 80.4515156,2.77892937 81.637742,2.77892937 C82.8131106,2.77892937 83.6817432,3.7793873 83.6817432,5.00811872 C83.6817432,6.22275918 82.8076816,7.24858083 81.6051683,7.24858083 C80.4515156,7.24858083 79.572025,6.24248652 79.572025,5.00811872" id="Fill-44"></path>
                    <path d="M86.6231506,6.60180592 C87.1877618,6.60180592 87.5270714,6.31998678 87.5270714,5.88880351 C87.5270714,5.468893 87.1877618,5.21807397 86.5580031,5.21807397 L85.3147726,5.21807397 L85.3147726,6.60180592 L86.6231506,6.60180592 Z M86.5308583,4.70234496 C86.9977484,4.70234496 87.3316291,4.45152593 87.3316291,4.02316085 C87.3316291,3.66243236 87.046609,3.42288609 86.5580031,3.42288609 L85.3147726,3.42288609 L85.3147726,4.70234496 L86.5308583,4.70234496 Z M84.7311601,2.87333878 L86.6367229,2.87333878 C87.4157779,2.87333878 87.9125272,3.29888567 87.9125272,3.93297872 C87.9125272,4.51352614 87.5922189,4.77279974 87.2447658,4.92498207 C87.7279427,5.05743707 88.1215419,5.36743811 88.1215419,5.96207648 C88.1215419,6.70044261 87.5569307,7.14008046 86.6991559,7.14008046 L84.7311601,7.14008046 L84.7311601,2.87333878 Z" id="Fill-45"></path>
                </g>
                <g id="Group" transform="translate(27.168370, 64.967742)" fill="#FEFEFE">
                    <path d="M6.10044874,7.79574048 L6.10044874,9.08550992 C6.10044874,11.7486643 5.71990514,13.6509175 5.05949085,15.4047531 L9.52735459,15.4047531 L9.52735459,7.79574048 L6.10044874,7.79574048 Z M1.28224328,15.4047531 L2.37555108,15.4047531 C3.24939193,13.2202975 3.66416432,11.0755594 3.66416432,6.77981187 L3.66416432,5.29563634 L12.0743792,5.29563634 L12.0743792,15.4047531 L13.4616519,15.4047531 L13.1254044,20.5471077 L11.0032195,20.5471077 L11.0032195,17.9173995 L3.75074303,17.9173995 L3.58765291,20.5471077 L1.28224328,20.5471077 L1.28224328,15.4047531 Z" id="Fill-46"></path>
                    <polygon id="Fill-47" points="15.2494014 5.29500922 23.9817696 5.29500922 23.9817696 7.76375754 17.7722646 7.76375754 17.7722646 10.3307541 23.2327632 10.3307541 23.2327632 12.7890505 17.7722646 12.7890505 17.7722646 15.4417529 24.062308 15.4417529 24.062308 17.9167724 15.2494014 17.9167724"></polygon>
                    <path d="M36.130171,5.29500922 L36.130171,17.9167724 L33.5831464,17.9167724 L33.5831464,7.79511336 L30.2508731,7.79511336 L30.2508731,8.75460149 C30.2508731,16.1817503 29.1334038,18.0756419 26.4877197,18.0756419 C26.0729473,18.0756419 25.4769637,17.9982976 25.1568238,17.9167724 L25.3219274,15.6173455 C25.4326676,15.6340686 25.5494482,15.6633341 25.7145518,15.6633341 C27.0897437,15.6633341 27.868952,14.7059363 27.868952,7.91217509 L27.868952,5.29500922 L36.130171,5.29500922 Z" id="Fill-48"></path>
                    <path d="M48.0359507,11.6029643 C48.0359507,9.43732223 46.5802204,7.62913655 44.5385738,7.62913655 C42.4767926,7.62913655 41.0552911,9.40178564 41.0552911,11.6029643 C41.0552911,13.7665159 42.5029676,15.5705209 44.5587084,15.5705209 C46.6063954,15.5705209 48.0359507,13.8020525 48.0359507,11.6029643 M38.3975263,11.6029643 C38.3975263,8.01167757 40.9908605,5.08304387 44.5587084,5.08304387 C48.1285698,5.08304387 50.7017693,7.9886833 50.7017693,11.6029643 C50.7017693,15.1921606 48.0903141,18.1249751 44.5385738,18.1249751 C40.9465644,18.1249751 38.3975263,15.2235164 38.3975263,11.6029643" id="Fill-49"></path>
                    <path d="M58.4680803,15.4754082 C59.59159,15.4754082 60.264085,15.0343363 60.264085,14.0811193 C60.264085,13.2198795 59.6801821,12.6931017 58.383515,12.6931017 L55.447893,12.6931017 L55.447893,15.4754082 L58.4680803,15.4754082 Z M57.7875314,10.3915844 C58.9190949,10.3915844 59.6217918,9.99859143 59.6217918,9.02656098 C59.6217918,8.20085769 59.033862,7.72842998 57.9566619,7.72842998 L55.447893,7.72842998 L55.447893,10.3915844 L57.7875314,10.3915844 Z M52.9592587,5.29521826 L58.3351921,5.29521826 C59.6519937,5.29521826 60.7010054,5.68612083 61.3634332,6.40312394 C61.8949861,6.9884326 62.1506953,7.690803 62.1506953,8.59594103 C62.1506953,10.006953 61.4661195,10.8138428 60.6325479,11.3197167 C61.9855918,11.8694888 62.7970154,12.7098248 62.7970154,14.4469373 C62.7970154,16.7547257 61.0835625,17.9169815 58.4680803,17.9169815 L52.9592587,17.9169815 L52.9592587,5.29521826 Z" id="Fill-50"></path>
                    <path d="M74.029092,11.6029643 C74.029092,9.43732223 72.5693348,7.62913655 70.5297016,7.62913655 C68.4638935,7.62913655 67.0464189,9.40178564 67.0464189,11.6029643 C67.0464189,13.7665159 68.4981223,15.5705209 70.55789,15.5705209 C72.6035636,15.5705209 74.029092,13.8020525 74.029092,11.6029643 M64.3826137,11.6029643 C64.3826137,8.01167757 66.9860152,5.08304387 70.55789,5.08304387 C74.1136572,5.08304387 76.6868568,7.9886833 76.6868568,11.6029643 C76.6868568,15.1921606 74.0874823,18.1249751 70.5297016,18.1249751 C66.9356787,18.1249751 64.3826137,15.2235164 64.3826137,11.6029643" id="Fill-51"></path>
                    <path d="M81.2020368,1.61028216 L82.6738747,1.31135666 C82.8832744,2.06389637 83.2799257,2.51960097 83.9765822,2.51960097 C84.6812926,2.51960097 85.0739169,2.06389637 85.2873435,1.31135666 L86.7611949,1.61028216 C86.5115261,3.32021961 85.4967431,4.34450976 83.9765822,4.34450976 C82.4523943,4.34450976 81.4174768,3.32021961 81.2020368,1.61028216 L81.2020368,1.61028216 Z M88.9196221,17.9173995 L86.4128666,17.9173995 L86.4128666,9.63528199 L81.3570731,17.9173995 L78.9489771,17.9173995 L78.9489771,5.29563634 L81.4537191,5.29563634 L81.4537191,13.5652116 L86.5477683,5.29563634 L88.9196221,5.29563634 L88.9196221,17.9173995 Z" id="Fill-52"></path>
                </g>
            </g>
        </g>
    </g>
</svg>