<?xml version="1.0" encoding="UTF-8" standalone="no"?>
<svg width="300px" height="110px" viewBox="0 0 300 110" version="1.1" xmlns="http://www.w3.org/2000/svg" xmlns:xlink="http://www.w3.org/1999/xlink">
    <!-- Generator: Sketch 41.2 (35397) - http://www.bohemiancoding.com/sketch -->
    <title>logo</title>
    <desc>Created with Sketch.</desc>
    <defs></defs>
    <g id="Symbols" stroke="none" stroke-width="1" fill="none" fill-rule="evenodd">
        <g id="logo">
            <g id="-g-Group-53" transform="translate(3.000000, 2.000000)">
                <g id="Group-2">
                    <polygon id="Fill-21" fill="#FFE600" points="68.8118862 7.3167504 85.589353 75.5914776 22.9405318 93.8840168 6.15028997 25.6159211"></polygon>
                    <polygon id="Fill-23" fill="#91C73D" points="78.304639 85.9412456 13.440625 85.9412456 13.440625 15.25793 78.304639 15.25793"></polygon>
                    <polygon id="Fill-25" fill="#008CCD" points="85.5897362 25.6157885 68.8122695 93.8799052 6.15067322 75.591345 22.9396375 7.31661777"></polygon>
                    <polygon id="Fill-26" fill="#8C278F" points="91.7420702 50.6007815 45.8745482 100.575012 0.00447126579 50.6007815 45.8745482 0.621246037"></polygon>
                    <polygon id="Fill-27" fill="#E62E65" points="90.1813429 63.5362009 34.0018046 98.8652587 1.57235255 37.6690757 57.7455034 2.32012317"></polygon>
                </g>
                <g id="Group" transform="translate(101.716138, 70.903226)" fill="#000000">
                    <path d="M0.17681706,8.52017385 C0.17681706,5.98011247 1.97713267,3.78152161 4.41217493,3.78152161 C5.96437012,3.78152161 6.96839229,4.51837903 7.75891549,5.42297637 L6.96839229,6.30960156 C6.28750369,5.53679987 5.52006146,4.97966377 4.37178324,4.97966377 C2.68687247,4.97966377 1.40587868,6.56121142 1.40587868,8.52017385 C1.40587868,10.5090898 2.75034514,12.0487025 4.48718808,12.0487025 C5.52006146,12.0487025 6.35097636,11.4436407 6.9972435,10.670839 L7.79930718,11.5035478 C6.96839229,12.5459315 5.96437012,13.2827889 4.41217493,13.2827889 C1.97713267,13.2827889 0.17681706,11.1321238 0.17681706,8.52017385" id="Fill-28"></path>
                    <path d="M15.9578528,7.98819873 C15.8366777,6.31079971 14.9826819,4.89100125 13.2920009,4.89100125 C11.866751,4.89100125 10.7934859,6.19098549 10.6146084,7.98819873 L15.9578528,7.98819873 Z M9.35669559,8.52137199 C9.35669559,5.90343137 11.0416063,3.78271975 13.3497033,3.78271975 C15.7905158,3.78271975 17.2446169,5.90942208 17.2446169,8.62321408 L17.2446169,9.07251739 L10.6146084,9.07251739 C10.7934859,11.0135077 12.08025,12.1157985 13.5458915,12.1157985 C14.676859,12.1157985 15.5020037,11.5886159 16.1828923,10.8397771 L16.9503345,11.5586624 C16.1194196,12.6010461 15.1269379,13.2839871 13.5228106,13.2839871 C11.2262541,13.2839871 9.35669559,11.3609689 9.35669559,8.52137199 L9.35669559,8.52137199 Z" id="Fill-29"></path>
                    <polygon id="Fill-30" points="21.1366453 5.1737628 18.1245788 5.1737628 18.1245788 3.98161135 25.3489222 3.98161135 25.3489222 5.1737628 22.3714772 5.1737628 22.3714772 13.0515475 21.1366453 13.0515475"></polygon>
                    <path d="M30.6627384,11.8725756 C31.9091107,11.8725756 32.6823232,11.2794952 32.6823232,10.1592323 C32.6823232,9.06892296 31.9091107,8.56570325 30.6338872,8.56570325 L28.4065736,8.56570325 L28.4065736,11.8725756 L30.6627384,11.8725756 Z M27.177512,3.98280949 L28.4065736,3.98280949 L28.4065736,7.39751465 L30.6338872,7.39751465 C32.4515135,7.39751465 33.9575467,8.18229776 33.9575467,10.1472509 C33.9575467,11.9085199 32.6823232,13.0527456 30.7896837,13.0527456 L27.177512,13.0527456 L27.177512,3.98280949 Z" id="Fill-31"></path>
                    <path d="M47.6353292,8.52017385 C47.6353292,6.56121142 46.3081734,4.97966377 44.4790066,4.97966377 C42.678691,4.97966377 41.4957913,6.56121142 41.4957913,8.52017385 C41.4957913,10.485127 42.8114066,12.0487025 44.5424793,12.0487025 C46.3716461,12.0487025 47.6353292,10.485127 47.6353292,8.52017385 M40.1801761,8.52017385 C40.1801761,5.98011247 42.0439644,3.78152161 44.5424793,3.78152161 C47.0525347,3.78152161 48.9105527,5.90822394 48.9105527,8.52017385 C48.9105527,11.1021702 47.0525347,13.2827889 44.4790066,13.2827889 C42.0439644,13.2827889 40.1801761,11.1441052 40.1801761,8.52017385" id="Fill-32"></path>
                    <path d="M61.6575951,8.52017385 C61.6575951,6.40545294 60.8382207,4.97966377 59.2802552,4.97966377 C58.5012725,4.97966377 57.918478,5.30915286 57.4395479,5.90223323 L57.4395479,11.1740587 C57.918478,11.7611484 58.5012725,12.0487025 59.2802552,12.0487025 C60.8901528,12.0487025 61.6575951,10.754709 61.6575951,8.52017385 L61.6575951,8.52017385 Z M56.1643244,11.1740587 L56.1643244,5.90223323 C55.6623133,5.30915286 55.10837,4.97966377 54.346698,4.97966377 C52.7656516,4.97966377 51.9520475,6.40545294 51.9520475,8.56809954 C51.9520475,10.754709 52.7137194,12.0487025 54.346698,12.0487025 C55.10837,12.0487025 55.6623133,11.7611484 56.1643244,11.1740587 L56.1643244,11.1740587 Z M56.1643244,12.3482381 C55.6276918,12.8095228 54.9987354,13.2827889 54.1216586,13.2827889 C52.0559118,13.2827889 50.6537429,11.4975571 50.6537429,8.47224816 C50.6537429,5.53679987 52.0559118,3.78152161 54.1216586,3.78152161 C54.9987354,3.78152161 55.6276918,4.24879705 56.1643244,4.74602604 L56.1643244,0.774184782 L57.4395479,0.774184782 L57.4395479,4.74602604 C57.9819507,4.24879705 58.5301237,3.78152161 59.5226054,3.78152161 C61.5017985,3.78152161 62.9039674,5.53679987 62.9039674,8.52017385 C62.9039674,11.4975571 61.5017985,13.2827889 59.5226054,13.2827889 C58.4781915,13.2827889 57.9819507,12.8095228 57.4395479,12.3482381 L57.4395479,15.8408225 L56.1643244,15.8408225 L56.1643244,12.3482381 Z" id="Fill-33"></path>
                    <polygon id="Fill-34" points="65.2247589 3.9804132 66.4711312 3.9804132 66.4711312 11.1752569 71.4162289 3.9804132 72.656831 3.9804132 72.656831 13.0563401 71.3931479 13.0563401 71.3931479 5.87347782 66.4365098 13.0563401 65.2247589 13.0563401"></polygon>
                    <path d="M74.9112647,8.52017385 C74.9112647,5.98011247 76.7462017,3.78152161 79.1754738,3.78152161 C80.7853714,3.78152161 81.7547721,4.51837903 82.5164441,5.42297637 L81.7143804,6.30960156 C81.0450323,5.53679987 80.2949008,4.97966377 79.1697035,4.97966377 C77.4732523,4.97966377 76.1864882,6.56121142 76.1864882,8.52017385 C76.1864882,10.5090898 77.5309547,12.0487025 79.2620274,12.0487025 C80.3295222,12.0487025 81.0796537,11.4436407 81.7663126,10.670839 L82.6087679,11.5035478 C81.7547721,12.5459315 80.7392094,13.2827889 79.1754738,13.2827889 C76.7462017,13.2827889 74.9112647,11.1321238 74.9112647,8.52017385" id="Fill-35"></path>
                    <polygon id="Fill-36" points="84.6173893 3.9804132 85.9041533 3.9804132 85.9041533 7.88036594 90.704995 7.88036594 90.704995 3.9804132 91.9167459 3.9804132 91.9167459 13.0563401 90.704995 13.0563401 90.704995 9.07251739 85.9041533 9.07251739 85.9041533 13.0563401 84.6173893 13.0563401"></polygon>
                    <path d="M102.957528,3.98161135 L104.226981,3.98161135 L104.226981,13.0575382 L102.957528,13.0575382 L102.957528,3.98161135 Z M98.2259288,11.8713775 C99.4723012,11.8713775 100.228203,11.2842878 100.228203,10.1580342 C100.228203,9.06772482 99.44345,8.56450511 98.1451454,8.56450511 L95.9524533,8.56450511 L95.9524533,11.8713775 L98.2259288,11.8713775 Z M94.7233917,3.98161135 L95.9524533,3.98161135 L95.9524533,7.3963165 L98.1970776,7.3963165 C100.003163,7.3963165 101.486116,8.18109962 101.486116,10.1460528 C101.486116,11.9073217 100.257054,13.0515475 98.3413337,13.0515475 L94.7233917,13.0515475 L94.7233917,3.98161135 Z" id="Fill-37"></path>
                    <polygon id="Fill-38" points="109.524063 8.43270947 106.408132 3.98161135 107.810301 3.98161135 110.228033 7.49815859 112.726548 3.98161135 114.111406 3.98161135 110.937773 8.43270947 114.244122 13.0515475 112.801561 13.0515475 110.228033 9.34329752 107.608343 13.0515475 106.269647 13.0515475"></polygon>
                    <polygon id="Fill-39" points="128.331014 13.0545429 121.141292 13.0545429 121.141292 3.97861599 122.329962 3.97861599 122.329962 11.8743728 127.03848 11.8743728 127.03848 3.97861599 128.279082 3.97861599 128.279082 11.8743728 129.548535 11.8743728 129.375428 15.331013 128.331014 15.331013"></polygon>
                    <path d="M137.375292,7.98819873 C137.225266,6.31079971 136.3655,4.89100125 134.692129,4.89100125 C133.266879,4.89100125 132.193614,6.19098549 131.991656,7.98819873 L137.375292,7.98819873 Z M130.745284,8.52137199 C130.745284,5.90343137 132.447505,3.78271975 134.738291,3.78271975 C137.225266,3.78271975 138.610124,5.90942208 138.610124,8.62321408 L138.610124,9.07251739 L131.991656,9.07251739 C132.193614,11.0135077 133.463068,12.1157985 134.934479,12.1157985 C136.12892,12.1157985 136.930983,11.5886159 137.583021,10.8397771 L138.338922,11.5586624 C137.496467,12.6010461 136.469364,13.2839871 134.911398,13.2839871 C132.626383,13.2839871 130.745284,11.3609689 130.745284,8.52137199 L130.745284,8.52137199 Z" id="Fill-40"></path>
                    <polygon id="Fill-41" points="140.801662 3.9804132 142.071115 3.9804132 142.071115 7.88036594 146.889268 7.88036594 146.889268 3.9804132 148.112559 3.9804132 148.112559 13.0563401 146.889268 13.0563401 146.889268 9.07251739 142.071115 9.07251739 142.071115 13.0563401 140.801662 13.0563401"></polygon>
                    <polygon id="Fill-42" points="152.894359 5.1737628 149.980386 5.1737628 149.980386 3.98161135 157.135487 3.98161135 157.135487 5.1737628 154.140731 5.1737628 154.140731 13.0515475 152.894359 13.0515475"></polygon>
                    <path d="M166.09148,8.5087915 C166.09148,6.35812632 164.758554,4.98026284 163.194818,4.98026284 C161.625312,4.98026284 160.171211,6.42402414 160.171211,8.52077292 C160.171211,10.6295031 161.625312,12.0373202 163.194818,12.0373202 C164.781635,12.0373202 166.09148,10.7553081 166.09148,8.5087915 L166.09148,8.5087915 Z M158.999852,3.97981413 L160.200063,3.97981413 L160.200063,5.79499951 C160.86364,4.72266227 161.856122,3.78212068 163.396777,3.78212068 C165.399051,3.78212068 167.389784,5.50744539 167.389784,8.52077292 C167.389784,11.5041469 165.422132,13.283388 163.396777,13.283388 C161.844582,13.283388 160.8521,12.3488371 160.200063,11.3124442 L160.200063,15.8414215 L158.999852,15.8414215 L158.999852,3.97981413 Z" id="Fill-43"></path>
                    <path d="M176.597937,8.52017385 C176.597937,6.56121142 175.23039,4.97966377 173.470466,4.97966377 C171.687461,4.97966377 170.418008,6.56121142 170.418008,8.52017385 C170.418008,10.485127 171.768244,12.0487025 173.539709,12.0487025 C175.334254,12.0487025 176.597937,10.485127 176.597937,8.52017385 M169.148554,8.52017385 C169.148554,5.98011247 171.018113,3.78152161 173.539709,3.78152161 C176.038224,3.78152161 177.884701,5.90822394 177.884701,8.52017385 C177.884701,11.1021702 176.026683,13.2827889 173.470466,13.2827889 C171.018113,13.2827889 169.148554,11.1441052 169.148554,8.52017385" id="Fill-44"></path>
                    <path d="M184.137336,11.9079208 C185.337546,11.9079208 186.058827,11.3088497 186.058827,10.392271 C186.058827,9.49965507 185.337546,8.96648181 183.99885,8.96648181 L181.356079,8.96648181 L181.356079,11.9079208 L184.137336,11.9079208 Z M183.941148,7.87018173 C184.933629,7.87018173 185.643369,7.33700847 185.643369,6.42642042 C185.643369,5.65960944 185.037494,5.15039902 183.99885,5.15039902 L181.356079,5.15039902 L181.356079,7.87018173 L183.941148,7.87018173 Z M180.115477,3.98221042 L184.166187,3.98221042 C185.822247,3.98221042 186.878201,4.88680775 186.878201,6.23471768 C186.878201,7.4688041 186.197312,8.0199495 185.458721,8.34344788 C186.485824,8.62501129 187.32251,9.28398948 187.32251,10.5480295 C187.32251,12.1175957 186.122299,13.0521466 184.298903,13.0521466 L180.115477,13.0521466 L180.115477,3.98221042 Z" id="Fill-45"></path>
                </g>
                <g id="Group" transform="translate(101.000415, 20.967742)" fill="#000000">
                    <path d="M10.8964132,14.5181728 L10.8964132,17.2735894 C10.8964132,22.9630556 10.0834337,27.0269601 8.67254864,30.7737907 L18.2175303,30.7737907 L18.2175303,14.5181728 L10.8964132,14.5181728 Z M0.602974272,30.7737907 L2.9386773,30.7737907 C4.80551913,26.1069993 5.69162378,21.5250587 5.69162378,12.3477799 L5.69162378,9.17704127 L23.658901,9.17704127 L23.658901,30.7737907 L26.62262,30.7737907 L25.904273,41.7597302 L21.3705143,41.7597302 L21.3705143,36.1417172 L5.87658737,36.1417172 L5.52816758,41.7597302 L0.602974272,41.7597302 L0.602974272,30.7737907 Z" id="Fill-46"></path>
                    <polygon id="Fill-47" points="30.4419031 9.17570152 49.097417 9.17570152 49.097417 14.4498457 35.8316561 14.4498457 35.8316561 19.9338838 47.4972668 19.9338838 47.4972668 25.1856987 35.8316561 25.1856987 35.8316561 30.8528358 49.2694761 30.8528358 49.2694761 36.1403775 30.4419031 36.1403775"></polygon>
                    <path d="M75.0508199,9.17570152 L75.0508199,36.1403775 L69.6094491,36.1403775 L69.6094491,14.5168331 L62.4905016,14.5168331 L62.4905016,16.5666486 C62.4905016,32.4337393 60.1031808,36.4797805 54.4510376,36.4797805 C53.5649329,36.4797805 52.2916952,36.3145448 51.60776,36.1403775 L51.9604813,31.2279655 C52.1970626,31.2636921 52.4465484,31.3262137 52.7992697,31.3262137 C55.7371798,31.3262137 57.4018521,29.280864 57.4018521,14.7669195 L57.4018521,9.17570152 L75.0508199,9.17570152 Z" id="Fill-48"></path>
                    <path d="M100.485895,22.6517873 C100.485895,18.0251884 97.3759254,14.1622463 93.0142258,14.1622463 C88.6095115,14.1622463 85.5726674,17.9492693 85.5726674,22.6517873 C85.5726674,27.2739204 88.6654307,31.1279309 93.0572406,31.1279309 C97.4318446,31.1279309 100.485895,27.3498395 100.485895,22.6517873 M79.8947153,22.6517873 C79.8947153,14.979493 85.4350201,8.72286645 93.0572406,8.72286645 C100.683763,8.72286645 106.181053,14.9303689 106.181053,22.6517873 C106.181053,30.3196158 100.602035,36.585174 93.0142258,36.585174 C85.3403875,36.585174 79.8947153,30.3866033 79.8947153,22.6517873" id="Fill-49"></path>
                    <path d="M122.772717,30.9247357 C125.172942,30.9247357 126.609636,29.9824458 126.609636,27.9460277 C126.609636,26.1061061 125.362207,24.9807172 122.592055,24.9807172 L116.320499,24.9807172 L116.320499,30.9247357 L122.772717,30.9247357 Z M121.318817,20.0638394 C123.736248,20.0638394 125.237464,19.2242635 125.237464,17.147653 C125.237464,15.3836505 123.981433,14.3743731 121.680141,14.3743731 L116.320499,14.3743731 L116.320499,20.0638394 L121.318817,20.0638394 Z M111.003871,9.1761481 L122.488819,9.1761481 C125.301987,9.1761481 127.543057,10.0112581 128.958244,11.5430375 C130.093834,12.7934697 130.640122,14.2939882 130.640122,16.2276922 C130.640122,19.2421268 129.177619,20.9659369 127.396807,22.0466675 C130.287401,23.2211805 132.020897,25.0164438 132.020897,28.7275478 C132.020897,33.6578231 128.360338,36.140824 122.772717,36.140824 L111.003871,36.140824 L111.003871,9.1761481 Z" id="Fill-50"></path>
                    <path d="M156.016696,22.6517873 C156.016696,18.0251884 152.898124,14.1622463 148.540726,14.1622463 C144.127409,14.1622463 141.099168,17.9492693 141.099168,22.6517873 C141.099168,27.2739204 144.200534,31.1279309 148.600947,31.1279309 C152.971249,31.1279309 156.016696,27.3498395 156.016696,22.6517873 M135.408311,22.6517873 C135.408311,14.979493 140.970123,8.72286645 148.600947,8.72286645 C156.197359,8.72286645 161.694649,14.9303689 161.694649,22.6517873 C161.694649,30.3196158 156.141439,36.585174 148.540726,36.585174 C140.862586,36.585174 135.408311,30.3866033 135.408311,22.6517873" id="Fill-51"></path>
                    <path d="M171.340715,1.30378461 L174.485096,0.665171054 C174.93245,2.27286952 175.779841,3.24642026 177.268153,3.24642026 C178.77367,3.24642026 179.612459,2.27286952 180.068416,0.665171054 L183.217098,1.30378461 C182.683715,4.95683279 180.515769,7.14508904 177.268153,7.14508904 C174.011933,7.14508904 171.800973,4.95683279 171.340715,1.30378461 L171.340715,1.30378461 Z M187.828283,36.1417172 L182.472942,36.1417172 L182.472942,18.4481024 L171.671929,36.1417172 L166.52736,36.1417172 L166.52736,9.17704127 L171.8784,9.17704127 L171.8784,26.8438611 L182.761141,9.17704127 L187.828283,9.17704127 L187.828283,36.1417172 Z" id="Fill-52"></path>
                </g>
            </g>
        </g>
    </g>
</svg>