<?xml version="1.0" encoding="UTF-8" standalone="no"?>
<svg width="52px" height="52px" viewBox="0 0 52 52" version="1.1" xmlns="http://www.w3.org/2000/svg" xmlns:xlink="http://www.w3.org/1999/xlink">
    <!-- Generator: Sketch 41 (35326) - http://www.bohemiancoding.com/sketch -->
    <title>Group 7</title>
    <desc>Created with Sketch.</desc>
    <defs></defs>
    <g id="Page-1" stroke="none" stroke-width="1" fill="none" fill-rule="evenodd">
        <g id="сервис-аренда-общая" transform="translate(-746.000000, -573.000000)">
            <g id="Group" transform="translate(120.000000, 492.000000)">
                <g id="Group-7" transform="translate(627.000000, 82.000000)">
                    <g id="Group-6">
                        <circle id="Oval-Copy" stroke="#000000" stroke-width="1.5" cx="25" cy="25" r="25"></circle>
                        <g id="money" transform="translate(18.000000, 16.000000)" fill="#000000">
                            <g id="-g-Group">
                                <g id="P-+-Rectangle-498">
                                    <path d="M3.9,11.875 L3.9,19 L2.6125,19 L2.6125,1.3125 L7.1875,1.3125 C9.26251037,1.3125 10.8270781,1.76666212 11.88125,2.675 C12.9354219,3.58333788 13.4625,4.87915825 13.4625,6.5625 C13.4625,7.33750387 13.3166681,8.04999675 13.025,8.7 C12.7333319,9.35000325 12.3166694,9.91041431 11.775,10.38125 C11.2333306,10.8520857 10.5750039,11.2187487 9.8,11.48125 C9.02499613,11.7437513 8.1541715,11.875 7.1875,11.875 L3.9,11.875 Z M3.9,10.85 L7.1875,10.85 C7.96250387,10.85 8.65833025,10.7416677 9.275,10.525 C9.89166975,10.3083322 10.4145812,10.0083352 10.84375,9.625 C11.2729188,9.24166475 11.6020822,8.78958594 11.83125,8.26875 C12.0604178,7.74791406 12.175,7.17916975 12.175,6.5625 C12.175,5.20415987 11.7583375,4.158337 10.925,3.425 C10.0916625,2.691663 8.84584163,2.325 7.1875,2.325 L3.9,2.325 L3.9,10.85 Z" id="P"></path>
                                    <rect id="Rectangle-498" x="0" y="14" width="10" height="1"></rect>
                                </g>
                            </g>
                        </g>
                    </g>
                </g>
            </g>
        </g>
    </g>
</svg>