<?xml version="1.0" ?><svg height="512" preserveAspectRatio="xMidYMid" viewBox="0 0 512 512" width="512" xmlns="http://www.w3.org/2000/svg" xmlns:xlink="http://www.w3.org/1999/xlink"><defs><style>
      .cls-1 {
        fill: #fff;
      }

      .cls-2 {
        fill: #55acee;
      }

      .cls-2, .cls-3 {
        fill-rule: evenodd;
      }

      .cls-3 {
        fill: #000;
        opacity: 0.1;
      }
    </style></defs><circle class="cls-1" cx="256" cy="256" r="256"/><path class="cls-2" d="M256.000,512.000 C114.615,512.000 0.000,397.385 0.000,256.000 C0.000,114.615 114.615,0.000 256.000,0.000 C397.385,0.000 512.000,114.615 512.000,256.000 C512.000,397.385 397.385,512.000 256.000,512.000 ZM434.545,132.768 C411.043,147.217 388.692,151.955 383.818,152.143 C374.156,124.235 251.100,95.524 251.100,220.939 C221.040,229.238 134.142,194.341 95.156,141.244 C92.659,147.454 56.578,201.319 117.839,245.526 C111.290,245.440 103.336,240.923 85.493,236.907 C85.493,300.123 145.398,313.530 145.398,313.530 C145.398,313.530 130.006,316.265 112.065,314.406 C132.885,367.930 181.437,368.783 181.437,368.783 C181.437,368.783 155.382,399.692 71.000,399.170 C199.973,480.232 400.105,415.662 409.184,205.148 C434.707,184.433 443.000,165.463 443.000,165.463 L402.823,177.522 C402.823,177.522 429.866,155.049 434.545,132.768 Z"/><path class="cls-3" d="M436.999,75.012 C536.959,174.972 536.959,337.039 436.999,436.999 C337.039,536.959 174.972,536.959 75.012,436.999 "/></svg>