<?xml version="1.0" encoding="utf-8"?>
<!-- Svg Vector Icons : http://www.onlinewebfonts.com/icon -->
<!DOCTYPE svg PUBLIC "-//W3C//DTD SVG 1.1//EN" "http://www.w3.org/Graphics/SVG/1.1/DTD/svg11.dtd">
<svg version="1.1" xmlns="http://www.w3.org/2000/svg" xmlns:xlink="http://www.w3.org/1999/xlink" x="0px" y="0px" viewBox="0 0 1000 1000" enable-background="new 0 0 1000 1000" xml:space="preserve">
<metadata> Svg Vector Icons : http://www.onlinewebfonts.com/icon </metadata>
<g><path d="M990,948.2L684.7,642.9c57.5-67.1,92.6-154,92.6-249.3C777.3,182.1,605.2,10,393.6,10c-102.5,0-198.8,39.9-271.3,112.4C49.8,194.8,10,291.2,10,393.6c0,211.5,172.1,383.6,383.6,383.6c95.1,0,182.1-35.1,249.3-92.6L948.3,990L990,948.2z M393.6,718.3C214.6,718.3,69,572.7,69,393.6c0-86.8,33.7-168.3,95-229.6c61.3-61.3,142.8-95,229.6-95c179,0,324.6,145.6,324.6,324.6C718.3,572.7,572.7,718.3,393.6,718.3z M423.2,364.1h118v59h-118v118h-59v-118h-118v-59h118v-118h59V364.1L423.2,364.1z" style="fill:#595963;" /></g>
</svg>